<mxfile host="app.diagrams.net" modified="2024-06-30T20:18:47.273Z" agent="Mozilla/5.0 (X11; Ubuntu; Linux x86_64; rv:127.0) Gecko/20100101 Firefox/127.0" etag="bb0cV342BSunuRFFKLJi" version="24.6.4" type="device">
  <diagram name="Page-1" id="2kUY3TybsNBlHx37Jfgu">
    <mxGraphModel dx="1063" dy="636" grid="1" gridSize="10" guides="1" tooltips="1" connect="1" arrows="1" fold="1" page="1" pageScale="1" pageWidth="827" pageHeight="1169" math="0" shadow="0">
      <root>
        <mxCell id="0" />
        <mxCell id="1" parent="0" />
        <mxCell id="RO8CWs9kd0AewVBDbx6X-64" style="edgeStyle=orthogonalEdgeStyle;rounded=0;orthogonalLoop=1;jettySize=auto;html=1;exitX=1;exitY=0.25;exitDx=0;exitDy=0;" edge="1" parent="1" source="RO8CWs9kd0AewVBDbx6X-60">
          <mxGeometry relative="1" as="geometry">
            <mxPoint x="320" y="419" as="targetPoint" />
          </mxGeometry>
        </mxCell>
        <mxCell id="RO8CWs9kd0AewVBDbx6X-60" value="" style="rounded=0;whiteSpace=wrap;html=1;" vertex="1" parent="1">
          <mxGeometry x="136.38" y="403" width="110" height="65" as="geometry" />
        </mxCell>
        <mxCell id="RO8CWs9kd0AewVBDbx6X-1" value="Generator" style="rounded=0;whiteSpace=wrap;html=1;" vertex="1" parent="1">
          <mxGeometry x="120" y="290" width="100" height="50" as="geometry" />
        </mxCell>
        <mxCell id="RO8CWs9kd0AewVBDbx6X-4" style="edgeStyle=orthogonalEdgeStyle;rounded=0;orthogonalLoop=1;jettySize=auto;html=1;startArrow=classic;startFill=1;endArrow=none;endFill=0;" edge="1" parent="1">
          <mxGeometry relative="1" as="geometry">
            <mxPoint x="140" y="260" as="targetPoint" />
            <mxPoint x="140" y="290" as="sourcePoint" />
          </mxGeometry>
        </mxCell>
        <mxCell id="RO8CWs9kd0AewVBDbx6X-5" style="edgeStyle=orthogonalEdgeStyle;rounded=0;orthogonalLoop=1;jettySize=auto;html=1;startArrow=classic;startFill=1;endArrow=none;endFill=0;" edge="1" parent="1">
          <mxGeometry relative="1" as="geometry">
            <mxPoint x="200" y="260" as="targetPoint" />
            <mxPoint x="200" y="290" as="sourcePoint" />
          </mxGeometry>
        </mxCell>
        <mxCell id="RO8CWs9kd0AewVBDbx6X-7" style="edgeStyle=orthogonalEdgeStyle;rounded=0;orthogonalLoop=1;jettySize=auto;html=1;startArrow=classic;startFill=1;endArrow=none;endFill=0;" edge="1" parent="1">
          <mxGeometry relative="1" as="geometry">
            <mxPoint x="170" y="260" as="targetPoint" />
            <mxPoint x="170" y="290" as="sourcePoint" />
          </mxGeometry>
        </mxCell>
        <mxCell id="RO8CWs9kd0AewVBDbx6X-8" value="" style="shape=image;verticalLabelPosition=bottom;labelBackgroundColor=default;verticalAlign=top;aspect=fixed;imageAspect=0;image=data:image/png,iVBORw0KGgoAAAANSUhEUgAAAgAAAAIACAYAAAD0eNT6AAAABHNCSVQICAgIfAhkiAAAAAlwSFlzAAALEwAACxMBAJqcGAAAABl0RVh0U29mdHdhcmUAd3d3Lmlua3NjYXBlLm9yZ5vuPBoAACAASURBVHic7d153CVVfeD/z0PvNDTd9AbNvskqYnAXQcUFV4wExYiaGGMSo4kzahhjMr9kJhmdqPlFY8bgjLtJ3EaNuLAIKKIoCiiLuLA0sjZ003tDr8/88b2V5/bTz3rvqVNVtz7v1+u87n2We+rUrXvrfOucU+cMockMAWcDrwCeAhwIbAHuAi4GPgbcVlnpmuUg4NnAqcBxwBHAYmA+MLfCckm5PQpsBlYDdwK/AH4MXAHcV2G5muQY4HeBs4DDgL2B+4FrgM8DXwWGKyudGu9E4DriQzRe2gb8/8DsispYd4cC7wJuYeL30WQyRboZ+HPiu6M9zQb+gTj3TvQ+/gg4oaIyquHOANYz9S/tt4F5VRS0pk4GPgXsoPoTqsnUxLQTuAh4IirsTZxrp/oergdOr6Kgaq4jgTVM/wv7L1UUtmZWAJ+l+pOnyTQoaRfwr0T3Y9v1cm5ZDRxeQVnVUF+m9y/rcysob138PtNrNTGZTFNP64HX014voPf37osVlFcNdCz9fUkvz1/kyu1DXKFUfYI0mdqQPk0MnG2bK+n9PdtFDBpUl72qLkANnd3n608HFqUoSEPsD1wKvKrqgkgtcT7RD7604nLktBh4Rh+vL+7mUhcDgD2d1OfrZxK3uLXBCuKWm6dWXRCpZZ4AfJf2jAs4DpjRZx79ntsHjgHAnpYlyOOABHnU3X7A14HHVF0QqaWOJVrf2tDimOK8vDxBHgPFAGBP/UaZEK0Ag2wGMVDylKoLIrXcScAXSHPeqrMU59RBPy9PmwGAevHXwLOqLoQkAM4E/rLqQqh5DAA0XacB76y6EJJ28xc4FkfTZACg6ZgJfAg/N1LdzAAuxGZuTYMnck3HHwKPq7oQksb0WGIyLmlKDAA0VbOAd1RdCEkTeicuTKYpMgDQVL0GVyeT6u4Q4LerLoSawQBAU/WGqgsgaUp+r+oCqBkcMKKpOAZ4SuI87yJWT7wEuBtYlzh/qc4WEi1qzwdeTdrWtacDRwG3J8xTaoXL6H+xjnOzl7pcbyfdQibbiLEEc7LugVRfc4A/I74bqb5n/ynrHpTvXPp/Ty7LXuqaswtAU5Fq0p/NwPOA9wJbE+UpNd1W4O+I1oAtifJ8dqJ8NMAMADSZIWLynxReR6xiJmlPVwK/myiv04jvrjQuAwBN5iBgQYJ8vgz83wT5SIPs88BFCfJZSDsWJVMfDAA0mWMT5fPuRPlIg+5vE+XTlmXJ1SMDAE0mxXrjdwM/TpCP1AbXAvcmyGdFgjw0wAwANJl9E+RxIzEKV9LkhoGbEuSzT4I8NMAMADSZ+QnyeDBBHlKb3J8gjxTBuwaYAYAmMyNBHtsT5CG1SYrvTIrvrgaYAYAkSS1kACBJUgsZAEiS1EIGAJIktZABgCRJLWQAIElSCxkASJLUQjOrLoDUh4XAbwFnAYcB+0/hNauBlcDXgS8Bm8oq3CjHA68Ank5M0Tpvkv/fTkyg9BNiIaUrSy1dM/Vy/FN4GLgLuBj4ArA+03YllewyYirOftK52Utdngvo//24MHGZhoA/Adb0Wa4HSLf86nj2Bz4N7OyzrN8DTi65rE2R6vinSGuAt5B+6d0LE5TtgsRlqtK59P9+XJa91DVnF4CaZgZRoX6A/q/4lgMfAz5EOWunHwn8EDif/r9rTwO+D7yo30I1XMrjn8L+wAeBT+HMe2oYAwA1zXuBVyfO84+BdybOcwGxrvvRCfOcD3wOOCVhnk1TxvFP4XzgPVUXQpoOAwA1yZOAt5aU918T/fSp/FfghIT5FeYDH6ed390yj38KbwOeUnUhpKlq40lEzfWXlNNUDzEgNlWf6SKiVaEspwAvKDH/uirz+KcwRPqWJKk0BgBqin2B55a8jZeS5s6YFwFzE+QzkZeXnH/d5Dj+KTwP2KfqQkhTYQCgpjgRmFPyNhYBRyTI5/EJ8pjMb2TYRp3kOP4pzKWcrh8pOQMANcWyTNtZniCPHGU9IMM26iTX8U8hxWdIKp0BgJoi12Qr6xLksSFBHpNJUc4madJkO207NmooAwA1xe0ZtrGdmOGtX7clyKMO26iTHMc/hWGaU1a1nAGAmuIe4Kclb+MqYGOCfC5KkMdkvpZhG3WS4/incANwX9WFkKbCAEBN8o8l5//BRPncBlySKK+xrAY+W2L+dVX28U8h1WdIKp0BgJrkE8C1JeV9MfDVhPm9HdiSML9u/4Vm9Ymn8gnKO/4pXENMUyw1ggGAmmQn8Juk6afvdivpp5e9GfgdYEfifD8EfDRxnk1R1vFP4S7gHGBX1QWRpsoAQE1zH/Bk4NuJ8vsasUTvw4ny6/YFYsa+VQny2gq8g1h5rs1SH/8UriSmKb6/6oJI02EAoCZaBTyLmA3vYqJynI5HiOb+s4CXAGuTlm533yIWBHoXcGMPr78X+CfgWOB9CcvVZP0e/xS2At8kWiSeDTxYQRmkvqSY9lSqypc7aQ5wILB4Cq95EHiAuOUvl03A/+ikBcDBwLxJXrOdqOhStB4Mql6OfwpriKv9KgIPKRkDAA2CrcDKTqq7DcDPqi7EgGnS8Zdqwy4ASZJayABAkqQWMgCQJKmFDAAkSWohAwBJklrIAECSpBYyAJAkqYUMACRJaiEDAEmSWsgAQJKkFjIAkCSphQwAJElqIQMASZJayABAkqQWMgCQJKmFZlZdALXCi4DLqi6E1CDHV10ADT4DAOVwUCdJkmrCLgBJklrIAECSpBYyAJAkqYUMACRJaiEDAEmSWsgAQJKkFjIAkCSphQwAJElqIQMASZJayABAkqQWMgCQJKmFDAAkSWohAwBJklrIAECSpBYyAJAkqYVmVl2ABBYDzwOOAfYGHgKuBa4BdlRYrl4sAZ4DPIbYlweB64CrgZ0Vlqtf3wI+UnUhpAZ5I3EuaKoZwGnAqcAyYAvwS+JcsLrCcvViJvAU4MnAUmJfbgMupXn7MjAOAz5FVPLDY6T7gLcQH8TpuGyc/KaTzp3mNg8FPjHBvtzf2ZcqArYLxinTdNKF2UstNduF9P+9uyB7qeMc9Wbi/DtWmXYAnyTO39Nx7jj5TSddNs1tzujsy70T7MunetgX9ek5wMNM7aB/i2glmKrcAcBzgTVTzPfyae5LCgYAUn5NDAAWMfXz5xrg+dPIO3cAsD9wyRTzXTvNfamNJo4BeCrwNeLDNhVnAt8FDiitRL17IXAR8WGbimcTH8p5pZVIkqZvFvBlpt5tsT/wdeC80krUu4XEefZ50/j/i4AzSitRSZoWAMwHvgjMmebrjicO6NLkJerd2cQXZrr7cirw39IXR5J69jdMvwKcQTShvzx9cXq2GLgSeMI0XzcL+Fdgn+QlKlHTAoA3Ayt6fO3JRHdAHYKAs4HPA7N7fP2bgYPSFUeSenYgMUapF7OAz1KPIGAxUUec0uPrV9D7+1CJpgUAr+3z9ScD36Ha7oAXAZ+j98ofYC7wW2mKI0l9eQX9dUvOIi6IquwOWARcTO+Vf+H8BGXJpkkBwFLghAT5VNkd8DLgS0y/2X8sjetvkjSQUpyLquwOWAxcwfSb/cdyAnHbYyM0KQBI2eRdRXfAy+iv2X+0QxPlI0n9ODhRPlV0Bywh7q7q98q/W2POzU0KAFJPhJOzO+BFxAd7VsI8mzwxkKTBkfJclLM7oGj2f1zifBszAV2TAoBiMoaUiu6AJYnz7fab9DbafzL3JM5Pknpxd+L8cnQHLCFG+5+aON9hYhKkRmhSAPAw8JMS8j0ZuIpyWgJeBPwbaa/8C1eUkKckTdeVJeRZZktAWVf+ADcRU7g3QpMCAICPl5RvGS0BZV35A2wGvlBCvpI0XV8ANpWQbxktAUuAb5P+yr/wiZLyLUXTAoD/DdxeUt4nE4NBpjor30TOJm71K+PKH+D9NCjKlDTQVgPvKynvYmDg2Qny2p84x5+cIK+x3An8c0l5q+NxxBVwv/NCNzVdQd5FgVwLQMqvaWsBzCDNOipNTVuA3+j7XcysaS0AAD8FXkAEAW1zPTEBUGNGmUpqhZ3Erc5XVV2QCmwjJkO6vuqCTFcTAwCID9kLaVcQcD2xcuDDVRdEksawmTgvtykI2AacQyxQ1zhVrC+fShEEfINYJGiQWfmP7wjgLGJN7qmsELkaWAl8k7y3Uu5FrGR5GjF3+mRTp+4AVhEtXpcRTYza03SPfwoPA3cRI8lXZtpmUxRBwDeA0ysuS9kaXfkPitOJEahV9wGVla4jzcDEXtV1DMDjgUv7KNMu4CvAcSWUrdsQ8Dqioui1rBuJFSAbtdJYyfo9/qnSJaSdRa7QtDEAo80nJlqr+viUlbYCL072bqkvgxoEVF35Qz0DgNcTX8AU7/EmyltYaR4xgjnV5+FG4PCSytokKY9/ivQo8LuJ97HpAQAMbhBg5V9DgxYE1KHyh/oFAOcQV+8p3+sdRLNlSkPEJFCpPxd3UO7MlXVXxvFPkXaRdtKaQQgAYPCCACv/GhuUIKAulT/UKwA4iPJuAX0IWJionABvLKmcw8C/Jixnk5R5/FOkjcT4jhQGJQCAwQkCBq7yb+pdAOMZhLsDHPA3vncBe5eU9xLgbYnymg38VaK8xnIe5fQ7112Zxz+FfYgyaneDcHfAQA74G7QAAJodBFj5j28GcG7J2zg/UT7PJt2V4FiGyLNaWp3kOP4pnEez764qS5ODgIGs/GEwAwBoZhBg5T+xkyi/7/tw4JAE+TwjQR6TOSPDNuokx/FPYTGxtoj21MQgYGArfxjcAACaFQRY+U/uoAZtZ0WCPCaT6/2oiybt78FVF6DGmhQEDHTlD4MdAEAzggAr/6nJNf3x9gR57EyQx2TaNh10k/Y3xWdokDUhCBj4yh8GPwCAegcBVv5Td3em7aSYHTBHWXO9H3XRpP3NOcNkU9U5CGhF5Q/tCACgnkGAlf/0/JzyT6w3EtPv9utbCfKYzGUZtlEnOY5/CvcCv6i6EA1RxyCgNZU/tCcAgHoFAVb+0zcMfKrkbXwyUT7XUG4lsJ32zQWQ4/in8HGirJqaOgUBrar826rqyYLqNMnPVNRpIqCFxBV6GcfldmBuonJCLI1a1mfoHxKWs0nKPP4p0v3AgkT7OkgTAU1F1ZMFDdwkPxpfVUFA0yp/qFcAAHHsUs8Dv4lyJtb5+8TlHCZaF1IGKk1TxvFPVYGclnA/2xYAQHVBgJV/C+UOAppY+UP9AgCI++xTXQneBzw5cfkKQ8T7tzNRWS8m7XTFTZXy+KdIa4AzE+9jGwMAyB8EWPm3WK4goKmVP9QzAABYDvwTMf96L2VaC7yXPGvIPxW4gt4DgZ8TsxS2aczOZPo9/inSRuBDwLIS9q+tAQDkCwJaX/m3fcrKYmDgN4gPXRkc8FeOVcAfE/P3nwYcxtRminsQuBP4Hvnu176GmB74ACIYOJjJ57TfDjwA3ADcWmrpmqnX45/CamAl8Rl6NNM226QYGPgN4iKtDA74038oqyWgyVf+hbq2AEiDrM0tAIWyWgJaf+VfsEkxlHGLoFf+ktS7Mm4R9Mq/iwHAiJRBgJW/JPUvZRBg5T+KAcDuUgQBVv6SlE6KIMDKfwwGAHvqJwiw8pek9PoJAqz8x2EAMLargLOB9dN4zXeJe4Gt/CUpvc3AS4BvT+M1GzqvsfIfgwHA+C4nbtn60ST/t52YmvU5wLqyCyVJLbYBeB7wfia/jffHxDn80rIL1VRtnwdgMrcSs8S9BHgl8HTiXu5HiXvJLwY+CtxWVQElqWW2A28HPgz8HnAWcAQwj5g74/vA54CvErf9aRwGAJMbJj5IX626IJKk/3A78OedpB7YBSBJUgsZAEiS1EIGAJIktZABgCRJLWQAIElSCxkASJLUQgYAkiS1kPMAKIdTaP7a5FJOp1RdAA0+AwDl8KROkiTVhF0AkiS1kAGAJEktZAAgSVILGQBIktRCBgCSJLWQAYAkSS1kACBJUgsZAEiS1EIGAJIktZABgCRJLWQAIElSCxkASJLUQgYAkiS1kAGAJEktZAAgSVILzay6AGqFW4HvVl0IqUGeARxfdSE02AwAlMN3gT+ouhBSg1yIAYBKZheAJEktZAuAxjIHWNhJB1VcFkm9OQg4FljXSVurLY7qxgBgcM0DFvWQ5nYeJTXbWzqp26PA2h7Sw53XaoAYANTbELCkkxZ3PV826veLGLliX0hU/pI02lzgwE6arkcYaU1YRwQGa4DVnfRg1/Pu3w/3XWqVwgAgr/lEpb2c3Sv0JcDSThr9+6FKSipJu5vXSdMJHnaxezCwBniICBa6f98dQGxOV2RNxAAgjeJLsWKCx0X0FnVLUlPtxcjFzVQ9CtwH3E+0MhTPRz/ej60LfTEAmNhc4DDgEEYq8yKtAA4gBtrY5C5JacwFjuykiWwhgoEH2D0oKIKEu4G7cOzCuNoeAMwlKvLiw1ZU8sXPh+OtkpJUR3sDR3fSRNYCd3RSERwUP98GrC+xjLU26AHALKIiPxY4griaL9LhRH+7JGlwLQJO7aSxrCZaCoq0ErgT+CURJGwvv4jVGJQAYBFR0Z8InMDIFfyJxFW+JEljKQZcjxUg7AB+zUiLwc+AWzrP76ThYxCaFADMAI4BTiau6I8DHtNJCyoslyRpMM1k/PEIG4hWgl90pZ8CvyLufqi9ugYAs4iK/dSudApxG50kSVVbADyhk7ptI8YWXNeVbqCGtzfWIQBYADwZeDxRyZ9CVP4zqiyUJEk9mE10RZ8AvKbzu52MtBD8BLge+CGwsYoCFqoIAA4Angg8HTgNeBJxxS9J0iCawUhQ8KrO74qg4Grge8BVxADEbHIEAMcTa1uf1klHZNimJEl11h0UvLHzuzuIgOBqYhn1n5dZgDICgJnAU4AXAy8jBuxJZToaOJSp3db5EBFlryyxPOOZDZxEzDcx2eRR24mpUW+hxfcpT9F0jn8Ka4jbxW7PtD21RzHg8LWdn1cClwJf6zzWckXHJUSBP0+crIZNpq50IenNA95BjLjtpUy3AG8mT/fTEcDHiAVUplvObcDFwOkZytkk/R7/FOmXwNsp51bjCyvcL1M902bgIqK1oPJl2ucA5xIF2kH1b46pvil1AHAiMco2RdluZPIpR/vxBmIq0lTv4+wSy9oUKY9/ivQrohk3JQMA00RpJ9FN8EYy3x33JODD9HY1Y2pW2kSMUu03n5QBwImk/+ytImaGTO0/Jy7nMPDvtHt66jKOf4q0jrRBQIoAYCPxHa76vTGVm9YC/4s9b0ec1FSXmh0CzgH+AnjcdDeiyuwgPhzd63d3P+/+eay/bwcuAN7TZzk+AvxBn3lANPveBByVIK/RrieC252J8jsduIJybmf9C+BvS8i37so8/in8ipioLMXiMxcyMjCsV/8F+J9EN9ciYGEnjfV89GP38zrcLq6puQH478BXiOBgQpMd2CHgbOCviQ+2qrOWkfWyi7SKkTW2x6roN1VS0vK8mfJO/r8BvI7oq+/XEPA+ypvL4p3AR4lV0NqkzOOfwjHAHwPvr7ogoxQDSh/s8fX7MHZwsJhY5ncZI9PpFkv/LuqvyOrR44EvEYHAXxFd9OMGAhMFAE8B/ok4MSqtHexekT9IjE4fq3Iv0sAuSDENv19y/m8kTQDweGKui7LMB15N/SqaspV9/FP4QwbvuGzqpHum8ZpZjAQFS4Dlo35eRgQK3YGDk7+l83iiu/DHwJuAH431T2MFALOBdwNvpd19jb3YRlTc90zy2Gsk3mZHEVdYZXoisD/wcJ/5PD9BWSZzFoNX0Uwkx/FP4WhiUOkdVRekYtuJpXfvn8ZrlhGBwsGTPDoQduqeAFwD/D3wLkZdSI4OAJYRfQdPzVK05hgmmltXdh7v7Xq0Ys8jxwRSexFLRfcbABzef1Em1bYJtZq0v4djANCLopvipkn+b6JA4QDiO3wAUx/jNuhmELfMPo2Ym2d18YfuAOBA4NvEPPxts4OozLvXg+5eH/rX1HQChhbJtazz3gnymGySnxRybKNOmrSsd4rPkMY3lUBhDhEIHNp5PIwIzA7v/O4g2je48enE7ILPJC5Y/+MNmE0MFhjkyv8BYt7l29izor+XCAJUX9NpSuzHfQnyyFHWFOVsklzHP4W2HZs62kpM1PTLcf4+kwgCisCgeDyKmL32gNJLWI3jiFkFnwZsLwKAPyOW3G26dcT0nHd0pZ8Rk71sqLBc6t/NxH3N+5a4jftIM0XwNQnymMz3M2yjTnIc/xQ2EGVVve1g5ELwqjH+PocYz3ECI9PzHklM5d304OAJxAyW7y6ioHdVW55pu5do/rmRWCyhiPQeqrJQKtVW4KvE6PeyfJEp3Ds7BZcSwejCBHmN5wsl5l1HOY5/Cv9ODAZWs20lpgu/ZYy/LSVayx9DXFE/DngsscZHU/wl8ImZwHnUt39tG9Fkfx1xIH4GXEun/0Kt89+AV1JO391m+p/wqLCFmIDl3YnyG+0SYhrQtinz+KewnSijBttDnfS9Ub9fSLQQnEDMWHkqcAqZp+qdonnAKwAup/qpDIeBR4g39P2dgj0G7wutgwvo/9imnAr4PyUoz1jp9QnLCHEf9BUllPMhmjUiPrWyjn+K9JaE+5liKuALEpZHvZlBjCl4JXEr3veIuq7qz+owcBnA3RVt/D5i4OEFwGnUtxWi7eoWAEDMcLUrQbmGib7AtyYuX2Ex0b+Y6jtzD07MBWmPf4q0C/j/Eu+jAcDgmkm0ELwR+BTRul3F53klRF9Hjo09AHwaeA3NH0TRJnUMAABeSHQJ9VOu64EzSihbt9lEf9uGPsq5E/gkfm+6pTj+KdItxKRMqRkAtMuBRN34GaKLO8dn95GZlLse+t3EKkWXAD/pbFRK4RvE5+p0Yua9w4kr7sk8BNwJfB34ARF5l2kbsTjHPwIvIu7FPZjJ7+PfTpwIbiAGv60sr4iN1OvxT2ENcTwuJu6rTrWAlNrrfuIC+dPEBEanEJ/rNwGHlLTN2VB+lLEK+DzR3HFoSTui8tS1BUAaZLYAtNNy4Fzi+JfePZ9jNO2yzg6d2/n5Z8C3iMGH19K+Fc0kSYK4Df9JwLOB5xC3FWZTxe00J3TSn3R+vp+4za9I3yea2CRJGhQLgJOJ2wNPJboDj6yyQHW4n/ZA4MWdBNE08Uti+cIfEbNq3YwL7UiSmmEFcaF7MjHz3hOJmQVrpQ4BwGhDxH2TxwLnd/1+LSNT+xaTAv2YZs0RLkkaHIuIW/pO6Hp8LNGXX3t1DADGs4iRppNuDxEtBLcS0wLfRqwHsBKn5JQk9WcO0VR/dCcdy0iFv3+F5epbkwKA8SwFntVJo61lpMWge4GgX+HiQJKkMIcYkHckI1fyxQJAhzGgs9IOQgAwkUXEQIunj/G3+xlZOfDXxC0Xd3ee/5pYeUyS1HwLifk3DiPuqz+EuC29uLJfVl3RqjPoAcBEDuyk08b5+6PEdMV3EMFC8bz4eSWxgIwkqTqzgSXE+by4al/R9fNRlLsyZ2O1OQCYzFxGPkxjGSbmMLi/k1YRyxQ/2Hlc1fn9A8TiD5KkqdubkQu1AzqPy4mm+mWdx+U4RXbPDAB6N8TIh3My65g4SHiQmPtgNQ5clDS45hBX64sZqbwPIK7YR1fu+1ZUxtYwAMhjYScdP4X/fZQYvLiW6Ha4v+vnsX6/Cucil1SNecRYqwOJSnxRVxrrdwcQF0+qAQOA+pnLSMvCCVP4/x2MtB6sBh4mWhzWjvE4+nd2TUiaR1ygFJX0wgkeF3fSkk4ayNHxbWEA0HwziaazXiaeeJTJg4QnpSmmpMyeBLyNySv3uVUVUNUawiV6Vb5rgc8Sd01sIsY5rAO2AluIORm2dR4fIQITadDMJa62FxAj1xcQA93mEBXxbGAfYD5wHgbfKlmqAOBLwNNwNKbSWU8ECJuIwGEb0SqxjZFAYmvn/3YyMrHTemAXEVhsBbZ3/hci6Bjuyq/Ia7jzN7XHQuL8N5+oeGd3ng8xcsvYvkQL2xyiot4L2K/ztwVE8/foins2cWVd5Ldv53nxOqlfDxCL5r2834xSBQD7EyfQE4EzO+kM4ksiNclGYlxF0TqxiwgqChvYfdBlEXAU1nY9Hx1YdAcqdLbTPeFUd7Aymem2lBTBz1R0V4JTUVzZTsU+wKyun4tKtrAfUdEWioq6sKjreXeFDFEhd59ziryKq+yZOLJczbMe+A5weSfdQnwPHu4345QBwNpRv5tJrIJ0JvAMooXAL58kSePbAFwDXEVU+D9mzzu9ah8AjDYDOI6Ylvc04HRiWkZJktrqAaKSvxr4HvBDojVwIo0LAMZyFBEQPJlYL/lxRH+ZJEmDZhvwU2Jg9LVEpX9HD/kMRAAw2kxiqcVTGWkpOI7d+wQlSWqCO4ir+uu6Uor5VwYyABjLAuCxROvA44BTgJOIgT2SJFVtC3Az8BPiCv+nwI2Ut6psawKAscwglnAsgoJjiWl2j8YuBElSObYBtwG3Ar9gpLK/jbxTsrc6ABjPTGL1vuOJroNjO+lInKNAkjQ1DxDN978Aft5JtwJ3ErfvVs0AYJrmM7K8b3c6HDgY5yyQpLbYANwDrCQq+juA27ueb6msZFNjAJDYPsAhxDKUB3Wer+g8XwIsJVoRnMtAkuppI3H1/lAn3ddJdxNLsN/beT7VCbfqygCgInOIYGApsQDPss7jgZ3nxbrWy4lVsyRJvVtDLHu+iqjMHySWQ1/Veb6KkQp/a0VlzC1JAOBqgNO3lWg6umcK/zubaD3oXhu7e43s4vkKpjf1qiQ12aPEReN9RGXe/bz7d3fR/Kv12rIFoD72IVoMljGy3vbirrSUkTW4i9/NqaSkkjRiK3GVvrrz+FDX8+7fr+762+ZKSjo4bAEYMJs66a5pvGYfRsYnjBU0LCQWRFnYlfbrvE6Sum0iFo1a33nsfr6GPSv0BzuPXqE3lAFAsxVBw8ppvm4muwcHixg/WBgdOCxiZNlTjnjo3gAAGUZJREFUSfVQLG29lokr8u7na0f9rg63tykjA4B22kFE8av7yGMWERAsJAKCYu3z/bp+XtBJxc9FEFH83B1MLEJqj7XsXmlv7qSi8i5+3kjcslb8vL7zu+LndZ3XTLZ4jLQHAwD1ajtx4ko59qNYz30OMdVzsY57sWb8ws7jAiJomE+sQz+XkXXmF3by2Y/d138vAo3uNeSL16q9HmVkbvZ1xJioomKGqGx3MHKFvJ747G/qeu3mzmvWE7PBrev870aif3xL1/9sIO+McdK4DABUJzupbjDpQmJQbBFYQAQaMxg7kBhizzs3ikClUAQy3Ua3dBRBTqF7W2OZ7O9jmUsEO9PxCFHBTUdRWU7170Xl2G308d/C7rd2FRVrt4kq7u7/Lyrh4c5rpFYzAJCCFYKkVnGZXUmSWsgAQJKkFjIAkCSphQwAJElqIQMASZJayABAkqQWMgCQJKmFDAAkSWohAwBJklrIAECSpBYyAJAkqYUMACRJaiEDAEmSWsgAQJKkFjIAkCSphQwAJElqIQMASZJayABAkqQWMgCQJKmFDAAkSWohAwBJklrIAECSpBYyAJAkqYUMACRJaiEDAEmSWsgAQJKkFjIAkCSphQwAJElqIQMASZJayABAkqQWShUAvBAYSpSXJEka2xBR5yYxnChdD/wOMDdVwSRJEgBzgNcSdW2qejtZRkV6GPgkcDYGA5Ik9WoO8CLgo8Aa0tfXbCsh0yJtBD4HvBJYlviNkSRp0CwCzgE+A6yjvPp56xBxxb4ow04NAz8DvtOVVmXYriRJdbUYeAbwTOAM4GTyDNBfMwT8CHhCho2N5Vbg6k4ZrgNuArZXVBZJkso0AzgeOBV4InA6cBLVDKK/dgj4MPCHFWx8LNuAG4lgoEgGBZKkppkBHEdU9qcSF9qnAHtXWagu/zQEnAV8s+qSTGAb0VJwK3AL0Y1wC3A7sKPCckmSNAQcBpwAnEhc4Z/U+Xl+heWazHOHiL6GnxIFbpJtwM/ZPTD4JXAb8EiF5ZIkDZ5ZwOHAsUTlXlT4xwH7VFesntwInFL0O5wFfIPBmcznXiIQGJ1uJ+5MkCRptDnAEcAxwNFd6SjiKn9mdUVLZpio8y/trvDfB7ytmvJktYqRYGAl8Gvgrs7jr4FHKyuZJKlMM4EVwKHE1fyhRMV+FFHRH8LgT5H/d8AFsPsV/wxisoHXVVGiGnmAkWCgCA5Wdp7fTUzGIEmqn70Zqdi70+FERb+CwbiK79XHgN8HdsGeTf57ES0Bbx3jbwqPAvd10r3A/cA9ROBwd+fxHmBLVQWUpAEzG1gOHAwcCBzU9biikw4C9quqgDU3DPw98Gd0Kn8Yv5I/m4gU9i+/XANrAxEI3E8ECw900kOd1P18W0VllKSqDAFLgSWdxwOIGWOXEpX7gUSFfwBR+as3a4DfBS4a/YeJrvKXAX8LvJ7B7xOp2lpibMJYwcEDwIPAamLWxjV4+6OkelpEzGy3tCsd0PV8OSOV/FKi61nl2EV067+LqEv2MJVm/t8A/jvwgin+v8q3gQgEuoOC7sfRv1tDBBmSNBX7EC3AizuPS0b9XDyO/p0Xi9UbBr4O/Ffghon+cToV+knAO4BXEfdDqll2EQHBemKBiXVdz9ePSt2/W9v13JYHqRkWEf3hY6WFXc/H+r/9idvh1CzbgH8D3kvMjTOpXq7olwPnE30KJ/bwejXXZkaCgw3Aps7zzcSgx/XEPAtbOr9b2/V8Y+c1xf+uy1x2qc72JUawzycq5eL5vsCCzvO9icp7fiftQ1TY8zv/012Jqz1uAj4O/AvRXTxl/TbpPxH4beBlxG0W0nRsIoKBTURAsJ0IFLZ2fr+l83wj0fqwFthJBBLbiGDiEeLOjE2d1xctFes7P2/KtjcaRPOJEegLiP7qRZ3HBZ3fzwfmAXOJCnkWUQHPICrrmUQlPoeowPfuPF/ISCW/INveaFDcCXyFqPSv6zWTlH36jycCgbOBxyXMV0phAxE87GBkNsjNRCCxiwgYYCSggJG1uItgY7x8CuvpusVmVF6M2k6hCG4KRfAzkaJcdTJEVGoTKSq/QlGRdtuX3e/TLirZbgvZ/dxVVNLdZZhLVMzd/9+dV7Gd7jKMlY9UFz8hKv1/7zzvW1mD+g4EzgSe03k8uKTtSJpcLy0hxdWspGrcDVwOfKvz+EDqDeQa1X8s8CzgqZ10TKbtSpLUBL8EfgB8H7iy83OpqrqtbynwFOBpREDweOwHkyS1w3riFr1rutLq3IWo0339K4BTR6UDKy2RJEn9WUssV39dV7qV3ccLVaJOAcBYVhDzD5zIyNrLx+MAHUlSvawjKvoi3ULcond/lYWaSN0DgPEcxEhAcBwjazcfQnP3SZJUb8PE4LxfEcvK38pIhX9vheXqyaBVlnOJYKAICIrnJxHTVEqSNJk1wM1ERV9U9sXzRyd4XaMMWgAwnn2BjwDnVV0QSVKtfYWY6XbgZytty8ING4k1DF5HTM4iSVK3rcBbgd+kBZU/tKcFoNvjgc8TXQSSJN0FvBL4YdUFyamNazE/AHyKCABOyLjdHcDXgPuIaWV3EVOVtqUVRpJG20ksYLOSkVHzR5H3vPhF4IXA7Rm3WQttbAHo9lrgnxmZM7xsPwdeQXzIC/OI+Q5WEAuNLJrg56XsPk+6JNXNo8SFzv3EPfBrJ/h5FREEQMwY+wXgsZnKuRW4APgg9VtbI4u2BwAQEw59Hjgy0/Y2A28iWiGmay9gCbFe96LO4/7j/Dz6d7Y0SJqqXcDDXWntJD8Xv1tNbxPcvBb4X+y58FNZ7iAuxnpeSW8QGACE/YCPAudk3ObHgTcz+cpvqSxkzwBhv87v9yOmYh6dFnU9n52pnJL6t41YuXIDUTFvGCOtJwa7rWOkQl/TeRy9amVZ9gY+RIy6z+VLwOvJt4+1ZQCwu7cA72X3JUvLdDMRhd6aaXv9mMtIMFAEDqMDhn07j/OISH6/zvO9O/8/r5MWZS671ARribuUHiEq5S2d5+uJlsNHiIp7I3tW5us6/1f83IR71Y8nWl9PyrS9bcDbgX/MtL3aMwDY0xOID+URmba3Gfgj4NOZtlcXRWCwHxEszCOCh306z/dlZM32/YgujGJd90WMrNm+V+fvxbruMzuvm9XJS+rXJmJJ5Y3EYN4NRL/1eqK5ex3Rh7y287iu8/v1nf/f2EmPdPLa0Hm+ufO/RaXfJq8BPky+Jv87iYutH2faXiMYAIxtIfAx4n7QXD5KtEC07URQttnESWYOEXDMZWTQZxFgwEirRBFI0PUaOnkU3SBFQFIEHzB2wNH9mkIRxBTGet3e5GuFymUre3Z3FRVroag8u20jKsrxXldUwkWFO/o1WzrbhpGKu3s72zv5QXz3Hu16zeZOXkpnHnEF/nsZt/llosm/Fff2T4cBwPiGgD8B/o58/d83EVHqzzNtT83SHXBMx1iByGTGqninoqiQpdGOI1pXc43y3wb8GS0e5a/+nUrMAz2cKW0B3pBlzyQpj/OJbpBc59G7gKdm2TMNvAVE5JrrwztM3CZYND9LUhPNBT5A3nPnvxN3OUlJvZHoG8z1Qf4ZseSxJDXNY4CfkO98uZ2Y2MeubZXmCcSUkbk+1BuBV2fZM0lK4xxG7o7IkX4NPC3Lnqn17BKQpD1V0eT/VWzyV2ZDwJ+St0vgFuwSkFRPVTT5/xVOc64KVdEl8NtZ9kySpubl2OSvltqPWMUq14d/GLsEJFXPJn8JuwQktcsxwA3kO9/Z5K/aewKx1GSuL8UG4FVZ9kySwssZWfsgR/o18PQseyb1aT/gi+T7cgxjl4Ck8s0hf5P/RcDiHDsnpVJVl8AJOXZOUuscDvyQfOczm/zVeE/ELgFJzfab5G3yvxub/DUgFgNfI9+XZxi7BCT1r4om/8uA5Tl2Tsql6BLYRr4v0vXA0Tl2TtLAOQz4AfnOVzb5a+BV0SVwXpY9kzQoXkb+Jv/TsuyZVLHFwNfJ9+UaJroE5uXYOUmNVUWT/7ewyV8tY5eApDo5DJv8payeBNxJvi+dXQKSRnsZ8DD5zkP3YJO/BMAS7BKQlF9VTf4H5Ng5qSmq6BK4DrsEpLY6DLiGfOebHdjkL00od5fAeuCVWfZMUl2cTd4m/weA52TZM6nhlgDfIN+Xcxi4kGgOlDS4ZgHvAXaR79xyOTb5S9NSVZfAUTl2TlJ2h2KTv9QopxMjZnN9ae0SkAZP7ib/VdjkLyVhl4CkXswkf5P/FdjkLyVll4Ck6TgU+D75zhc2+UslOx24l3xf6vXAK7LsmaRUXkr+Jv/nZtkzqeWWAt8k35d7mOgSmJ1j5yT1rKom/wNz7JykUHQJbCffF/3H2CUg1VVVTf4zMuybpDGcQf4ugXOz7JmkqXopsIZ854FVwPOy7JmkCS0FLibfl38YuwSkOqiiyf9KbPKXamUIuIBolst1IvgRcGSOnZO0h0OA75Hv+76LCDZs8pdq6gzgPvKdFOwSkPJ7CXmb/B/EJn+pEXJ3CewilhS1S0Aq10xi4N1O8n2/r8Qmf6lR7BKQBotN/pKm5Znk7RJYB/xWjh2TWqSKJv/nZ9kzSaVaBlxC3isHuwSk/lXR5P9tYEX5uyYpl6q6BI7IsXPSADoEuJq8gbtN/tIAexZ2CUh192JgNfm+pw8CZ2XZM0mVWgZcSt4rC7sEpMnZ5C+pdDOIE03OLoFrsUtAGs/B5G/y/wAwK8fOSaqfKroEzsmyZ1JzPAd4gHzfw4ewyV8SdglIVamiyf872OQvqUvRJZDzRGSXgNrsYOC75A+8bfKXNKZnA/eT76S0GnhRlj2T6qOKJv8XZNkzSY22DLgMr0yk1Kpq8j8ow75JGhBVdAn8EDi8/F2TKmGTv6RGqaJL4IVZ9kzK50zyN/n7PZLUt4OAq/DKRZquKpr8bUmTlJRdAtL0GDhLGig2ZUqTs+tM0kByMJM0NlvKJA28Kvo2r8LbmVRfy/H2WUkt4oQmkhNoSWopuwTUVk6hLan1nOFMbVPVjJkuoiWpluwSUBs8i7xN/i6jLakRDgauJv+VkV0CKptN/pI0Cdc516BZBlxK/sDWJn9JjfRiYA35TpoPAmdl2TO1ybOA+8j3OV4H/FaWPZOkEh2CXQJqpqLJfwf5Pr8/wiZ/SQOkii6Bb2OXgHq3DLiE/IGrTf6SBtJLyN8l8Pwse6ZBYpO/JJXgEOB75L2yeg/RnCtNZAi4gPxN/kfm2DlJqgO7BFQ3S8nb5D8MXIhN/pJayi4B1cEzydvkvx44N8eOSVKdHQJ8n3wnX7sEVKiiyf/H2OQvSf9hJlEp7yLfifhK4MAcO6daWgpcTL7P2zA2+UvSuF5K/i6B52XZM9XJGeRv8n9Flj2TpAY7FLsEVI4qmvyvA47KsXOSNAjsElBqVTX5z8mxc5I0aM4GHibfCXsVdgkMojOAe8n3OVoPvDLLnknSADsUuIZ8J++d2CUwKIaAPwW2k+/zY5O/JCVURZfAFdgl0GRLgW+S7/MyjE3+klSaKroEnptlz5TS6djkL0kD5zDydgnsIKYttkug/oom/23k+3xcBxydY+ckSdHM+gHyneSHiS6BA3LsnHqyhPxN/p8C5uXYOUnS7l6GXQLK3+S/ATgvy55JksZ1GPAD8p38iy6BvTLsmyZWRZP/9djkL0m1UUWXwOXYJVClJcA3yHvMbfKXpJp6GbCWfBXCKuA5WfZM3U4H7iHfcd4AvCrLnkmSenYYdgkMqqqa/I/JsXOSpP7ZJTB4qmry3zvHzkmS0nolMUlLrgrjHuApWfasXZ5O/iZ/R/lLUsMdA9xAvsrjEeD8LHvWDrmb/G8AHpNlzyRJpauiS+ADOC6gHzOAD5P3mNnkL0kD6jyieTdXhfIVvG2sF3OBr5HvODnKX5JaIHeXwCW4Qtx0zAIuIt/xuQU4McueSZIqN5e8XQJfIpY01sRmAP9GvuNik78ktdTLgXXkqWw+iWMCJjIEfIQ8x2Ij8Oo8uyVJqqtjgZ+Sp+L5H5n2qYn+hjzH4KfEMZckKVuXwC7gpZn2qUnOBHZS/vtvk78kaUznUH6XwBrg0Fw71AAHAQ9S7nu+BXhDrh2SJDXTYyi/S+AaYrR7280ErqLc9/pnwEm5dkiS1GzzgP9DuRXTn2fbm/p6J+W+xx/FJn9JUg/OJ0aMl1E5babdXQEHUd57a5O/JKlvZd4l8JmM+1E3n6ac9/RWbPKXJCWyN+VMULMLeFrG/aiLpxL7nvr9/Bw2+UuSEhsC/oL0FdcPc+5ETVxD2vdwJ/Au4hhJklSK15M+CDg96x5U6zTSt6K8PuseSJJa682krcT+b97iV+qLpH3v3pa3+JKktns36SqxHcDhWUtfjcOA7aR7396dt/iSJMXKdZeTrjJ7b97iV+J9pHu/voMrLEqSKnIQsJo0FdoqBnu1wL2IfUzxXq0GVuQtviRJu3sT6a5qn5q57Dk9jXTv0x9lLrskSXuYAfyENBXbIC8XnGrMxM3Y9C9JqokXk6Zyuyl3wTO6iTTv0UtyF1ySpPHsBfyCNBXc4XmLnsURpHlvfsFgj5OQsvGLJKWxC/hQorwGcRzAkxPl80HivZbUJwMAKZ1/Ie7n79djE+RRN49LkMdO4LMJ8pGEAYCU0sPADxLkM4gBwMkJ8rgaWJMgH0kYAEipXZQgjxSVZd2kCGq+liAPSZJKcQb9D3TbBeyXu+AlWkiaAYDPyF1waZDZAiCldWOCPIaAZQnyqYvlCfIY9FskpewMAKS01gL3JshnYYI86mJBgjzuAdYlyEdShwGAlN6qBHmkqDTrIkV3Ror3VFIXAwApvfUJ8hikMQAp9iXFeyqpiwGAlJ4BwO5StGZsTJCHpC4GAFJ62xPkMStBHnWRYl9SvKeSuhgASJLUQgYAkiS1kAGAJEktZAAgSVILGQBIktRCBgCSJLWQAYAkSS1kACBJUgsZAEiS1EIGAJIktZABgCRJLWQAIElSCxkASJLUQgYAkiS1kAGAJEktZAAgSVILGQBIktRCBgCSJLWQAYAkSS1kACBJUgsZAEiS1EIGAJIktZABgCRJLWQAIElSCxkASJLUQgYAkiS1kAGAJEktZAAgSVILGQBIktRCBgCSJLWQAYAkSS1kACBJUgsZAEiS1EIGAJIktZABgCRJLWQAIElSCxkASJLUQgYAkiS1kAGAJEktZAAgSVILGQBIktRCBgCSJLWQAYAkSS1kACBJUgsZAEiS1EIGAJIktZABgCRJLWQAIKls+yTIY1uCPCR1MQCQVLajE+SxNkEekroYAEgq26kJ8liXIA9JXQwAJJXpZOBJCfJ5MEEekroYAEgq07sS5XNjonwkdRgASCrL7wCvSJDPMPCTBPlI6mIAIKkMvw18OFFevwLWJ8pLUocBgKSU5gF/B3wGmJsoz68mykdSl5lVF0DSwHgm8M/AsYnz/WLi/CRhC4Ck/i0H/gW4kvSV/13AtYnzlIQBgKTeDQGvBW4m+vzL8A/EIEBJidkFIKkXxxDN/c8ucRsPA/+nxPylVrMFQNJ0zAP+hrjqL7PyB3g/sKnkbUitZQuApKk6g7jqPy7Dtn4B/H2G7UitZQuApMnsD1xIDPLLUfnvAt4APJphW1Jr2QIgaTxDwO8B/5MIAnJ5L3B1xu1JrWQAIGksOQb5jeUS0q0fIGkCdgFI6pZzkN9oNxNrB+zMvF2plWwBkFTIOchvtOuBs4ANFWxbaiVbACQtAz4NfJtqKv+rgGcBD1Wwbam1DACk9ipm8rsFOL+C7Q8DHwSei1f+UnZ2AUjtdALR3P+Mira/Cvgd4OKKti+1ni0AUrvMBf6K6HOvovIfJrobTsLKX6qULQBSe1Q5yA/gV8AfAZdXtH1JXWwBkAZf7pn8RttOTCb0WKz8pdqwBUAaXEPAa4hFdZZUVIargD8Afl7R9iWNwxYAaTAdA1wGfJJqKv+HiYr/mVj5S7VkACANllnABcBNwJkVbL8Y5Hcc8JHOz5JqyC4AaXCcTvT1VzXI7zZikN+3Ktq+pGmwBUBqvmKQ37epdpDfSVj5S41hC4DUXHUZ5PeHwK0VbV9Sj2wBkJrpaOBSqhvkt5aRQX5W/lIDGQBIzVIM8rsZeE5FZfgCcCwO8pMazS4AqTlOJ2byO76i7d8GvIm4vVBSw9kCINXfIkYG+VVR+XfP5GflLw0IWwCk+ioG+b0PWFpRGb5LDPL7WUXbl1QSAwCpno4l5u4/o6LtrwHeAXwC+/klSZqSzxCVZlPT54Flyd8VSbViC4CU3vqqC9Ajl+uVWsRBgFJ6K6suwDQVg/xOxspfkqSenUX1zfhTTVcBJ5TzNkiS1C77AtuovnKfKK0F/hRbASVJSupiqq/kHeQnSVJm51F9RT86/Qp4bpk7LUlS280gKtyqK/1hojviA8D8UvdYkiQB9WgFuBo4sewdlSRJu/sm1VT8DwNvJKYTliRJmS0D7iVv5f+vwPIcOydJksZ3EnFFXnbFfzsxB4EkSaqJU4FVlFPxbycG+e2TbW8kSdKUHQH8iLSV//eAx+bcCUmSNH2zgT8HNtNfxX8v8Ps4k58kSY2yHHgP0+8WuAV4KzAvf5ElDRJvEZKqNRN4FnAmMU7gMcAiYtKeNcTgwVuAHwKXATdUU0xJg+b/AVakNoOa7IheAAAAAElFTkSuQmCC;" vertex="1" parent="1">
          <mxGeometry x="150" y="212" width="42" height="42" as="geometry" />
        </mxCell>
        <mxCell id="RO8CWs9kd0AewVBDbx6X-11" style="edgeStyle=orthogonalEdgeStyle;rounded=0;orthogonalLoop=1;jettySize=auto;html=1;entryX=0.429;entryY=0.024;entryDx=0;entryDy=0;entryPerimeter=0;" edge="1" parent="1">
          <mxGeometry relative="1" as="geometry">
            <mxPoint x="168" y="185" as="sourcePoint" />
            <mxPoint x="168.01800000000003" y="208.00800000000004" as="targetPoint" />
          </mxGeometry>
        </mxCell>
        <mxCell id="RO8CWs9kd0AewVBDbx6X-15" style="edgeStyle=orthogonalEdgeStyle;rounded=0;orthogonalLoop=1;jettySize=auto;html=1;startArrow=classic;startFill=1;endArrow=none;endFill=0;" edge="1" parent="1">
          <mxGeometry relative="1" as="geometry">
            <mxPoint x="230" y="300" as="targetPoint" />
            <mxPoint x="260" y="300" as="sourcePoint" />
          </mxGeometry>
        </mxCell>
        <mxCell id="RO8CWs9kd0AewVBDbx6X-16" style="edgeStyle=orthogonalEdgeStyle;rounded=0;orthogonalLoop=1;jettySize=auto;html=1;startArrow=classic;startFill=1;endArrow=none;endFill=0;" edge="1" parent="1">
          <mxGeometry relative="1" as="geometry">
            <mxPoint x="230" y="314.75" as="targetPoint" />
            <mxPoint x="260" y="314.75" as="sourcePoint" />
          </mxGeometry>
        </mxCell>
        <mxCell id="RO8CWs9kd0AewVBDbx6X-17" style="edgeStyle=orthogonalEdgeStyle;rounded=0;orthogonalLoop=1;jettySize=auto;html=1;startArrow=classic;startFill=1;endArrow=none;endFill=0;" edge="1" parent="1">
          <mxGeometry relative="1" as="geometry">
            <mxPoint x="230" y="330" as="targetPoint" />
            <mxPoint x="260" y="330" as="sourcePoint" />
          </mxGeometry>
        </mxCell>
        <mxCell id="RO8CWs9kd0AewVBDbx6X-18" value="" style="image;aspect=fixed;html=1;points=[];align=center;fontSize=12;image=img/lib/azure2/general/Files.svg;" vertex="1" parent="1">
          <mxGeometry x="150" y="140" width="32" height="35" as="geometry" />
        </mxCell>
        <mxCell id="RO8CWs9kd0AewVBDbx6X-24" style="edgeStyle=orthogonalEdgeStyle;rounded=0;orthogonalLoop=1;jettySize=auto;html=1;entryX=0.5;entryY=0;entryDx=0;entryDy=0;" edge="1" parent="1" target="RO8CWs9kd0AewVBDbx6X-22">
          <mxGeometry relative="1" as="geometry">
            <mxPoint x="379" y="260" as="sourcePoint" />
          </mxGeometry>
        </mxCell>
        <mxCell id="RO8CWs9kd0AewVBDbx6X-20" value="" style="image;aspect=fixed;html=1;points=[];align=center;fontSize=12;image=img/lib/azure2/general/Files.svg;" vertex="1" parent="1">
          <mxGeometry x="363" y="219.5" width="32" height="35" as="geometry" />
        </mxCell>
        <mxCell id="RO8CWs9kd0AewVBDbx6X-23" style="edgeStyle=orthogonalEdgeStyle;rounded=0;orthogonalLoop=1;jettySize=auto;html=1;entryX=0;entryY=0.5;entryDx=0;entryDy=0;" edge="1" parent="1" source="RO8CWs9kd0AewVBDbx6X-21" target="RO8CWs9kd0AewVBDbx6X-22">
          <mxGeometry relative="1" as="geometry" />
        </mxCell>
        <mxCell id="RO8CWs9kd0AewVBDbx6X-21" value="" style="shape=image;verticalLabelPosition=bottom;labelBackgroundColor=default;verticalAlign=top;aspect=fixed;imageAspect=0;image=data:image/png,iVBORw0KGgoAAAANSUhEUgAAAgAAAAIACAYAAAD0eNT6AAAACXBIWXMAAA7DAAAOwwHHb6hkAAAAGXRFWHRTb2Z0d2FyZQB3d3cuaW5rc2NhcGUub3Jnm+48GgAAE2ZJREFUeJzt3U+opXd9x/HP9V4pE8u0ShbNNCSLzIyNLQMhGQyuREnSVewskkUKbgIhkMZ02V1x103pOFkWoSsjCrEpRZoEBYWKhkptwCadEbRFg9iIKKaJjuN0cbTRdEzuOc9zzvf33O/rBXd77vec8/x5n99z/iQAAAAAAAAAAAAAAAAAAAAAAAAAAAAAAAAAAAAAAAAAAAAAAAAAAAAAAAAAAAAAAAAAAAAAAAAAAAAAAAAAAADw1vaqB1jDHUnuTnI2yekkNyQ5nmS/ciho7kqSHyb5dpKvJ/lCks8k+V7lUMBbGz0ArkvyUJJHkpwsngU4nMtJPpXko0kuFc8C/AYjv3o+l+SzSe5P8q7iWYDD209yJqt4v5Lkn2vHAa5lxBWA/STnk/xZ9SDALD6d5MNJXqseBHjdaAGwn+SJJPdVDwLM6ktJ7k3y/epBgJW3VQ/wBufj5A9H0fuSfD7J9dWDACsjrQCcS/Jk9RDAVj2f5INJXq4eBLobJQCOJXkxyU3VgwBb90KSDyT5bvUg0NkolwAejpM/dHFrVpcDfq96EOhshBWAvaw+K3xL9SDATrkcAIVGWAG4PU7+0NGZJJ+LNwZCiREC4J7qAYAyZ5J8MS4HwM6NEABnqwcASt2a5OlYCYCdGiEATlUPAJSzEgA7NkIAnKgeABiClQDYoRE+BfDTJG+vHgIYhu8JgB0YIQCuVg8ADEcEwJaNcAkA4I18WRBsmQAARiUCYIsEADAyEQBbIgCA0YkA2AIBACyBCICZCQBgKUQAzEgAAEsiAmAmAgBYGhEAMxAAwBKJAJhIAABLJQJgAgEALJkIgA0JAGDpRABsQAAAR4EIgDUJAOCoEAGwBgEAHCUiABbkavEf8ObemeRfUr+vrvP37xEBMLzqAwXw1kQAMLvqgwRwOCIAmFX1AQI4PBEAzKb64ACsRwQAs6g+MADrEwHAZNUHBWAzIgCYpPqAAGxOBAAbqz4YANOIAGAj1QcCYDoRAKyt+iAAzEMEAGupPgAA8xEBwKFV7/zAvEQAcCjVOz4wPxEAvKXqnR7YDhEAvKnqHR7YHhEAg9qrHiD1J+ERHgPe2h1J7k5yNsnpJDckOZ5kv3IoaO5Kkh8m+XaSryf5QpLPJPle5VAczggnPwHAb3JdkoeSPJLkZPEswOFcTvKpJB9Ncql4Ft7ECCc/AcC1nEtyIcmN1YMAG/lJVhHwV6k/znMNI5z8qjeMER4DXref5HySP6seBJjFp5N8OMlr1YPw60Y4+QkAfmk/yRNJ7qseBJjVl5Lcm+T71YPwurdVDwC/4nyc/OEoel+Szye5vnoQXjfCq18rACSra/5PVg8BbNXzST6Y5OXqQRjj5CcAOJbkxSQ3VQ8CbN0LST6Q5LvVg3TnEgAjeDhO/tDFrVldDvBlS8VGePVrBaC3vaw+K3xL9SDATrkcUMwKANVuj5M/dHQmyefijYFlBADV7qkeAChzJskX43JACQFAtbPVAwClbk3ydKwE7JwAoNqp6gGAclYCCggAqp2oHgAYgpWAHRMAVHtH9QDAMKwE7NAIH4HzMcDeqp9/YDy+LGgHrAAAMBpfFrQDAgCAEYmALRMAAIxKBGyRAABgZCJgSwQAAKMTAVsgAABYAhEwMwEAwFKIgBkJAACWRATMRAAAsDQiYAYCAIAlEgETCQAAlkoETCAAAFgyEbAhAQDA0omADQgAAI4CEbAmAQDAUSEC1rBXPUDqfw9+hMegM88/bK56/xnVC0k+kOS71YOMzAoAAEeNlYBDEAAAHEUi4C0IAACOKhHwJgQAAEeZCPgNBAAAR50IuAYBAMCmnq8eYA23Jnk6yfXVg4xCAACwqfcn+Wr1EGs4k+SLsRKQRAAAsLkfJLkry4oAlwN+QQAAMIUIWCgBAMBUImCBBAAAcxABCyMAAJiLCFgQAQDAnETAQggAAOYmAhZAAACwDSJgcAIAgG0RAQMTAABskwgYlAAAYNtEwIAEAAC7IAIGIwAA2BURMBABAMAuiYBBCAAAdk0EDEAAAFBBBBQTAABUEQGFBAAAlURAEQEAQDURUEAAADACEbBjAgCAUYiAHRIAAIxEBOyIAABgNCJgBwQAACMSAVsmAAAYlQjYIgEAwMhEwJYIAABGJwK2QAAAsAQiYGYCAICl+EGSP07yfPUga7g1ydNJrq8e5I0EAABL8nKS92dZKwFnknw2yXXVg/wqAQDA0izxcsDZJH8X591fc7X4j1qef9hc9/3n+iT/lvrHYZ2/v9jKI7GBveoBUr8RjfAYdOb5h83Zf1YR8LmsltmX4CdJ/ijJN6oHsRQBwJK9nOSDWc4bA38ryV9WD5GMUW8KtjfPP2zO/vO6dyZ5Nsnt1YMcwuUkv5/kvyuHsAIAwFGwpI8Ivj3Jn1QPIQAAOCqWdDng/dUDCAAAjpKlfE/Ae6oHEAAAHDVLuBxwU/UAAgCAo2j0lYDfrh5ghHdwdnkX6x1J7s7q26BOJ7khyfEk+zv6/1zbCPsAbKr6+Mk0pcefg8p/3sB1SR5K8kiSk8WzAMD/EQDbcy7JhSQ3Vg8CAG/kPQDz20/yeJIn4+QPwKCsAMxrP8kTSe6rHgQA3owVgHmdj5M/AAswwjugq9/FOtdjcC6rZX+WZYR9ADZVffxkmtLjzwgHv+oNeI7H4FiSFzPAFzuwthH2AdhU9fGTaUqPPy4BzOPhOPkDsCAjvPqpLtipj8FekktJbplhFnZvhH0ANlV9/GQaKwALd3uc/AFYGAEw3T3VAwDAugTAdGerBwCAdQmA6U5VDwAA6xIA052oHgAA1iUApntH9QAAsC4BMN3bqwcA2rpcPQDLJQAAluuV6gFYLgEAsFwvVQ/AcgkAgOW6WD0AyyUAAJbrueoBWC4BALBcz1QPwHKN8EMo1T9mMfUxqJ6faUbYB2CKS0lOVg/BRvwYEAAbe7x6AJZphFc/1a+grQD0NsI+AFMcS/JCkpurB2FtVgAA2NirSR6rHoLlEQAAy/dUkgvVQ7AsIyx/Vi+huwTQ2wj7AMxhP8knktxfPQiH5hIAAJNdSfJAko9VD8IyjPDqp/oVtBWA3kbYB2Bu92Z1ScAbA8dWevwZ4eBXfQIVAL2NsA/ANhxL8mCSR5OcLp6FaxMAxf9fAPQ2wj4A23ZbkruS3JnkVJITSY4nOagcCgFQfQJdegCM8BxO4fEDqrQ+/ngTIAA0JAAAoCEBAAANCQAAaEgAAEBDAgAAGhIAANCQAACAhgQAADQkAACgIQEAAA0JAABoSAAAQEMCAAAaEgAA0NBB9QBMVv171hzOHUnuTnI2yekkNyQ5nmS/cigodiXJj5K8lORSkueSPJPkq5VDdbFXPUDqT2BTH4Pq+Zlmm/vAdUkeSvJIkpNb/D9w1HwjyeNJ/jbJq1v8P9XH79JzsAAQAN1tax84l+RCkhu3dPvQwX8l+UiSp7Z0+9XH79JzsPcAwLz2s3rl8mSc/GGqm5L8fZLzcblsdlYArAB0N+c+sJ/kiST3zXibwMqnkjyQ1fsG5lJ9/LYCAEfE+Tj5w7bcn+Svq4c4SqwAWAHobq594FxWy/7Adn0oyT/MdFvVx29vAiz+/wKgtzn2gWNJXszqeiWwXd9O8u4k/zPDbVUfv10CgIV7OE7+sCs3JnmweoijwAqAFYDupj7/e1l9gcktM8wCHM7FrFYBpqo+flsBgAW7PU7+sGunk9xWPcTSCQCY5p7qAaCpu6sHWDoBANOcrR4Amnpv9QBLJwBgmlPVA0BTfl9jIgEA05yoHgCa8lXbEwkAmOYd1QNAU/a9iXwM0McAu/P8w3Itff/1MUAAYLcEAAA0JAAAoCEBAAANCQAAaEgAAEBDAgAAGhIAANCQAACAhgQAADQkAACgIQEAAA0JAABoSAAAQEMCAAAaOqgegMlKf096BtW/x7101c9/9fPn/teqvv9MYAUAABoSAADQkAAAgIYEAAA0JAAAoCEBAAANCQAAaEgAAEBDAgAAGhIAANCQAACAhgQAADQkAACgIQEAAA0JAABo6KB6ACbze9y9dX/+3X/YkBUAAGhIAABAQwIAABoSAADQkAAAgIYEAAA0JAAAoCEBAAANCQAAaEgAAEBDAgAAGhIAANCQAACAhgQAADQkAACgIQEAAA0JAABoSAAAQEMCAAAaEgAA0JAAAICGBAAANCQAAKAhAQAADQkAAGhIAABAQwIAABoSAADQkAAAgIYEAAA0JAAAoKGD6gGYbK96gImuVg+wcNXPf/Xz5/7Xqr7/TGAFAAAaEgAA0JAAAICGBAAANCQAAKAhAQAADQkAAGhIAABAQwIAABoSAADQkAAAgIYEAAA0JAAAoCEBAAANCQAAaOigegAm83vcvXV//t1/2JAVAABoSAAAQEMCAAAaEgAA0JAAAICGBAAANCQAAKAhAQAADQkAAGhIAABAQwIAABoSAADQkAAAgIYEAAA0JAAAoCEBAAANCQAAaEgAAEBDAgAAGhIAANCQAACAhgQAADQkAACgIQEAAA0JAABoSAAAQEMCAAAaEgAA0JAAAICGBAAANCQAAKChg+oBmGyveoCJrlYPsHDVz3/18+f+16q+/0xgBQAAGhIAANCQAACAhgQAADQkAACgIQEAAA0JAABoSAAAQEMCAAAaEgAA0JAAAICGBAAANCQAAKAhAQAADQkAAGjooHoAJvN73L11f/7df9iQFQAAaEgAAEBDAgAAGhIAANCQAACAhgQAADQkAACgIQEAAA0JAABoSAAAQEMCAAAaEgAA0JAAAICGBAAANCQAAKAhATDd5eoBAGBdAmC6V6oHAIB1CYDpXqoeAADWJQCmu1g9AACsSwBM91z1AACwLgEw3TPVAwDAuvaqB0hytfj/z/EYXEpycobbYfemPv/V2y90tvT9t/QcbAVgHo9XDwAA67ACMM9jcCzJC0lunuG22K2lv4KAzpa+/1oBOAJeTfJY9RAAcFgCYD5PJblQPQQAHIZLAPM+BvtJPpHk/hlvk+1a+hIidLb0/dclgCPkSpIHknysehAAeDMCYH5Xkvx5kg8l+c/iWQDgmlwC2O5jcCzJg0keTXJ6i/+HzS19CRE6W/r+W3oOFgC7ewxuS3JXkjuTnEpyIsnxJAc7+v9c29IPINDZ0vdfAVD8/0d4DDpb+vO/9Pmncv9ruf/TLH3+SbwHAAAaEgAA0JAAAICGBAAANCQAAKAhAQAADQkAAGhIAABAQwIAABoSAADQkAAAgIYEAAA0JAAAoCEBAAANCQAAaOigeoABVP8eNEzRfft1/2FDVgAAoCEBAAANCQAAaEgAAEBDAgAAGhIAANCQAACAhgQAADQkAACgIQEAAA0JAABoSAAAQEMCAAAaEgAA0JAAAICGRgiAy9UDwAS2X6jx0+oBlm6EAHilegCYwPYLNX5cPcDSjRAAL1UPABPYfqHGd6oHWLoRAuBi9QAwge0XalyqHmDpRgiA56oHgAlsv1Djy9UDLN0IAfBM9QAwge0XajxbPcDS7VUP8AuXkpysHoKW5tgHbL+wWxeTvHuG27k6w21MUXoOHmEFIEkerx4AJrD9wm5dqB7gKBhlBeBYkheS3Fw9CO3MsQ/YfmF3vpnkPUlem+G2rAAM4NUkj1UPARuy/cJuXE3ykcxz8m9vlABIkqdiWYflsv3C9p1P8o/VQxwVo1wC+KX9JJ9Icn/1ILQx5z5g+4Xt+WSSP03y8xlv0yWAgVxJ8kCSj1UPAhuw/cL8rib5m8x/8m9vtBWAX3VvVkuq3ljFNm1rH7D9wnTfSvJotrfs33oFYOQASFbvrn4wqw3gdPEsHE3b3Adsv7CZi1kF9Mez3Tf8CYCFuC3JXUnuTHIqyYkkx5McVA7F4u1qH7D9wv/3syQ/yupHtS4m+UpW3675tR39fwEAhVrvgECp1sef0d4ECADsgAAAgIYEAAA0JAAAoCEBAAANCQAAaEgAAEBDAgAAGhIAANCQAACAhgQAADQkAACgIQEAAA0JAABoSAAAQEMH1QNAserfAwcoYQUAABoSAADQkAAAgIYEAAA0JAAAoCEBAAANCQAAaEgAAEBDAgAAGhIAANCQAACAhgQAADQkAACgIQEAAA0JAABoSABQ7XL1AAAFflo9gACg2ivVAwAU+HH1AAKAai9VDwBQ4DvVAwgAql2sHgCgwKXqAQQA1Z6rHgCgwJerBxAAVHumegCAAs9WD7BXPQBktRR2snoIgB25mOTd1UNYAWAEj1cPALBDF6oHSKwAMIZjSV5IcnP1IABb9s0k70nyWvUgVgAYwatJHqseAmDLrib5SAY4+SfJfvUA8Av/keRdSd5bPQjAlpzPQJc8BQAjeTbJHyT5w+pBAGb2ySQPZ7UKMAQBwEiuJvlMkt9JcmfxLABzuJrVK/+Hk/y8eJZfIwAYzdUk/5TkX5O8L8nv1o4DsLFvJflwVsv+w7zy/yWfAmBkx5I8mOTRJKeLZwE4rItZfdTv4xnkDX/XIgBYituS3JXVpYFTSU4kOZ7koHIooLWfJflRVj9qdjHJV7L6dtOvVQ4FAAAAAAAAAAAAAAAAAAAAAAAAAAAAAAAAAAAAAAAAAAAAAAAAAAAAAAAAAAAAAAAAAAAAAAAAAAAAAAAAAAAAc/pfIgF+fCJDa6EAAAAASUVORK5CYII=;" vertex="1" parent="1">
          <mxGeometry x="264" y="297.5" width="35" height="35" as="geometry" />
        </mxCell>
        <mxCell id="RO8CWs9kd0AewVBDbx6X-56" style="edgeStyle=orthogonalEdgeStyle;rounded=0;orthogonalLoop=1;jettySize=auto;html=1;exitX=0.5;exitY=1;exitDx=0;exitDy=0;" edge="1" parent="1" source="RO8CWs9kd0AewVBDbx6X-22">
          <mxGeometry relative="1" as="geometry">
            <mxPoint x="378.79999999999995" y="400" as="targetPoint" />
          </mxGeometry>
        </mxCell>
        <mxCell id="RO8CWs9kd0AewVBDbx6X-70" value="Predictions" style="edgeLabel;html=1;align=center;verticalAlign=middle;resizable=0;points=[];" vertex="1" connectable="0" parent="RO8CWs9kd0AewVBDbx6X-56">
          <mxGeometry x="0.0478" relative="1" as="geometry">
            <mxPoint as="offset" />
          </mxGeometry>
        </mxCell>
        <mxCell id="RO8CWs9kd0AewVBDbx6X-22" value="Predictor" style="rounded=0;whiteSpace=wrap;html=1;" vertex="1" parent="1">
          <mxGeometry x="329" y="289.5" width="100" height="50" as="geometry" />
        </mxCell>
        <mxCell id="RO8CWs9kd0AewVBDbx6X-26" value="" style="shape=image;verticalLabelPosition=bottom;labelBackgroundColor=default;verticalAlign=top;aspect=fixed;imageAspect=0;image=data:image/png,iVBORw0KGgoAAAANSUhEUgAAAgAAAAIACAYAAAD0eNT6AAAABHNCSVQICAgIfAhkiAAAAAlwSFlzAAAOxAAADsQBlSsOGwAAABl0RVh0U29mdHdhcmUAd3d3Lmlua3NjYXBlLm9yZ5vuPBoAACAASURBVHic7d13/F51fffx1y+DLDJYYQRCWLLKEERQwobiBAfUrR3I3dtatdqW9r5rta7aWrVUvQU3itpSnFAFGSKCGPZeEhKGQAIJIZOMX3L/8f1FIuQXrnNd51yf8z3n9Xw83o+EsD6/73W+53yuM74HJEmSJEmSJEmSJEmSJEmSJEmSJEmSJEmSJEmSJEmSJEmSJEmSJEmSJEmSJEmSJEmSJEmSJEmSJEmSJEmSJEmSJEmSJEmSJEmSJEmSJEmSJEmSJEmSJEmSJEmSJEmSJEmSJEmSJEmSJEmSJEmSJEmSJEmSJEmSJEmSJEmSJEn1MhBdQEOMAHYGpgMThvIksBT4DbAgrjS1zAAwBRgHjB36s0nAyA3+HsBoYPMN/r1FwLoN/noZsGroz5cP5anKqpbUdzYA3XsRcBJwLHAwz+xsN+Zx4JfAZcD3gHmVV6emGAC2B3YBdgC2BrYCthz6dWO/r3JeLx3KAuCJoV/nbfDX84GHgIeBR0hNhKQasgEoZgzwp8C7gX26/G+sAS4CPgVcWVJdytdIYBrpDNKMoey8wa/Tgc1iSuvZOuAxUjPwMHA/cN8GeRBYG1ad1HI2AJ0ZAN4G/DPpW1hZfg68B7i9xP+m6msnYF9gP+APhrIPmz571GQrSU3BvcAdwK1Dv94DrA6sS2oFG4DnNw34FnBMRf/91aTG4iPAYEX/D/XXOOAgYP+hrD/YT9nUv6TfWQXcTWoGbgSuB24AlkQWJTWNDcCmHQP8F7BNH/5fVwCn4A2DOZoOvBQ4bCgHkW6yU3nWkpqC64HrgGtJzcGayKKknNkADO/1wLdJ1/375W7gRNK1UdXTGNJNn4fxzEF/WmhF7bUMuIZ0g+2VwCxgRWhFkrJ3EunU/LqA/AaYWv2PqAL2Bd5PunlzOTHbhXn+rASuBj4KHIlnYSQV9GLid/LX0d4bw+pgK+ANwFdJd69HH9hMd1kM/Ij01M6eSNImbAHMIX7HtQ74YsU/q54xAngJ6ZvjLNLNmNGfvyk/9wP/Tlq7YxSStIFvEL+T2jAnVvrTttsI0mni/8Bv+W3MQtI9Pm8AJiOp1Y4g3WkcvWPaMPfS35sQm24k6dvfF4BHif98TT3yNPBj4K3ARCS1zi+I3xFtLP+7yh+6BUYBJwBnk5apjf48Tb2zgrRc9x8B45HUeIcTv+MZLnPwemU39gT+Bb/pm+6zFPgm6azRCCQ10jeI39lsKi+r7CdvlnHAqcAl1O9yjsk7DwOfBHZHUmOMIz0uFL2D2VTOreynb4bDSY/sLSH+szLNzlrS5cK34aO6UvaOI36n8nyZj6s2PttWwN8CdxH/+Zh25nHSWz09KyBl6qPE70g6yX5VDUBm9gbOIi0DG/2ZGLOOtG7ExcBrSE+aSMrEj4jfgXSSN1c1AJmYCVyA1/ZNvTMHOAPf/ChlIZdTyP9U1QDU2DjgdNJrYaPH35giWQT8K7ATkmprAfE7i07SpqWBtwM+TrrGGj3uxvSSVaQVBw9EUu2sJH4n0Um+VdUA1Mg2pEetvL5vmphLSK+PlmrBxS1gs+gCOtTkJYHXH/gfIF0/dQU2NdHxwDXAVcCrg2uRbAAUanvS29nWH/jHxZYj9cXhpHcP/AI4JrgWtZgNgCJMJX3jnw28Fw/8aqcjgctJZwSOCK5FLWQDoH7aEvgMfuOXNnQ46WzA94F9g2tRi9gAqB82A94H/Ab4K1xCVXq2AeC1wC3AOcD02HLUBjYAqtrxwI3AZ0lnACQNbyTwdlKzfCYwKbYcNZkNgKpyEHAF6dEnT2tKxWwGvIdn7pNxiWGVzgZAZduRdArzOuCo4Fqk3G1NelLmRtKLy6TS2ACoLGOADwH3kE5hum1J5dkfuBT4L2BacC1qCHfSKsMRpG8oH8ZFfKQq/RFwL2mu5bKImWrKBkC9mEK6UekKYJ/YUqTWGE8623YbcEJwLcqYDYC69VbS6f734HYkRXgBcDHwDXzCRl1wx62idgUuIr2caGpwLVLbDQDvAO4k3XsjdcwGQJ0aDfw9cDtwYnAtkn7ftqSnb34A7BBcizJhA6BO7E16i9kncPleqc5eA9wBnEY6OyANywZAmzIAnE56pv/g4FokdWYK8GXgp/jIoDbBBkDD2Ra4ADgbmBBci6TiTiRdsntLdCGqJxsAbcwppNOIr4wuRFJPpgDnAucBWwTXopqxAdCG1u8s/hvYKrgWSeU5FbgZODK6ENWHDYDWO4b0KlJPF0rNNB24HPggvlxI2AAo3eh3Bumtfb6DXGq2kcBHSO8V8HHBlhsVXYBCbQF8E3hVdCGq3EpgObAUWD3MPzOJdIDwWnHzHQ3cRFpE6KLYUhTFBqC9DgLOB3aJLkSFrAEeBR4cyuPAgg3yOPAEsARYTDrYP9XF/2cUMJH0lscJpHtCNpYdSK+A3on05IjyMRX4CfAvwD8Ag7HlqN9sANrpNOBzwNjoQrRRi0lvfLsXuBu4j2cO+I+SmoCqrQGe3OCvZ3fw74whNQI7AjNIa9XvCewF7I5vr6ujAeDvgBcBbyI1j2oJG4B2GQd8AfiT6EIEpG/nt5NOxd5EevTyHuCRyKJ6sJLUrNy3kb83knS2aU9gP9IZqBcCu+GKdXVwPHA98HrghuBa1CdOPFgXXUCH/pv0LvBu7UY65X9gOeWooEHSAf4q0g52/QF/VWRRNTCJtE2+kPQt9HC8LBXpaeBdwNejC1H1bADa0QAcN/Tve3NX/ywFriUd8H9FepfC4tCK8rEDMJPUDMwEDsDH1vrti8B7Gf6GUakR1mWS87r8+U4jfcuMrr/pWQP8GvgocATp7Ykqx0Tg1aT7Vu4h/rNuSy7DLw1quOhJ1mmKNgAjSHf3Rtfd5DxMelfC63FH2U8zSC+pOh9YRPx20OTcQ7qZU2qk6AnWaYo0AGOB79ag5iZmNnAm6dS0l9DijSR9FmcCvyV++2hiFpIuI0qNEz25Ok2nDcB2wKwa1NukzAI+QLqRUvU1gnT55TPAHOK3myZlFemsi9Qo0ROr03TSAPwBMLcGtTYhc4BP4unPnB1MOjMwj/jtqSk5E898qUGiJ1Sneb4G4GWkFd+i68w584BPkw4cao7NgJNJ9wysIH47yz1fwzVk1BDRk6nTbKoBeDPe6d9tBklroZ+CK9W1wRTg3cBtxG97OecnpCWipaxFT6ROM1wDcDrpIBZdX255hHSKf9dhxlXNdzDpKY5lxG+POeY60vsEpGxFT6JOs7EG4K+BtTWoLaf8CjgVT2HqGVsB7yc94RG9feaWe/E14spY9ATqNM9uAM6oQU25ZBC4gLSynDScEaQFh64ifpvNKQ8Ae3Qx3lK46MnTadY3AAOkO3Gj68khi0mLIe2EVMzhwA/w8lqneZT0FJKUleiJ02nOIy168rUa1FL3LAA+hKvzqXd7AF/Bm2w7yROkFzpJ2YieNJ3mh6QmILqOOmce6dLIRKRy7QJ8GRuB58si0sqMUhaiJ0yn8Wa/4TMf+CtgPFK1ZgBfwkZgU1mM99soE9GTxXSfJcA/4Td+9d8M4By8R2C4PAUc1u3gSv0SPVFM8awiPb+93UY+T6mf9sFLc8PlKeDQ7odWql70JDGdZy3wn6TrsVKd/CFwE/FzpG55Em8MVI1FTxDTWW4CjhzmM5TqYATwDtIjcdHzpU5ZCBzQw7hKlYmeHGbTWQC8l/QIpJSDCcCHgZXEz5+6ZD6wZw9jKlUiemKYjWcN8B/4LL/ytR/wC+LnUl0yB5jW04hKJYueFOa5uRk4ZFMfmpSJAeAteFlgfe4gvXtBqoXoCWGeyXLSqVNfy6ummUJ6csX1POBafHRXNRE9GUzKpcDuz/NZSbk7EZhL/HyLzs+A0b0NpdS76InQ9iwG3kk6VSq1wUTg87iI0Ndx3itY9CRoc64Edn3+j0hqpCNJN8ZFz8PIfKjnUZR6ED0B2phVpGv9PtqntptEujcgek5GZS3wx70OotSt6AnQttyM7w2Xnu1NpFXzoudnRFYBx/U+hFJx0Rt/m/IFYGxnH4vUOtOBK4ifpxFZBOzd8whKBUVv+G3IIuCUTj8QqcVGkt5w2cYbBO/Fhb/UZ9EbfdNzAz7eJxV1DPAY8fO337kEGFXC+Ekdid7gm5wzcVEfqVs7AdcQP4/7nc+WMXhSJ6I39ibmabyzVyrDKOCTtG8FwXeWMXjS84ne0JuWB/H931LZ3kZqrKPnd7/yNHBYKSMnbUL0ht6kXAVsV2z4JXXoMNr1UqGHgG1KGTlpGNEbeVNyFl7vl6q2E3Aj8fO9X7kIGFHKyEkbEb2B5561pFX9JPXHWODbxM/9fuVD5Qyb9FzRG3fOWQGcWnzIJfVoAPgU8fuAfmQQOKGcYZN+X/TGnWueAGZ2Md6SyvNe2rFo0Hxgx5LGTPqd6A07x9wP7NXNYEsq3WtJZ+Oi9wtV50p8gZhKFr1R55Zb8E5/qW6OJi25Hb1/qDr/t6TxkoD4DTqnXINrdUt1tT/NXz54Na4PoBJFb9C55ApgYndDLKlP9iQ9Px+9v6gys4FJZQ2Y2i16Y84hFwLjuh1gSX21M3Af8fuNKvPN0kZLrRa9Idc93wVGdz26kiLsRHq9bvT+o8q8sbTRUmtFb8R1znn4ak4pV9sDdxC/H6kqT+ANyepR9EZc13wfv/lLuZsK3En8/qSq/Li8oVIbRW/AdcxPgTG9DKqk2tiRdONc9H6lqry1vKFS20RvvHXLxaS1xiU1x3RgLvH7lyryJK4SqC5Fb7x1ys/x4C811Z40d52AC0ocJ7VI9IZbl9wETO5xLCXV237AQuL3N1XkTSWOk1oieqOtQ2bj3bRSWxxJM98d8BiuVKqCojfa6MwnnRqU1B4nAWuI3/+UnbPKHCQ1X/QGG5nFwMG9D6GkDP058fugsjOIrylXAdEbbFRWA39YwvhJyte/EL8vKju3A5uVOUhqruiNNSrvLmPwJGVtAPhP4vdHZefvyxwkNVf0hhqRr5QycpKaYBwwi/j9UplZTnopkrRJ0Rtqv/MLPD0m6fdtDzxM/P6pzHyn1BFSI0VvpP3M3fiYjKSNOxhYRvx+qswcVeoINcxAdAE1sC66gD6aBTwYXUTNrAaWAvOAe4DbSDcRrY0sSgryFuBbNOfYcBNwCOnpAOk5ojtUU788DnwbeAW+Dlnt82/Ez8Eyc3q5w6Mmid44Tb0zF/gLfEeC2mM08Evi515ZmY/LnGsY0RunySOzSWcEpDbYDniE+HlXVj5R7vCoKaI3TJNXvgmMR2q+Y2jOcsHLgZ3KHR41QfSGafLL9cC2SM33D8TPt7Ly5ZLHJntNudOzF+uiC1CWZgPH4lMVarYRwEXACdGFlGAQ2B+4M7qQuhgRXYCUqd2Ay4Cp0YVIFVoL/DGwILiOMozEewF+jw2A1L3dgf8i7VikpnqE5jxKdzLw0ugi6sIdF3w4ugBlbcbQr1cE1iBV7S7STXQHRRdSgumkxY5az3sAvAdAvVtDWkb11uhCpApNAG4EXhBdSAmOJK110GpeApB6Nwr4bHQRUsWWAW+nGcvq/mN0AXVgAyCV41jgiOgipIrNohnN7vGkswCt5iUALwGoPBcAJ0UXIVVsHHALsEd0IT26jNQItJYNgA2AyrMGmEZae1xqsqOAy8n/LPJM4OroIqLk/uFJdTIKeH10EVIf/AI4O7qIEpwRXUAkGwCpXMdFFyD1yRnkvxLmq4B9oouIYgMglWtmdAFSnywB3hddRI8GgL+JLiKK9wB4D4DKtxWwMLoIqU8uBF4ZXUQPVpNW9cz9bEZhngGQyrdbdAFSH70PWBldRA9GA++JLiKCDYBUvinRBUh9dB/wqegienQ6MDm6iH6zAfASgMq3eXQBUp99ApgbXUQPJpLeetgqNgCwIroANU7Op0OlbqwAPhBdRI/+gpYdE1v1ww5jSXQBapzF0QVIAb5P3ovq7AGcGF1EP9kAwEPRBahxHoguQAryfvK+rPqX0QX0kw0A3BNdgBplOfBwdBFSkGuB86OL6MGJ5P+Og47ZAKQNVirL9eT9DUjq1f8BVkUX0aURwLuii+gXGwD4eXQBapTLowuQgt0HfDG6iB68DRgTXYT65x7StzZjes0BSNqadIN19HzsNm8of0jqxzMAyXejC1Aj3EF6T7rUdk+Q91mAP4suQP2zHenmreiu0+Sd05C03takR2Kj52U3WUsLlvQeGV1ATSwFpgGHRBeibD1IagAGowuRamI5aVnsw6ML6cIA8BTeI9Ya2wJPEt95mjzzRiQ92zbkey/AgzT8S3Kjf7iClpE6vldFF6Ls/Az4u+gipBpaTnrJzszoQrowGbgSmBNdiPrne8R3niafzAN2QNJwtiW9KyB6rnaTr1QwHqqxKcBtxG94pv5ZARyBpOfzFeLnazd5EhhbwXioxqYB9xO/8Zn6ZjXwWiR1Ym/SnfXR87abvK6C8VDNbQ/cRPzGZ+qXZcArkVTEj4mfu90k53cbqAeTSR9+9AZo6pPfAAchqagjiJ+/3WQF6dKwWup0YCHxG6KJyyDwZWASkro1i/i53E3eXsVgKB9Tgc+T792spvtcChyKpF69g/j53E1+UMVgKD/bA/9IOhUcvVGa6rKIdOeyB36pPONI7wmInt9FswyYUMF4hBqILiBz+wLHkpYQ3hOYDmw+FOVhFWkp6EeBe0mPgP4cuAZYGViX1FT/BnwguogunEJaJ0aSJHVhN9I9NdHf6ovm3CoGQ5KkNvkZ8Qf0olkEbFbFYEQZEV2AJKl1zoouoAuTgaOiiyiTDYAkqd8uJN0MmJuXRxdQJhsASVK/rQLOiy6iC41qACRJinAo8df1u8muVQxGBM8ASJIizALuji6iCydGF1AWGwBJUpQcH63zMoAkST3amfxeE7yUhjwO6BkASVKUB4Bro4soaALw4ugiymADIEmKlOPyusdEFyBJUu52If60ftFcVslISJLUMjcRf1AvkhXA2EpGoo+8BCBJipbbZYCxNOA+ABsASVK03BoAaMB9ADYAkqRodwFzoosoaGZ0Ab2yAZAk1cFF0QUUdCgwMrqIXtgASJLqILcGYCKwd3QRvbABkCTVwWXAyugiCnpJdAG9sAGQJNXBMuCq6CIKOjS6gF7YAEiS6iK3ywBZnwGQJKkuXkj8Ij9FMghMqmQk+sAzAJKkurgVWBRdRAEjgAOii+iWDYAkqS4GgV9FF1HQgdEFdMsGQJJUJ7+MLqAgzwBIklSCK6MLKCjbMwAD0QVIkrSB0aT7AMZHF9KhlaRFgVZHF1KUZwAkSXWyGrg2uogCxgB7RhfRDRsASVLdXB9dQEH7RhfQDRsASVLd3BBdQEF7RRfQDRsASVLd5HYGwEsAkiSVYDawMLqIAmwAJEkqwTrgxugiCtiTDJ+qswGQJNVRTvcBTAB2ii6iKBsASVId3RFdQEHZXQawAZAk1dFd0QUUNCO6gKJsACRJdXQ36V6AXOwcXUBRNgCSpDpaCjwUXUQBM6ILKMoGQJJUV3dGF1DAjOgCirIBkCTVVU73AcyILqAoGwBJUl3dG11AAduTXgyUDRsASVJdPRBdQAEjgB2iiyjCBkCSVFdzowsoaLvoAoqwAZAk1dVc8noU0AZAkqQSrAAejy6iABsASZJKktN9ANtGF1CEDYAkqc7mRhdQgGcAJEkqybzoAgrwDIAkSSXJ6R6ALaILKMIGQJJUZ/OjCyhgcnQBRdgASJLqLKczAFOiCyjCBkCSVGc5nQGwAZAkqSQ5nQGYREbH1WwKlSS10oLoAgoYAUyMLqJTNgCSpDpbGl1AQZtHF9ApGwBJUp2tAAajiyhgbHQBnbIBkCTV3bLoAgqwAZAkqSQ5XQawAZAkqSSeAaiADYAkqe48A1ABGwBJUt2tii6ggDHRBXTKBkCSVHfrogsoIJvjajaFSpJaa210AU1kAyBJqruczgBkwwZAklR3NgAVsAGQJNWdlwAqYAMgSao7zwBUwAZAklR32TxaR0bvLbABkCTV3bjoAgpYGV1Ap2wAJEl1l83qesDT0QV0ygZAklR3OZ0BsAGQJKkkOTUAXgKQJKkkXgKogA2AJKnOBvAMQCVsACRJdTYZGBVdRAGLowvolA2AJKnOtoouoIBBYEl0EZ2yAZAk1VlODcBTZLRqoQ2AJKnOtowuoIBF0QUUYQMgSaqz3M4AZMMGQJJUZ1tEF1CADYAkSSXZPrqAAp6MLqAIGwBJUp3tFF1AAY9GF1CEDYAkqc52jC6ggHnRBRRhAyBJqjMbgIrYAEiS6mxadAEFPBZdQBE2AJKkutoaGB9dRAGeAZAkqQQ53QAINgCSJJXiBdEFFLAWeCS6iCJsACRJdbVndAEFPEpGrwIGGwBJUn3ldAZgbnQBRdkASJLqKqczAHOjCyjKBkCSVFd7RBdQwAPRBRRlAyBJqqPtgMnRRRRgAyBJUgn2iy6goDnRBRRlAyBJqqODogso6J7oAoqyAZAk1dGB0QUUsBx4OLqIomwAJEl1lFMDcA9pIaCs2ABIkupmPHk9AZDd6X+wAZAk1c/+wMjoIgqwAZAkqQQHRxdQkA2AJEklODy6gIJuiy5AkqQmeABYl0meBkZXMwzV8gyAJKlOpgHTo4so4DZgdXQR3bABkCTVyczoAgq6ObqAbtkASJLq5KXRBRR0S3QB3bIBkCTVSW43AGZ7BmAgugBJkoZsCcwnnzUA1gJbAIujC+mGZwAkSXVxHPkc/AHuJNODP9gASJLq44ToAgq6JrqAXtgASJLq4vjoAgqaFV2AJEm52534RX2KZt9KRqJPPAMgSaqD3L79PwXcFV1EL2wAJEl18OroAgqaRXoKIFs2AJKkaJsDx0YXUdDV0QX0ygZAkhTtFcDY6CIK+nl0Ab2yAZAkRTs5uoCClgPXRhchSVLORgMLib+jv0guqWQk+swzAJKkSEeTltPNyRXRBZTBBkCSFOnU6AK6kP31f/BlQJKkOJsBj5JeApSLpaR6V0cX0ivPAEiSorycvA7+AJfRgIM/2ABIkuK8ObqALvw0ugBJknI2EVhG/B39RbNzFYMRwTMAkqQIrwPGRxdR0J3AA9FFlMUGQJIU4R3RBXTB0/+SJPVgD9KLdKJP5xfNcVUMRhTPAEiS+u008nsMfRHwy+giJEnK1WbAPOK/zRfNOVUMRiTPAEiS+ulkYGp0EV34QXQBkiTl7GfEf5svmmXk98SCJEm18QJgkPgDetGcV8VgRPMSgCSpX95HnscdT/9LktSlLUkv0on+Nl80K4BJFYxHuBw7MUlSfk4HJkQX0YULgMXRRUiSlKNRwIPEf5vvJidXMB6SJLXCG4k/kHeThcCYCsZDkqRWuJ74g3k3ObuKwZAkqQ1eTfyBvNscVcF4SJLUCrOIP5B3kwdo+I3yjf7hJEmhTgReHF1El75OemOhJEkq6Eriv8l3k0Fg5wrGQ5KkxjuG+AN5t7m4gvGQJKkVrib+QN5tTq1gPCRJarzXEH8Q7zZP4LP/kiQVNhK4nfgDebf5t/KHRJKk5vsT4g/i3WYt6ZXFkiSpgLGk5+ejD+Td5sLyh0SSpOb7a+IP4r3kZeUPiSRJzbYtsIj4g3i3uZeWLY7Xqh9WklSZTwKTo4vowX/gyn+SJBVyMGn1vOhv8d1mMTCp9FGRJKnBBoBriD+I95JPlz4qkiQ13NuJP4D3kpXAjqWPiiRJDbYl8BjxB/Fe8tXSR0WSpIb7GvEH8F6yFtin9FGRJKnBjiIdQKMP4r3k+6WPiiRJDTYGuIv4A3iveUnZAyNJUpN9jPiDd6+5rPRRkSSpwV4IrCL+AN5rZpY9MJIkNdUY4FbiD9695mdlD4wkSU32aeIP3mXkiLIHRpKkppoJrCH+4N1rflr2wEiS1FSTgLnEH7zLyKHlDo0kSc11DvEH7jLyo7IHRpKkpnoj8QfuMrIG2LfksZEkqZH2IL0qN/rgXUbOLnlsJElqpLHATcQfuMvIcnzjnyRJHTmb+AN3WflIyWMjSVIjvYn4g3ZZmQdMLHd4JElqngOApcQfuMvKn5c7PM0xEF2AChsH7AfMALYFxg/9+Xzgt8C9pOd1JamorYDrgF2iCynJTcAhwGB0IVK39iddw7qBzlbimgecD7yFtICHJD2fUaQ35EV/Yy8ra/GFP8rUCNLzt7+mt0mwGPg8zenoJVXjs8QftMvMueUOj9QfR1L+4zdPk17k4RkBSc/2DuIP2GVmCTCt1BGSKjYW+BzpelVVE2MOcFS/fiBJtXc0sJL4g3aZ+bsyB0iq2g70frq/06wBzujPjyWpxvYGFhJ/wC4zdwNjyhwkqUq7kL6Z93ui/Gs/fjhJtbQtcD/xB+wyM4g3/ikjOwIPEjdhPlb9jyipZsYDs4g/YJeds8ocJKlK40mP9kVPmr+p+geVVBujgB8Sv98pO48AU0ocJ6lSXyZ+0qwjPS97WsU/q6R4A8A5xO9zqsipJY6TVKmXkQ680ZNmfdYAp1T6E0uK9jni9zVV5MdlDpJUpZHAncRPmmdnJakxkdQ8HyN+H1NFnsRn/pWR04ifNMNlCfCS6n50SQH+hvh9S1V5c4njJFVqALiD+EmzqSwCDqtqACT11bup1+XGMvP9EsdJqtzRxE+aTvIUngmQcvdemnvwnw9MLW+opOp9nviJ02mW4rLBUq7+ivh9SJXxrn9lZw7xE6dIFgMvrWQkJFXlA8TvO6rMt8obKqk/tiN+4nTbBBxVwXhIKt/fEr/PqDL34VtNlaFXED95us0K4OTyh0RSSQaATxK/r6gyq4BDyxowqZ/eRfwE6iVrcMVAqY5GAl8ifh9Rdf6+rAGT+u0jxE+gXrMW+OuyB0ZS18YCPyB+31B1LgdGlDRmUt/9K/GTqKx8knTKUVKcycAVxO8Pqs58XO1PmfsU8ROpzHyH9O1DUv9NB24hfj9QdQaBE0oaMynMB4mfTGXnGlyMQ+q3A4GHiJ///cgH63dwoQAACpBJREFUSxozKdSfET+Zqsj9wN4ljpOk4b0OWEb8vO9HLiXd4Chl7wjiJ1RVWQy8vLyhkrQR7yWdEo+e7/3Ig8DW5QybFG8izZ68q4D3lDZaktYbB5xD/BzvV57G5/3VQNcRP7mqzrnA+LIGTGq5XYAbiZ/X/cyflDJyUs008UbAjeUWYLeSxkxqq5cDC4ifz/3Mp0sZOamGdqfZlwE2zELS8seSihkgfVloy75ifS7Cm/7UcBcRP9H6lUHg48CoUkZOar5tgP8hfu72O/cAU0oYP6nWjiJ+svU7vwJmlDB2UpMdDzxC/Hztd54E9ixh/KQstLHDXwT8URmDJzXMaNLy2m075b8OWAkc0/sQSvnYFVhC/OSLyFeACb0PodQIuwK/Jn5eRmQt8Lbeh1DKz/8ifgJG5V5gZu9DKGVrADidtIhW9HyMisv8qtXOIn4SRmUtcDaeDVD77ABcQPwcjMxXex5FKXObAT8jfjJG5m7gJb0OpJSBAeCdwFPEz7vIXES670Fqvc1p7zXA9VlDel2yKwiqqXYGLiZ+rkXnGtI+T9KQKcDNxE/O6DwMnNLjWEp1Mor0Ep+23vS7YW4DtuxtOKVm2gGYQ/wkrUMuIH1jknI2k3TQi55Pdchs0j5O0jB2Bx4lfrLWIcuAD5Puk5BysgVwJu18rn9jmQe8oKcRlVriQNr3ApBN5XbgZT2NqNQfo0mvxH6C+HlTlzwB7NfLoEptYxPw3FwC7N/LoEoVOh5P9z87TwIv6mVQpbZ6IemNetGTuE4ZBL4JbNvDuEpl2gf4CfFzo25ZBBzSw7hKrXcYPjM83M7lg8DE7odW6skuwDfwOv9w89ODv1SCl9Du5UI3lSeAM3D9APXPjqQb/J4mfvuvY54CDu16dCU9x0tJ19OiJ3dd8wjwbnxiQNXZDg/8z5cnSWctJZXsIOBx4id5nfMgadEV3y+gsuwEfIb0WGr09l3nzCfdtySpInuRVsuLnux1zyLS+9W36m6YJXYnfeNfQfz2XPc8CvxBd8MsqYjdgbnET/ocshT4LDC9m4FWKx0O/Jj0tsro7TeH3A/s2tVIS+rKdOAe4id/LlkNnA8c3cVYq/nGAG8hvagmelvNKXcC07oYb0k92hK4ividQG65G+8TULI96SmSh4jfLnPLLGCb4kMuqSwTgAuJ3xnkmCeBf8fVBdtmBGnVvvNJZ4ait8Mc82N89FaqhZHA2cTvFHLOHaRvgn6jaa7ppM94NvHbW875OukVx5JqYgD4OPE7h9zzNPCfwCtwTYEmmAycDlxN/LbVhHy40OhL6qt3AquI31E0IQuArwIn4jeenEwG3gr8EB/hKysrgT8t8iFIinEsvkmw7DxOusxyAp4ZqKMpwNtJ16Zdqa/cPAEc1flHISnaC/AxwaqyGPge6RuRbyWMsxfwftJrolcSv100MXcCu3X6gUiqjy2By4jfiTQ5g6THoT4EzARGd/TJqBvjgVcCXyAtPhP92Tc9F5POrEjK1Gjg/xG/M2lLlgIXke42P4T0hIa6sznp/ouPk9a78Ft+/3Im3vfSeAPRBahv/hj4IjA2uI62WUw6Q7BhHg+tqL52Bl5EepXskcDBeBDqtxWkpybOjS5E1bMBaJeDSdeud44upOXuJzUCNwG3AreRXmfcJtOBA0hnSV40FNdgiDUHeB1wc3Qh6g8bgPbZGvguaSU01ccC4BZSM3AncB9pwZqHSC+lydFI0qt09yK9KW7voV/3AiYF1qXnuhh4M7AwuhD1jw1AO40EPka6Tu02UG8rSd/MZg/lt6RXrz4MPDb065Kg2rYZylRgR2AGsMvQrzNIB39viqy3tcAnSAv8DMaWon5z599uJwLfJO3Ala9lwHxg0UayBFg+9M8tJu3kV5NuVoS0D3j2nd7jSO+YmARMHPr9hKF/bv0Bfxu8Pp+7x4C3AZdGF6IYNgCaSmoCTowuRFLfXE5aLfHR6EIUx0eUtAz4NunNeMfhNiE12Rrgo8BpxF06Uk14BkAbOpJ0NsCnBKTmuZ/0rf+a6EJUD37b04YeAL4GbEV6ZFBSM3wLOIl0I6kEeAZAw3sd6eU3W0cXIqlrj5MW9vlhdCGqHxsAbcpU4Mukbw6S8nIR6YVV3uinjRoRXYBqbT7wGtINQ4uCa5HUmYXAO4CX48Ffm+AZAHVqO+BzwCnRhUga1oXAn5MWjJI2yQZARb2a9FKhadGFSPqdx4C/BM6PLkT58CkAFXUv8A3SGYEDsImUIq0DvgqcDNwYXIsy485bvTgS+ALpBS+S+utW4F3A1dGFKE+eAVAvHiA9JbAQeCkwJrYcqRWWAf8MvB2YG1uKJMH2pFUE1xljKssFpLcsSlLtHEd6r330jtKYJuUG4GgkqeZGkE5PPkL8jtOYnPNb0kp+Xq5V6dyoVIV1pLMAZ5HePX8oMDq0Iikvy4HPAG8gvbxnXWw5ktSd6cA5wCDx36iMqXNWkx7r2xFJapC9gfOAtcTvaI2pU9aSbvDbH0lqsP1IjUD0TteYOuQSfP22pJY5GvgF8TtgYyJyGXAEktRih5NOf3ppwLQhVwHHIEn6nQPxHgHTzKy/xv9iJEnD2h84F1hF/I7bmF6ykvQEjO/LkKQCtgM+DCwgfkduTJE8BZyJy/ZKUk82J62GdjfxO3ZjNpX7gTOAyUiSSjMSOAn4CS4qZOqTQeB/gFeRlsGWJFVoGunywDziDwCmnVlIOs2/C5KkvhsDvAW4Ap8eMNVnELgceBNp25OyNRBdgFSiHUnNwDuB3YJrUbM8BHwH+BLpOr8kqYYGSKsMfgNYQvy3RpNnFgNfA47EL0tqIDdqNd1Y4ATgVOC1pCcKpOE8DVwK/DfwPWBZbDlSdWwA1CbjgONJzcDrgAmx5agmNjzo/4B01khqPBsAtdV44DjSo1snkRYdUnssJL2M50Lgh6TT/VKr2ABIaX2BmaRG4CRg99hyVJH7gB+R1uS/inRHv9RaNgDSc+1KulSwPlvElqMuLQOuIZ3evxS4IbYcqV5sAKRNG0V6g9sJwLFDvx8bWpGGsxK4lnRq/5Kh368JrUiqMRsAqZhRwAGkSwaH4xmCSEuBXwNXk07pXw2sCK1IyogNgNSbkaTXFx8KvAg4BNiH1CioPGuAO4Hrh/Jr4Fa8ji91zQZAKt944CBSQ/BC0rvg98FLB51aSTrY3066bn8dcDOwPLIoqWlsAKT+GAnsAew3lH2H/np30voEbfQ0aVndu0gH+9uB24DZeO1eqpwNgBRrgPQOg915piGYMfRnOwPbkpqHHA2S3tb4EPAg6cA+m/Q43mzgYdKSu5IC2ABI9TYK2AHYidQUTAW2HspUYJuh329BWtlwcsX1LAaeAhYM5YkNfr+AdLB/lHTAn4ff5KXasgGQmmciqRmYAEzZ4M82vDFxCs/M/2XAqmf9N5aS7qhfMpQVQ38mSZIkSZIkSZIkSZIkSZIkSZIkSZIkSZIkSZIkSZIkSZIkSZIkSZIkSZIkSZIkSZIkSZIkSZIkSZIkSZIkSZIkSZIkSZIkSZIkSZIkSZIkSZIkSZIkSZIkSZIkSZIkSZIkSZIkSZIkSZIkSZIkSZIkSZIkSZIkSZIkSZIkSZKkSvx/UzjCfWLRij8AAAAASUVORK5CYII=;rotation=0;" vertex="1" parent="1">
          <mxGeometry x="429.5" y="303.5" width="32" height="32" as="geometry" />
        </mxCell>
        <mxCell id="RO8CWs9kd0AewVBDbx6X-27" value="&lt;div&gt;Auto&amp;nbsp;&lt;/div&gt;&lt;div&gt;Regression&lt;/div&gt;" style="text;html=1;align=center;verticalAlign=middle;resizable=0;points=[];autosize=1;strokeColor=none;fillColor=none;" vertex="1" parent="1">
          <mxGeometry x="429" y="263.5" width="80" height="40" as="geometry" />
        </mxCell>
        <mxCell id="RO8CWs9kd0AewVBDbx6X-28" value="Dataset" style="text;html=1;align=center;verticalAlign=middle;resizable=0;points=[];autosize=1;strokeColor=none;fillColor=none;" vertex="1" parent="1">
          <mxGeometry x="137" y="110" width="60" height="30" as="geometry" />
        </mxCell>
        <mxCell id="RO8CWs9kd0AewVBDbx6X-29" value="Processing" style="text;html=1;align=center;verticalAlign=middle;resizable=0;points=[];autosize=1;strokeColor=none;fillColor=none;" vertex="1" parent="1">
          <mxGeometry x="184" y="218" width="80" height="30" as="geometry" />
        </mxCell>
        <mxCell id="RO8CWs9kd0AewVBDbx6X-30" value="&lt;div&gt;Generated&amp;nbsp;&lt;/div&gt;&lt;div&gt;Dataset&lt;/div&gt;" style="text;html=1;align=center;verticalAlign=middle;resizable=0;points=[];autosize=1;strokeColor=none;fillColor=none;" vertex="1" parent="1">
          <mxGeometry x="240" y="260" width="80" height="40" as="geometry" />
        </mxCell>
        <mxCell id="RO8CWs9kd0AewVBDbx6X-31" value="Dataset" style="text;html=1;align=center;verticalAlign=middle;resizable=0;points=[];autosize=1;strokeColor=none;fillColor=none;" vertex="1" parent="1">
          <mxGeometry x="349" y="189.5" width="60" height="30" as="geometry" />
        </mxCell>
        <mxCell id="RO8CWs9kd0AewVBDbx6X-34" value="" style="shape=image;verticalLabelPosition=bottom;labelBackgroundColor=default;verticalAlign=top;aspect=fixed;imageAspect=0;image=data:image/png,iVBORw0KGgoAAAANSUhEUgAAAgAAAAIACAYAAAD0eNT6AAAABHNCSVQICAgIfAhkiAAAAAlwSFlzAAAOxAAADsQBlSsOGwAAABl0RVh0U29mdHdhcmUAd3d3Lmlua3NjYXBlLm9yZ5vuPBoAACAASURBVHic7N153KZj+cfxz9cuSvYM5ZcsETGyFbIUIluE0F6KpJ1Kv4rSQqSohIRSyb5F/eyUXdlJKbJlX7POzPH747xGM8zM8zz3fVzXdS/f9+v1vHjVM8d1YOY5j/u8jvM4BQTdmzciHk2IY2ZmZg2Yqe0EzMzMrHkuAMzMzIaQCwAzM7Mh5ALAzMxsCLkAMDMzG0IuAMzMzIaQCwAzM7Mh5ALAzMxsCLkAMDMzG0IuAMzMzIaQCwAzM7Mh5ALAzMxsCLkAMDMzG0IuAMzMzIaQCwAzM7Mh5ALAzMxsCLkAMDMzG0IuAMzMzIaQCwAzM7Mh5ALAzMxsCLkAMDMzG0IuAMzMzIaQCwAzM7Mh5ALAzMxsCLkAMDMzG0IuAMzMzIaQCwAzM7Mh5ALAzMxsCLkAMDMzG0IuAMzMzIaQCwAzM7Mh5ALAzMxsCLkAMDMzG0ICIiHOncCkhDjd2iQibmo7CTMzs143S1KcVyfF6dZsbSdgZmbWD/wKwMzMbAi5ADAzMxtCLgDMzMyGkAsAMzOzIeQCwMzMbAi5ADAzMxtCWccAzaxDkmYHFgAWrL4m//1zwB3Av4B/RcQTrSVpZgPHBYBZwyQtDrwD2Bh4KzDvKH/do5Ri4J/AWcApEXFfXXma2WDLmgTYK8ZHxDVtJ2E2JUkzA+tTFvx3AMsmhZ4E/BE4ETgpIu5KimtmQ8AFgFlNqoV/e+B/gWVqflwAVwCHAkdHRC+M5jazHuYmQLNkkmaW9F7gRuCX1L/4QynmVwd+Dlwtab0GnmlmfcwFgFkiSTvQ7MI/LSsB50k6VdJSLeVgZj3OBYBZAklzS/ot8CvaW/hfbHPgRkkHSpqn7WTMrLe4ADDrkqTlgCuBbdvOZRpmBT4DXCbptW0nY2a9wwWAWRckvYfSfPf6tnMZwespRcCqbSdiZr0h6xTAW4FeGFLy14h4uu0kbPBVHf4HAru1ncsYPQXsEBGntp2ImbUrqwCYNyIeTYhj1hckHQp8rO08OjQJ+GxEHNR2ImbWHr8CMBsjSV+kfxd/KH/ufyhpj7YTMbP2eAfAbAyqd/6/pvzZ6XcTgQ0j4ry2EzGz5rkAMBslSWsDZwOzt51LovuBlSPi7rYTMbNm+RWA2ShIWho4hcFa/AEWAo6TNGvbiZhZs1wAmI3Oz4D52k6iJm8Bvtd2EmbWLBcAZiOQ9G5g7bbzqNmnJW3adhJm1hz3AJjNgKTZgZuBpqboPQzcVf11YWAx4OUNPft6YMWIGKQbQs1sOmZpOwGzHvdp6l38bwZOr76untYgq2qO/1rAZtXXuJpyWQHYGjihpvhm1kO8A2A2HZIWAv4GvKKG8BcAe0TElWPMScCWwHeBpWvIy7sAZkPCPQBm0/dN8hf/fwKbRsR6Y138AaI4GXgDsCv5I7gn7wKY2YDzDoDZNFTb7veRe+zvfGCbiHgoK2B1E+FpwOuyYuJdALOh4B0As2nbmtzF/3DK1L20xR8gIm4CVqUUF1lWADZMjGdmPcgFgNm07ZgY61Tg4xExITHmCyLiEWAL4MbEsO9MjGVmPcivAMxeRNI44E5yCuTrgbdExJMJsWZI0hLAFcD8CeFujYhlEuKYWY/yDoDZS21Dzp+N54Gtm1j8ASLiH8BHksItLamp2Qdm1gLPATB7qTWT4hwaEX9LijUqEXGqpD9S5gZ0ayPgpwlxzAaKpDmBRauvcVP8/aKUk0P3AfcC91Rfk//+roh4vo2cp8WvAMxeRNJtwBJdhnkSeF1E3J+Q0phIegvwp4RQp0TEuxLimPU9Sa+h9NpsCbyVzj5APw78ntIXdFbVv9MaFwBmU5D0SiDjD+VPImLXhDgdkfQnyiU/3XgCmMfHAW1YSVqRsuBvAYxPDj8BuJhyjPeUiLg9Of6I3ANgNrWVk+KckhSnzee/nMG9AdFsuiStLulC4BpgL/IXfyg7COsBBwK3Sfq5pMVqeM50uQAwm9qKCTEeo4z6bVNWAbJgUhyznidpSUnHAZdRtvmbMhPwIeBWSd+tdiIbeaiZ/VfGEboL2m70qZoP70gItVBCDLOeJmlBSQcDN1FOAbVlTuCLlB2Bz1W3kdbGBYDZ1DKu3r0zIUaGjDxcANhAk7QJ5dKvTwKztpzOZPMBBwBXS8oc8z0VFwBmU8soAO5JiJEhIw8XADawJH2BchX3PG3nMh1vAK6QtH4dwV0AmE0towC4NyFGhow8XADYwJE0m6SjgO/R++vgfMAfJH0yO3Cv/4ObNW2OhBhzJsTIkJHHbAkxzHqGpIUol2d9oO1cxmAW4GBJh0lKe03hAsBsahmDe8YlxMiQkUev9DOYdU3SIpT7MrqdkdGWnYBTJM2cEcwFgNnUMt6bL5IQI0NGHv9KiGHWOklzUI7HLt52Ll3aBNg/I5ALALOpZRQAyybE6IqkWYAlE0K5ALBBcTiwWttJJPmMpK4v/nIBYDa1jAJgjeo9Y5vWJaez2QWA9T1JuwPvbTuPZD+R1NWlXy4AzKZ2e0KMmYDNE+J0Y8uEGI9HxGMJccxaU53z/27bedRgNuAkSf/TaQAXAGZTu55yY1e3dkiI0ZFqethWCaEyJgmatUbSOOA3DO5atyBwnCR18osH9V+KWUciYhI5V+muV9fwjlHYlZwGwAsTYpi1aS/gFW0nUbNVge07+YVZ1wGfBHQ7+3y3iHggIRezrkj6EvCdhFBXAqs3eZ2upHmA28i502DdiHARYH1J0uuBG4CUI3MzcC3l1sB7KT1Ej1MGaI0DFgXWBl5Vcw63A8tExHNj+UVZBUCG17ZxH7LZi0l6Czm7AAAfi4jDk2KNSNKPgU8khLofWKTaETHrO5JOAt5VU/irgGOAU0dat6rt+TdT+nI+BCxQU06fi4gDx/ILXACYvUg1aesucsbgPgesHxFZBcV0Sfoo5ahThkMjYuekWGaNkrQGcGkNof8KfCUiTuzkF0t6ObA78DlgrszEgIeB10XEo6P9Be4BMHuR6irfI5LCTe7UrXX4iKR1gJ8khjwhMZZZ0/ZNjhfA14DlO138ASLiiYj4GmVGxwVJuU02H/DlsfwC7wCYTUN1tOY28orke4AtIuKqpHgvkLQtcCTwsqSQDwGviogJSfHMGiNpdeCyxJD/Ad4bEackxpy803gw8PHEsE8CC0TEs6P5Zu8AmE1DVYz+PjHkOOAiSR11606LpJkkfQv4LXmLP5ThP71yL7rZWGW+938CWDt78Yey01i9ZvtqYti5gbeN9ptdAJhN3yHJ8eYEfi3pdEnLdRNI0obAn4E9UzKb2njgT90MGDFrUcYQLIBJwI4R8ZekeNMUEfsARyWGHPU/v18BmM2ApIuBrsZtTsdEyh/6o4BLRtNtX11msgHwSWDDGnJ6sYeBHSLiDw08y6xr1dG/m5PC7RkRGceBRyRpNuA8YM2EcPcB40b1MwUXAGbTJWkl4Grq3S17ADi9es49lPPEj1BOISxCeX2wNvAO8juHRzKJ0vz07SbnGZh1InGGx3XA+CaPwUpaljKJNGNuwZoRccmIz8QFgNkMSToEGPYjcacB74uIjDHJZrWQdBmwekKod7Sx8yXpZ0DXt/wB34uIPUZ8Hi4AzGZI0vzArZRjNsPsVmCriLix7UTMXkzSgpTt747m4k/hvIgYdSNdJkmLUk4fzd5lqOsj4o0jfZObAM1GEBEPkXtUp18tDVxeHTs06zVL0P3iD3B0QoyORMTdwDkJoV47mm9yAWA2ChFxAvCttvPoAXMBv5W0v6RZ2k7GbAoZF2BNAs5MiNONjCOHc0sa8RIkFwBmo/c14Iy2k+gRnwfOlpQxLtksw7iEGJdGxIMJcbpxOqUQ6daI/z5cAJiNUtURvCNwS9u59Ih1gauryWtmbcvYAfhzQoyuRMR9wN0JoRYd6RtcAJiNzROUY3tWLEaZcOgeCWtbxg7APQkxMmTk4QLALNlHKWfy7b9mA34q6YhqWJFZGzJ2AO5NiJEhI48RC6KsJp7PAU93GeOhjETM6iJpYWC/tvPoYR8GVpS0dUTc0XYyNnQyjuk+lhAjwyMJMeYd6RuyCoAjx3IHsVmf+iHwyraT6NDzlMaibs8Xj+RNlL6A90RExnEms9HK2DZ/dUKMDAsmxLh/pG/wKwCzUZC0MbBd23l06BbgzZRXF3c28Lz5gd9XY1nNmvLPhBhLJMTI0Eg/gwsAsxFImov8mwGbEMCPgJUj4uqIuJLyCf28Bp49M/AdSSdJenkDzzNzATC1EfsIXACYjWxvYPG2kxijS4B1I2K3iHihPyciHqDcJPi9hvJ4F3BFddGJWZ0yCoAlE2J0RdISwKsSQnkHwKwbksYDn2k7jzG4Btg0ItaMiIum9Q0RMbG6KGQb4MkGcno9pQjYuoFn2fDKKACWldR2EbBZUhwXAGadkjQzcDg513PW6Wng15RP9itHxO9G84uq8carAX+tMbfJ5gZOkLRv9e/VLNvtCTFEOerbpowC4MmIGLG4dwFgNn2forwzz3IOZZH+PtDtjXoPUmaGfxxYJCJ2jIizI2JMt3tGxM2UIuDkLvMZrT2AP0haoKHn2ZCIiKcotwF260OSZk2IM2aSXk+ZsNmtm0f1PHKuA57XxwBtkEh6DXAT5fKbDE8DK0TEbVM8YzHK4rs0sFT1tTDleO7kr2coY0Hvqr5uBf4YEanjiCUJ+BKwD818MLgT2LpqTDTrmqTXAReR00C3TbVD1ihJJwNbJoT6ekR8Y8Tn4QLA7CUknQ5smhjyyxHx3cR4tZC0AfAbylG+uj0LfDIiftbAs2xAVad0vkIZSJc15+LvwCoR0dhgIElrAn9MCrdSRFw74jNxAWA2FUnbAMclhrye8m5+QmLM2khaHDiR3NcfM3I4sFtEPNvQ82xASNqBMp1zxLn3HTglIt5VQ9yXkDQvcAU5pxD+FRGjOrXkHgCzKUiaBzgoMeQkYKd+WfwBqjG+awFHNvTInYCLJfXKFDbrcZLGS/oj8CvqWfwBtpS0R02xX1A1xR5H3hHE00b7jS4AzKa2LzlncCc7JCIuT4zXiIh4JiI+DOwMPNfAI1eljBBev4FnWZ+StICkQ4GrgDUbeOS3JWW+CpyKpJmAnwBvTwx76qifj18BmAEvvIO7mPLnIsPdwHIR8XhSvFZIWp3ySqCuT1pTmkjpl2hqUJH1gepT8icoQ7lGvOQm2STgm8A3ImJSVtBqt/E3wMZZMSmXCC0cEc+P5pu9A2AGSJoNOIy8xR/Ke+2+XvwBqh2MlYELGnjczMB+ko6XNHcDz7MeJ2k9yoCrg2h+8YeyTn4dOCvr+KqkVYDLyF38AfYb7eIPLgDMJtsDWC4x3ikR0dTZ+tpFxP3ABpQZBk14N3C5pGUaep71GEmLSzqecnfF8m3nQ5nhca2kL0jq6JSMpP+R9GtKw9/rU7MrO44/HFM++BWADTlJSwPXkXeE6Alg2Yi4OyleT5G0HXAEeTMSZuRx4AMRcUoDz7IeIGlO4IuUonzOltOZnmcojXuHAFfM6NVA1eG/KeV8/6bAbDXltNNYj9S6ALChJ+k8YL3EkLtFxI8S4/UcSW+gTA9cqoHHBfBd4H8z38Fa75H0bmB/+uvyrWcpY4j/UX3dT2kkXgx4NWX3Ypaac7gFWD4iJo7lF7kAsKEm6UPAzxNDXg68ZRgWqqqJ6RfA5g098mxg+4h4qKHnWUMkLU95x59ZiA+TrTp55egCwIaWpAUplfN8SSEnAG+KiOuS4vW8aoTwnsA3aKan6A7KD7s/N/Asq1m1Pb43pcPfl0R15vyI6Oj4rJsAbZgdSN7iD3DAMC3+AFF8C9gEeLiBRy4O/EnSBxt4ltVE0kySPk6522I3vPh36g5gu05/sXcAbChJ2hD4Q2LIf1DewT2dGLOvSHotZV7A+IYe+VPg0xHRxKAiSyJpLcp2f1O/TwbVf4A1RzPzf3q8A2BDp+oyPiQ57M7DvPgDRMQ/KdPZftHQI3cGLpTUxIAi65KkRSX9ijJsy4t/dwJ4fzeLP7gAsOH0dWCJxHjHRMTZifH6VkQ8HREfAHYFRj2QpAtrAH+WtE4Dz7IOSJpd0peBvwI7tJjKg5SBQoNg74g4qdsgLgBsqEh6I/D5xJAPUa4htSlExE+AdYB7GnjcQsA5kvzfocdI2hy4Efg2zcyNmJYJlFcOSwFvoRxf7We/pDTdds0FgA2N6uKNw8k9k/uFiHggMd7AiIhLKSOEL27gcbMAB0g6trof3lokaRlJv6dcTPO6FlM5DxgfEZ+OiEer13TvBvpxTkcAX4+I90dERu+eCwAbKrsCqyXGOz8ijkqMN3Ai4j5gfcY4orQL2wGXSWpiQJG9iKRXSNofuB7YqMVU7gC2iYi3RcQNU/4fETEpInajTBpMWUgb8BTlnyflk/9kPgVgQ0HSYsBNwMuTQj4DvDEi/pYUb+BJ2h74GfCyBh73GKVJatR3o1vnqnkQH6BMbFy4xVSeBvYD9h1NU66k9wBHU9943gx3AptHRHr/gncAbFj8iLzFH+BbXvzHJiJ+Q2na+3sDj5sHOEXSN6tXP1YTSatRbrY7knYX/xMpd3DsNdoTORFxLPBW4KpaM+vcRcCqdSz+4B0AGwKS3gV03TE7hRsp7xWb6HIfOJJeSWlk2rShR/4e2DEimhhUNDQkLUz5xP8Bcq/RHqsbgU9FxHmdBqh2MN4HfAcYl5VYF24F9oyIE+t8iCtjG2iSXgEcnBgygI978e9c9WFhc8pxzCbuTHgHcJWklRp41sCTNKukz1MWqQ/S3uL/KPBpYKVuFn94YaLlL4ClgW9SXiW04T7KWOQ31L34gwsAG3zfBjIHxRwaEX9KjDeUqh+43wA2Ax5p4JGvBS6R9L4GnjWwJG1EafDbH3hFS2lMopzmWToiDoqICVmBI+I/EfE1YBnKQKunsmKP4AlgL2DJiDgk859pRvwKwAaWpDWAP5FX6N5Lecf4WFI8AyQtQXlFs2JDj/wx8Fnv4oyepNcB36e5mx+n5xLKdv/VTTxM0suAjYGtKa+sMvuI7gdOA04Bzo2IZxJjj4oLABtIkmYFrgZWSAy7TUSckBjPKtUP2sOAHRt65CWU/55NDCrqW9VMha9Qhl3N3mIq91KO7f0q6wz8WEmaHdiAUgy8ndIrMJYPFxOA24DTKYv+pW1fG55VAOxNORbVtp9HxP1tJ2Htk/QlSkNPljMiYrPEeDYNknYDDgBmbeBx/wa2jYhaBxVVxehClA75V1V//zRlSuI9wD29eI+EpB0oR+ravGvhOcqtnftExJMt5vESkmYGFqH8+5n8tRgwL+XT/d3V1z3VX+9re8F/sawCoFeMr+u4hPWParvyemDOpJBPUppy/pUUz2agui3uOMoP17pNAD4fEQdlBKsWhfHAesC6lMFT8zNyo9yjlIXiX8A5wGltHTOVNJ4yOnetNp4/hTOBz/i4bX1cANjAkXQ2ZYsuy2cj4geJ8WwEkhYBjqfcLtiEXwM7RcSYm74kzQa8B9gWWJu85ribKe+ITwMuq/vTo6QFgH2AnWi3QfxvlD9zv2sxh6HgAsAGStXlnXkd7VXAGhExMTGmjUK1dX4AsFtDj7wO2CoibhvNN0uan3Il8a7Uv1txP6VH4nsR8Xhm4GrX4hOUV7nzZsYeoycpBciBEfFci3kMDRcANjCqH8i3AAskhZxImcL1l6R41gFJ76UsflmvdGbkUeC9M/r0WY2V/gplAE4TOU3pQcoieUjGIilpPcp2//LdxupCAL8C9oiIe1vMY+h4DoANkgPIW/yhfBLx4t+yiDgGeDPwjwYe90rgdEl7VdPhXqBiZ8qdEjvT/OIP5ff3D4BbJO3w4hxHS9Liko6n3JbX5uL/Z2CtiHifF//meQfABoKk9YFzE0PeTmn8a2oQiI1A0ryUT4obN/TI31F2Ax6VtCTlIqN1Gnr2aP2FcunRDSN+JyBpTspxui/STgEz2QOUXZQjeq0zfpi4ALC+J2kOyvvbzCtgN4mIsxLjWYLqYp+vA1+lmRG0twG/AT5PuwvmjDwB7BARZ8zomyS9mzLBb/FGspq2CcBPKPfae3ZMy1wAWN+TtA/l00SWYyNi+8R4lkzSppQLhV7Zdi49YhLwxYjY/8X/h6TlgR8C6zee1dTOo0zxu7HlPKziAsD6mqQ3ULZBswbHPEIZ93tfUjyrSbUtfxK50x773VGUy6qeq16Z7E3p8J+5xZzuoMxaqP1yGxsbNwFa36oaoA4jd2rcHl78+0NE/B1Yg7JFb8UHgXOriYq3Uo5QtrX4P0254GZZL/69yTsA1rck7UJ5n5jlImDdtmaNW+ckfQb4HjBL27kYACdSPvXf0XYiNn0uAKwvVZPibgbmSQr5HLBiRNySFM8aJumtlBHCC7edyxC7kfKe/7y2E7GR+RWA9auDyVv8Ab7jxb+/RcRFwMrApW3nMoQeBT4NrOTFv3+4ALC+I2kzypWcWW4Bvp0Yz1pSXe+7Drmvhmz6JgGHA0tFxEERMaHthGz0XABYX5E0N/DjxJBB1TWdGNNaFBHPR8SulIa4nrtmd4BcQhmV/bGIeLDtZGzsXABYv9kHeHVivCOqrWMbMBFxNOU2wdtbTmXQ3AO8jzLC989tJ2Ody2oCPJLSRNW2fSLirraTsHpIWhW4jLzC9T7KEaVHkuJZD5I0H+W6341aTGMC5ffbvdXXbJQbBMcB89PMVMNuPQccSPk5+2TbybRJ0v8AbwReVX0tMsXfvwp4CrgbuKv6mvz3dwI39Mr446wCYF6PdbQ6SZoFuBJYKTHs9hFxbGI861HVCOFvAHvS3GL7b+B04BTg3Ih4djq5zQdsBmwJbAi8rKH8xuJ3wGcj4m9tJ9KG6vfPGpT/TpsBb+gi3APAqZQhVue2+frRBYD1BUm7A/slhjwrIjZJjGd9QNIWwC+AV9T4mLso9xUcHRETx/ILq+l9XwI+BcxRQ25j9TfgMxFxZtuJNK0aNLY5sBWwCbk3jU72GHAGpRg4KyIa7VlxAWA9T9JrgRvI+2T0FOWmv9uT4lkfkbQ05QduN5/ipmUC8DXKNdLPdBNI0mKU6623zUisA08C3wR+MIwNspLeQTkZNL7Bx95DKRyPHGvh2Ck3AVo/+Am526Jf9+I/vCLiVkoBkOkRYKOI+E63iz9ARNwVEdtRdgOafF8cwDHA0hGx37At/pLWkHQ+cBbNLv5Q+kEOB66V9M4mHugdAOtpkranNHBl+Qvl6FIjFbb1Jkk3AcsmhbudsvjfmhRvKtXci+OB2euIP4WrKVP8Lqn5OT1H0jLAdyl9GL3ifGD3iLi6rge4ALCeVb0PvQVYKCnkRGCNiLgqKZ71IUnLUUbWZngCeHPdV9xKeh+ld6EOD1Cu0z6iV7rTmyRpa+BoYK62c5mGAL4FfK2OO0r8CsB62ffIW/wBDvbib8C7k+JMAnZo4n77iPgluU2wUHoWDqJs9x8+bIu/ir0puyu9uPhD+ZD+v8BxkuasI7h3AKznSFqHsgWWdWTrX5TGv6E+v2wg6TpghYRQB0bE5xLijEp1FO1yYJWEcPcAGzZRvPSiaqLoL4B3tZ3LGFwFbFGNu07hAsB6jqTZgWuBZRLDbhYRZyTGsz5UnQD4a0Kox4AlIuLhhFijJultwDkJoR4F5hvGq6+rU0WnAcu3nUsH7gY2z5rA6FcA1ou+TO7if4IXf6tskRRn36YXf4CIOBf4v4RQrwSWTIjTVyS9CriQ/lz8ARYFLpa0dkYwFwDWUyQtSykAsjxGGapiBjmF5XPkXkg1Vt9PirNaUpy+IGkOylTGzLtE2vAy4ARJr+k2kAsA6xnV5K1DKXPSs3wpIu5NjGf9resfmsB5EfF4QpxOnU8pbLu1akKMfnIksHrbSSRZCDi528ZAFwDWSz4KpGxtVS6hFBRmk2UUACcnxOhYNZwnYzTv0gkx+oKkrwHvaTuPZCsDR3QTwAWA9QRJC5N7zOl54GPD2ORkM5Sx/XteQoxuZeQwX0KMnidpW2CvtvOoyfaS9uj0F7sAsF7xQ0pjUpZ9h/WIk02bpAXIGSl9d0KMbmVcez7wBUD1weII+uO65U59pzo2PWYuAKx1kjYBtksM+TfK9CyzKWVs/z/a9I1t05HR1zJvQoxetzcwd9tJ1GwmYP+qh2pMZqkhGbNRkzQX5bKfTB/PuJDFBk7GFcD/ToiRISOPeRJi9KzqRNFHG3rcY5Si7B7gcUqT3jhgEeq/wwHKcKitgRPG8otcAFjb9gYWT4x3VEScnxjPBsdDCTFenhAjQ8an2kEf3rYfMHNNsScCF1OOFZ46vdtFq0/la1AmDm4JLFVTPgD7SDp5LBedeRKgtUbSeOBK8v6QPgAsGxEZP+htwFRDYLrdOp8AzN723PxqEMxFXYa5NiJWysin10haj3qaNQM4FvhKRPxzrL+4et25L/UNItopIn422m92D4C1QtLMlLuvMyv0z3nxtxl4MCHGLMCCCXG6NS4hxiDPx9i/hphXAatFxA6dLP4AEXEmsBLl1UQdsyT2qgYejYoLAGvLp4A3JcY7OyKOSYxnAyYiJpCz7d0LY2QzLjNKu1Sml0halXJGPtMvgbUzbhONiIkRcQRlKNHfus5saosCHxztN7sAsMZVIyy/mRjyaWDnxHg2uB5IiJF1n0A3Nk+IMag7AFslx/tSRLw/u7E4Im6hjGPO7lka9T+/CwBrw0/IvX9774j4R2I8G1z3J8RotQCQtATeAZiRzCt+fxAR+ybGm0rVO7clcHNi2HUkjerEiwsAa5SkbYB3Joa8DjggMZ4NtssSYrwm6za2Du2YFOeOpDg9Q9Jy5N0keg7whaRY01XdK7EZkHW75GzARqP5RhcA1hhJrwQOSgw5iTLud0JiTBtsf0iK08qgKUnzAZ9PCPUscEFCnF6Ttf3/GLD9WI7UdSMibgN2SQw5qldELgCsSd8FXpUY7ycRcXliPBt8F1F6mgZgvAAAIABJREFURrq1tqRNE+KM1Z7kDPA5NyL+kxCn12Rt/38nIjJOjYxaRBxHORadYZPqpNUMuQCwRkhaE/hYYsi7KT8MzUYtIjI/+X5fUmPT9Kq5GZ9MCndaUpyeIWl+crr/76TcTdKGLybFmQ9Yc6RvcgFgtZM0G3AYuRdyfDIinkiMZ8Mj6zXAUsBxo/mk1S1Ji1AW7YyxsgGcnhCn12Tc9QBlZ7GVUeLVFNNrksItO9I3uACwJnwRWC4x3ikRcUpiPBsuWQUAwIbk9rW8RHVfxqnAYkkhr4qIQTwBsGhSnLZ3R7J+ti080je4ALBaSVoa+EpiyCfI2wa1IVSdv87sHfmEpGMkpV/6Us3M+BOwamLYthe4umQUSLdFxE0JcbpxclIcFwDWukPJvQ1rz4johfvYrb/tlRxvR+D86r6BFJLWojSFrZgVE3gKOCIxXi/JKAAuSIjRlYi4jpyLq0b8vegCwGoj6UPAuokhLyf/6mAbQhHxe+CK5LBvBv4q6X+rbfuOSPofSb8ELqRcK5vpwIgY1AmAGQXAXQkxMmTk4R0Aa4ekBcm9kGMC5cx/q7ew2UDZu4aYr6CMuf67pK9Ug2lGJGlmSetIOgT4K/Be8n8+P0i5IndQZRQAvVIcZeQxYgEwS8JDAN4mqdszpRdGRMb5XOsNB1KOomTZv9oaM0sREWdKupLc9+uTvQrYh3JH+98ojYd3UH6w30uZ1rYI5Va/pYFNgAVqyGNK+1RT5wbVqMbfjuDfCTEyZOQx4q2VWQXACQkxXgvcnhDHWiZpQ/LGlQLcBnwjMZ7ZZHsDZ9T8jKWqrzb9Ezik5Rzq9lhCjLkTYmTIyGPEY9J+BWCpJM1J/g+aXbw7ZHWIiN9RrnoddHtGxHNtJ1GzRxJijEuIkSEjjxH7CFwAWLavA0skxjsmIs5OjGf2YjsD17edRI0Oj4hj206iAY8mxFgkIUaGjDxcAFhzJL2RnItKJnsI+FxiPLOXiIingK2BQXw/fjGwa9tJNCSjAHhDQoyuVOOlGznR4ALAUkiaCTicvL4SgC9ExAOJ8cymKSL+Bnyo7TyS3QFsHRHPt51IQ25PiLGupJcnxOnGJsCsCXFcAFhjdgVWS4x3fkQclRjPbIYi4iRyj6626T/AFkNWQGfMdZiNMt65TVsmxRlxYJoLAOuapMXIvR/9GeDjifHMRutLwM/bTqJLk4D3R8S1bSfSsGspPzu6tUNCjI5ImpeyA5DhjpG+wQWAZfgRkLlttk+1JWvWqIiYGBEfoTSz9qPHgU2r3YyhUr3q+HNCqK0kZe5mjsWXyTkC+AhljPQMuQCwrkh6F7BFYsgbGexpZdYHIuIbwAeBfnp/fhuwRkSc1XYiLcq65KnxV0HVTupuSeF+FxETRvomFwDWMUmvAA5ODBmUcb/99EPXBlREHE3Zju2H0wHnAatFxM1tJ9Ky05PirC3pg0mxRiRJlJ+lcySFHNWNgi4ArBvfJu8OboBDI+KSxHhmXYmIc4C16O05AYcAG0XEw20n0gMuAO5MinVIg68C9iav+e9p4Pej+UYXANYRSWsAuySGvJfSgGXWUyLiemA8pTH1/pbTmdI1wIYR8YnRbPcOg4gI4NdJ4eYATpaU+SHnJSS9B/hqYsj/q2ZbjMgFgI2ZpFmBw8j9/fOpiMiY5W2WrmoOPIwy038/4NkW0/kX8H5gZU/JnKZjEmONAy6TtEpizBdI+hy5+cIot//BBYB15gvAConxTo+IjAulzGoVEY9HxBeBZSmXoEWDj38E2B1YOiJ+WX3atReJiBsYRQf8GCwGXCzpvVkBJc0p6RfAAcDMWXEpO1QnjjoPmv0NPCOvjYjb207CZkzS6yjvQ+dMCvkksFxEZL23M2tM1bm9FWWU8Frkf6h6GjgbOAU4OSIyxt0OPEkbMcr34GN0DrB7RFzTyS+uJqa+l3JV9KszE6vsEhE/HXU+uACwMZB0NvD2xJCfiYgfJsYza4WkhSiNXFsB69P5ONeHKVcUnwL8YbTvc21qks4H1q0hdAC/AX5BmVg64i2LkhYENgM+BaxYQ04ANwNvHEs/SFYBcAMwscsYm0TEPQm5WE0kvY/ymz7LVZRzy93+3jHrKdWFLktRTslM/ho3xd8/D9xDGdc6+eseyvz2G/xnonuSVgcuq/kxjwNnURoy76X8N3wcWIj//vdeB1iT3K3+adk8IsZ0DDKrAJjXW1ODTdL8wC3AAkkhJwKrdLqVZmY2EkmnA5u2nUcDLoiI9cb6i9wEaKN1AHmLP8CBXvzNrC5Vf0ZbI32bFJTG7DFzAWAjkrQ+8IHEkLfTv7PWzazHSZqDchxuobZzacCeEXF1J7/QBYDNUPUH6dDksLu4scnManQIUMvZ/R7zi4j4bqe/2AWAjeSrwJKJ8Y6NiDqO55iZIemTlIucBt0fgZ26CeAmQJsuSctTrtfs9DjTiz0CLBsR9yXFMzN7gaS3AucCs7SdS83+CaweEQ90E8Q7ADZN1e1Uh5G3+APs4cXfzOpQNf0dz+Av/o8Dm3W7+IMLAJu+nYE3J8a7CDgiMZ6ZGfBCr9JJDH7T3x3AOhFxY0YwvwKwl5A0DrgJmCcp5LPAShFxS1I8M7MXSDqSwX/vfwGwTUQ8mBXQOwA2LQeRt/gDfMeLv5nVYUia/n4MbJC5+IN3AOxFJG0GnJYY8hZgxdHMyzYzG4uq6e8ccnuVeslzwCciopbXp94BsBdImptSaWYJ4GNe/M0s2xRNf4O6+J9JGZdeW++UCwCbUvYVlUdExMWJ8czMkDQ79TT9PUxpWG7TZZRGv3dGxPV1PsgFgAEgaVVgt8SQ9wF7JMYzM5vsp8CqyTEnAttFxDrA2kDTA8tuBt4VEW+OiEaKEBcAhqRZKGf+M38/fCYiHkmMZ2ZWZ9PflyLiHICI+GNEbAy8iTJWuOsz99PxEOWK9a2AFSLilJqeM01uAjQk7Q7slxjyrIjYJDGemRmS1qZM+st+739sRGw/g+fODKwPbAesByzRxbNupTRanwZcEhETu4jVFRcAQ07Sa4EbgJclhXwKeENE3J4Uz8xsctPf1eS/978WeMtYLiiT9EpgPLAysBQwHzB/9TUnZcfgXuDfU3zdC9waEX9Pzb4LLgCGnKTfAxslhvxCRByQGM/MhlzV9Hcx+e/9H6J02t+eHLcvuAdgiEnantzF/y/ADxLjmZlBfU1/7xnWxR9cAAwtSfOSu1hPBHZq832WmQ0eSbtST9PfFyc3/Q0rFwDD63vkvks7OCKuToxnZkOuavo7sIbQv/GrSvcADCVJ6wDnU/77Z/gXpfHvyaR4Zjbkamz6uwZYcyxNf4PKOwBDpmqmOZS8xR9gVy/+Zpalxkl/D1GG7Qz94g8uAIbRnsAyifGOj4gzEuOZmR1CfZP+bk+O27f8CmCISFqWsv01W1LIx4BlI+LepHhmNuSqpr8f1RDaR5RfZJa2E7CRVbf0jQMWqf46+e8nMfWQiX8Dd0fE49OIIcrWf9biD6WL1ou/maVw01+zvAPQg6rmly2ALYE1gLnH8MuDMtnqbMo92RdHxNOSdqLM+8/yJ2DtiMj4/WNmQ676uXcVsHBy6Gsok/6eTo7b91wA9AhJb6As+FtSLqDIatJ7FvhjFfOVSTGfB1aKiJuS4pnZEPOkv3b4FUDLJL0D+A6wUk2PmB14W3LMfb34m1kiN/21wAVASyStBuwLrNtyKmN1K7BP20mY2WComv4+VEPoPSLi3BriDgy/AmiYpKWBbwHvbjuXDq0fEee3nYSZ9b8ar/f9dUTsmBxz4HgOQIMkfRW4kf5d/I/04m9mGaqmv+PJX/yvAT6aHHMgeQegAZLmBI4Etms7ly48ALw+Ih5uOxEz629V099FwGrJoR8C3hQRdyTHHUhZPQDzlGPmrXui126jkzQOOBVYpe1cuvRZL/5mluQQ8hf/icC2XvxHL6sAuD0pTrfGU7Z/eoKkVSiL/7i2c+nS2RHxq7aTMLP+V3PT33k1xB1Y7gGoiaQNKFtc/b74Pw3s3HYSZtb/apz096uI+H4NcQeaC4AaSHo9pbllzrZzSfCtiPhH20mYWX+TtCj1NP39BdgpOeZQcAGQTNJ8wOnAPG3nkmRdSf59YmYdm+J63+wxvw9Srvf1mN8O+Ad7IkmzACcAS7adS6K3U64QNjPrVF1Nf9u56a9zLgBy/QhYr+0karCXpHXaTsLM+o+kT1BP09/ubvrrjguAJJI+BHy87TxqMjPwa0kLtp2ImfUPSWsBP6gh9K8ioo5mwqHiAiCBpLmAb7edR83GAb9Ujwx8MLPeVjX9nYCb/nqWLwPK8XngVQ0852bKzIV7gHspn8wXoSzOSwJL1Pz8jYCtgBNrfo6Z9TE3/fWHrFHAvWJ8RDQ6CEjSQsBtwNw1PeJC4GTglJGaXSQtB2wJbEN91wtfS/n3PEi/b8wskaQjgA8nh50AbOj7SPL4FUD3vkY9i/9lwNoRsW5E/HA0na4RcVNEfDsixlM+qd9SQ14rAlvUENfMBkDV9Je9+EOZ9OfFP5F3ALogaUngJnLfcT0J7BQRx3YbSNLMwK7A/uTm+JeIWDkxnpkNgKrp7zzy3/sfExHvS4459LwD0J3dyf2N/k/gzRmLP0BETIyIg4ANKLdkZRkvabPEeGbW52ps+vsz8LHkmIYLgI5V3fCZW+HXAKtFxA2JMQGIiAspQzjuTAz75cRYZtbHam7628pNf/VwAdC5Ncj7zX4fsHlEPJgU7yWqef6bA08lhVyjaoA0M/sJ+ZP+JuDrfWvlAqBzmyfFeZZyrCXz0/k0Vf0R7yen70OUY4FmNsRqbPrb3U1/9XIB0Lms7f/9IuLSpFgjiogTgWOSwrkAMBtiNU76OyYi6ohrU8g6BTBvRDyaEKcvSFoKuDUh1P3AkhHxREKsUZP0Gkr+s3cZ6gFgYc8EMBs+VdPf1eS/9/8zsJbf+9fPOwCdeWdSnG82vfgDRMS/KBcXdWtBwMcBzYZMjU1/D+BJf41xAdCZpRJiPAscnRCnU4clxXlbUhwz6x91Nf1tV31AsQa4AOjMuIQY57Xx6X+yiLiVcrdAtxZPiGFmfaLGpr8vuOmvWS4AOrNIQoxTE2J0KyOH7C1AM+tRNTb9/TIiflhDXJsBFwCdydgBuCQhRrcycnABYDYEPOlv8LgAGKNqAmDG1b/3JMTo1r0JMVwAmA24Bpr+nkmOa6PgAmDsFqD7Cvg54OGEXLqVUYS4ADAbfHVO+nPTX0tmaTuBPrRAQoyHeuTsfMbo4VdImj0ink2INXQkzQ+sCqwEvIxSlM9c/XXy3z9BuSvimoj4Z0up2pCStAv1Nf1dUENcGyUXAGOX8cl9voQYGTLymAA8nxBn4FXXM69B+SQ1+WuJMcZ4lKoYAP4C/CEi7ktO1Qx4oemvjuY8N/31AE8CHCNJM1HO8HdbPM0fEa2+BpC0MmWSVzfuiohXZ+QzqCQtAHwU2AV4TXL4CcDvgCOAMyNiYnJ8G1I1Tvq7mjLpz+/9W+YegDGKiEmU2/u6lXGSoFsZOdydEGMgSVpF0lHAXcB3yF/8oRSiWwCnAXdK+o4kF2TWlarp70Tqafrbyot/b3AB0JmM5rnshppOZOTgAuBFJK0u6TLgSuADdH/nwmgtAnwJ+Kukr0qao6Hn2uD5MbB6ckw3/fUYFwCdySgAsm4T7EZGDi4AKpJml7Qv8Cfyf3iOxZzAN4AbJWVdW21Domr6+0gNoT/vpr/e4gKgMxnn5zeQ9LKEOB2R9FrgjQmhXAAAklalDDTZg9K53wuWAE6VdKakXnjlZD1O0prU0/T3i4g4qIa41gUXAJ25LSHGnMAOCXE6lVXh35kUpy9Jmk3St4FLgeXazmc6NgaulLRK24lY76px0t/VwMeTY1oCnwLogKRlgZsSQt0NLNX01ZeSFgH+Tjl33o0AxkXEv7vPqv9UOzhnAOu1ncsoPQ18OCKObTsR6y1V09+F5L+6egB4U0QM9QeFXuUdgA5ExM2UBbRbiwKfSYgzVnvR/eIPcNkQL/5zUY7f9cviD2XX6TeSvlmNtDabrK6mv228+PcuFwCdy7rN7yuSVkyKNSJJG5G3/X9KUpy+MsXiv27LqXTqf6nnRjfrQzU3/V1YQ1xL4gKgc1kFwFzAaZIWSoo3XZJeD/yWvCa1k5Pi9A1JcwNnAuu0nUuXPiXps20nYe1y099wcw9Ah6qxrvcB8yeFvBR4R0Q8nhRvKtV7/wuBpZJC3hQRb0iK1RckzQacA6zddi5JJgHbRcQJbSdizaua/q4i53bTKV0FrO1hP73POwAdqkaunp4Y8s3ApZJelxgTAElvogylyVr8YTi3//dicBZ/KH/+f1l9CrQhMsWkv+zF/3486a9vuADozv5A5uz15YDLJb0jK6Ck9wMXUxoOszwH/CwxXs+TtBrljP+gmQM4UdK8bSdijapz0p+b/vqEC4AuRMSNwNHJYecHzpJ0lqSOB/VIWk/S5ZT85kzLrvjRMF1LW43UPYreGfCTbWFgv7aTsGbU2PT3OTf99Rf3AHSpeo/2N/IXWSjvaE+nNNudEREPjSKXLYBtqa9J7VHgdW3fZNgkSfsBu7edR80CWDciLmo7EatP9brnfPKH/RwdER9Mjmk1cwGQQNJ3KJew1GkicAVwO+Uugnspn0gXodzqtyQwnvLftE67R8T+NT+jZ0h6M/BH6t8te5wyMe1q4D9T/O+LACsCK5Azu2FG/gqsGBHP1vwca0E1Dvpq3PRnFRcACSTNQxkPnHUioFfdASwzTAuEpCuBukboPgocWX3dEBHT/bMoaSbKO9uPUXZ46ioG9oqIvWuKbS2pcdLf/cAqfu/fn9wDkCAiHqN0iA+6PYds8V+Nehb/B4CdgUUj4nMRcf2MFn+AiJgUEZdGxIcoDZ17AXX8t/i0pDpeZ1m7POnPXsIFQJKI+BHwq7bzqNEREfHrtpNo2CdqiHkKsHxEHBoRT3USICIerT6lj6dcPZxpXtq9pMqSSdqZepr+Puuekf7mVwCJqm7xC2j3Lvg6XAhsEBHPt51IUyTNR7msaY6kkJOAXSLisKR4AFQz/Q8Gdk0Me01EjE+MZy2psenvqGo3yvqYdwASVU0wWwJ3tZ1LotuArYdp8a98mLzFP4CPZC/+AFF8Evh+YtiVJK2VGM9aUDX91XG975XALskxrQUuAJJVt+NtDnS0vdtjHgM2G+n44aCpPlXvnBhyl4g4KjHeS0TE5ynvebPU8frDGlKNrT4JT/qzGXABUIOI+AvwXqCfPzU/T5nqdXPbibRgXSBrJPMxEXFoUqyRfB64ISnWxtXJA+tPdTb9DdIO51DzH/CaRMTJwAZAP356fgB4e0T8X9uJtCRrNv6/gU8nxRpRdULjfZRRzd16JbBSQhxrWNX099EaQrvpb8DMkhTnOkmTuoyx1qBVlhFxYXWU7HTKnP9+cB2weUTc0XYiLVo1Kc6nmp6YGBHXSPoR8LmEcOsBf06IYw2pmv7quIb3qOqkkw2QrFMAGV4bEbe3nUQdJL0COBbYuO1cRnAS8P6I+M+I3znAJN1Nma7YjTuB/4mIbgvjMZO0DHBLQqgzImKzhDjWgBon/V1JmfQ3NDNAhoVfATQgIh4HNqN0avdKwTWlAPYG3u3FX+PofvEHOLKNxR8gIv5KGV/crbUlDeoFSAOlavqr83pfL/4DyAVAQyJiYtWpvSpwTtv5TOFsyijPvUaaRjckMib/BfDzhDjdOCIhxjzAqxPiWP1+DKyRHPN5yoeCgXo1a//lAqBhEXF1RGwAbEi771evpjT6bRgRfs/7Xxm9Grf1QA/FiUlxFkiKYzWpuenv4hriWo9wAdCSiDib8mlze8qwnab8HXgPsGpEnNvgc/tFxiU71ybE6EpEPEE5zdEtFwA9rMamvyMjInOuhPUgFwAtqqa4HQssDawF7E9ZoLP9E/gh8HZg2Yj4rbf7pytj+l/rBUDl9oQYLgB6lCf9WbeyjgFaF6pmsT9VX7tLegNlpPCWwJsopzXGFBK4AjgNOC0isobDDIOMAuDuhBgZbqf7I40uAHpQjU1/9+Gmv6HhAqAHRcSNwI3AtyTNCixM6UxfpPrr5L+fBNxLGTgz1V/9B7hjGQVAr/y5yihE5kuIYYCkWSgDlp4BnomICV2Eq6vpz5P+hkiv/KCy6agu4bmLwbpgqJdlFADZW7KdWjghxhslLe9dpNGTNDtlnPQKlJHSk79ewxQ/cyVNoBQDT1Fe/f2F0hj8Z+DG6V3A5aY/y+ICwGxqGZeczJ0QI8PSCTG2ALaQdBdwVvV1TtVkaBVJCwHvpFwEtgEw1yh+2SyU3ytzAwsBb5ni/3tO0lXA0cCx1SwRJL0FN/1ZEk8CNJuCpD2AfbsMc3xEbJuRTzckPQ68vIbQz1P6Vc4CzoqI62t4Rl+QtBmwB2Xxrqup+ingeMqkzkPJf+9/BfBWvzYcPi4AzKYgaSu6P0N/d0QslpFPpyQtAtzT0OOm3B04d/Kn1UFVXRe9BfA1YHzL6XTrPuBNEdErjavWIB8DNJtaxjHMRSUtnhCnG9kNYjOyGLAT5RPqg5LOl7SHpBUazKER1Sf+a4CT6f/Ff/KkPy/+Q8oFgNnUsoYyfTApTqfqaBIbjVkpDXD7Um4JvVPS4ZK2qi7F6kuS5pL0c8rR2je2nU+Sz0RExp0R1qf8CsDsRSTdQzlm2Y17gcWn18ldJ0mvoQx/6rUC/3ngEuBM+qh3QNIqwK+BpdrOJdHPI+IjbSdh7eq1HxBmveCChBiLANskxOnEp+jNP9uzAuvw392Bu3p5d0DFFylFyyAt/lcAn2g7CWtf1g7AW4FujwXdFBHPJeRi1pWkRkAouwDLR8TDCbFGpfq0ein9d8R3AlOfLLiuzWQkzQT8DPhQm3nUwE1/9oKsAmDeiHg0IY5Z6yTNSblIZzRnuUfy24h4T0KcEVXjYa8Glm/ieTW7G/g9pSA4u8mTBQO8+D8PrO/3/jZZL24TmrUqIp6mvKfOsJ2kjyXFGsnBDMbiD7Ao8BHKZTcPSbpA0hcl1dqAN8CLP8CnvfjblLwDYDYNkrYFfpsULoCPRsTPk+K9hKSDgU/WFb/HTLk7cE5EPJYRtDrffwSDufgfERFtnQyxHuUCwGwaJI2nzGTPEsDOEXFYYszJF8z8ANg1M24fmUBp0pvcO9DxVcySdgf2y0qsh1wOrONJf/ZiLgDMXkTSe4DDqGeM7gnArhFxf7eBJC0H/IJyZbQV91B2B85kDLsDklYGLqN3LnLK9FZf8mPT4gLArCJpDuBAYOeaH/Ug8GXgV1W/wZhIWpByjOtL5NxeOKhGtTsgaS7Kbk/G5Um96LyIeFvbSVjvcQFgBkhaCjgOWKnBxz4K/BL4OXBdREya3jdWV8yuTpnwty0weyMZDpbJuwOTTxY8BiDpZ5SGw0H24Yg4su0krLe4ALChJ2k74HDq2fIfrf8A1wPXUs5qz1R9vRxYjTJ3frYGcngZ5efCoJtAmZdwI/Xv+PSCR4BlI+K+thOx3uECwIZW9an6BwzHAjCSicBalBHC7wA2BjYE5m0zqQFwF3ARpRHvCsrrn+err3mBFSm7TqsDa1Nv8XVcRGxXY3zrMy4AbCi1tOXfy74VEf875f8gaWbKrYIbA5tQ/l0Nw+5AhnMpcxlOn9GrnSlJeh3wMcpFUgvVlNcqEXF1TbGtz7gAsKHTI1v+veQaYLWRLi6S9CpKMbAxsAHwygZy6zc3AR+KiCs6DSDpZcC3KXc6ZBdcv4yI9yfHtD7lAsCGhrf8p+lZyqfCG8byi6r5A2/mv7sDK9aQWz+ZBOwPfC3rvL2ktwJHAa/NiFd5DniNewEMXADYkJC0JHA83vKf0vPANhFxareBJI1j6t2Bnrvdr0aTgA9ExDHZgatdl/OB1yeG/XpEfCMxnvUpFwA28LzlP00TgPdERMath1OpdgfW5L+7AytkP6OHTKIcsTu6rgfUUAT8G1jct6+aCwAbWNWW/4HALm3n0mMmAjtGRNZdBzMkaTHKyYJNgLczWIXYlyPiu3U/RNKrgevI67vYKCL+LymW9SkXADaQqi3/4yjn5+2/atuuHg1Js1KOG05+XdDPtxdeDqwZERObeJikHYGs/277RsSXkmJZn3IBYAOnusnvcIbrPfRoTKTcSnhU24lMVn2ynfyq4G3A3O1mNGrPAuMj4uYmHyrpRGCrhFBXRMTqCXGsj7kAsIHR0pb//wF/APamtxevv1I++V/ediLTI2k2yu7AJpSiYLl2M5qhQyLiE00/VNLrKUcNuz0eOBGYLyIe7z4r61cuAGwgtLDlPxHYC/h2REyS9BrgUMq77l4yCfghsGdEPNN2MmMhaXH+uzuwPjBXuxlNZYWxHp3MIukPlCmN3dosIs5IiGN9aqa2EzDrVrXlfzXNLf73Am+LiH0mT3mLiH9FxMbAB4CHG8pjJLcB60bE5/pt8QeIiDsi4qcRsTkwP+V44YHALe1mxkVtLf6Vg5Li+BXAkHMBYH1L0uySfgL8lube958NrBQRF07r/4yIXwDLUmYOtOUJ4ABgxUG5Bz4ino2Ic6piZllgCWBX4AzgqYbTOaHh573YuZQZDt1aJCGG9TEXANaXqi3/S2nuff9E4KvAOyLi/hl9Y0TcHxHbAm+kzIN/pIH8oLzn3w1YNCK+EBH/aei5jYuIf0bETyJiM2A+YCPKq45bG3h8E8+Yrmo359qEUAsnxLA+5h4A6zstdPnfC2w/vU/9I5E0B/Bu4KPAOpmJUd7xn0kpNM6OiIw/z31N0hL8t5FwPWDO5Ee8LiL+kRxzTCT9GOi2CfGqiFg1Ix/rTy4ArG9UXf7fp/sffGNxNvDekT71j5akpYF3UXYH3ggsA8w6hhCPU/odrqy+Lo2IuzNyG0RV8bUupRjYlPLqoBvPA3M2dfZ/eiTtAezbZZg7I+I1GflYf3IBYH0Y12/bAAAQiElEQVShuir1eFrq8q/rIdXRt9dTioHlKMXA81N8Taj++m/gKuBWf8rvjKT1gPO6DPP3iFgqI59uSPoC8L0uwzwbEXNk5GP9aZa2EzAbiaRtgJ/RJ1v+Y1HNY7+u+rJ6PZkQY96EGBkyitKmmyetx7gJ0HpW1eX/Y8r5/p7o8re+lvGqZH5J8yXE6VbGJ/d7EmJYH3MBYD2p2vK/hObe94+6y9/61n2U/87dWjohRrcy7lC4NyGG9TEXANZzqi3/PwMrN/TIe4G3TznYxwZP1bh3X0KoXigAVkqI4R2AIecCwHpGy1v+FzT0PGtXxmuAVgsASXMl5eAdgCHnAsB6Qktb/l/DW/7DJqMAeFtCjG5sC8ycEMc7AEPOBYC1rsUt/296y3/o3JkQYw1J70yI06mdk+LclRTH+pQLAGtNteX/I7zlb83pdg7AZPtI6vZK3jGTNB5YLSHUROCChDjWx7IGAZ1EzuUU3fpiRNzRdhI2smrL/zia+9Q/Edgb+JY/9Q8vSS8DHiRnPPB7IuK3CXFGpSo4zidnnPQFEbFeQhzrY1kFQK8YHxHXtJ2EzZikdwNH0Oxgnx38qd8AJJ0GbJYQ6lZguabGAkvaFfhRUrjPRMQPk2JZn/IrAGvMFFv+x9Pc4n8O3vK3qZ2WFGdp4GeSav85Wt0h0e3s/ymdkhjL+pQLAGvEFF3+uzb0yMld/hu5y99e5HRyRukCfBA4WlJGV/40VVdfnwvMlRTyGr8qNXABYA2otvzd5W89ISLuAy5PDPle4Jd1FAHV4n8+sFhiWH/6N8AFgNWo2vI/GG/5W+/5aXK87YHfVE2GKSTtCFxB7uL/LHBkYjzrYy4ArBaSlgD+BHyyoUd6y9/G4hjyb2DcBrhD0p6SOi54JS0q6SRKjtm3Dx4cEf9Kjml9yqcALF215f8zYJ6GHukufxszSRsBv68p/KPAwcAPIuLhUeazBvAp4N3ArDXk9Ajwuoh4pIbY1odcAFgaSbMBB9Dcp34oW/47+lO/dULS2cDba3zEk8BFwDXAtcBtlJ3XWSlX+i4PrA6sASxRYx4AX4iIA2p+hvURFwCWotryPw54U0OP9GAf61o1We9qys/CQXYHsExEPNt2ItY73ANgXZO0NaXLv6nF/9/ABu7yt25FxF+AX7WdRwO+4sXfXswFgHVM0mxVl/8JNPe+f3KX//kNPc8G36eAv7edRI1+FRHDUOTYGLkAsI5UW/6X0Nz7/knA1yld/vc19EwbAlVT3ObA423nUoMrgY+2nYT1JhcANmYtbfm/PSK+4S1/q0NE3Ew5yz9Iv7/uAbaMiGfaTsR6kwsAG7Vqy/8gvOVvAygizgS+3HYeSZ4B3hUR97SdiPUuFwA2KlNs+e/W0CO95W+Ni4j9KAN4+t1OEXFF20lYb5ul7QSs91Vb/kfQ3Kf+f1MG+/hTv7XhQ8BjNHdxVab/b+/uY/aq6zuOv79thXUKBRli0RVhZTLUwoLiwx9TJIoxyoAFiTqNGXPTbIvOBKe4ROJTgJBsGhLFmDmXjNW4pbWYIBq7oYYHp7EyEhc3oDxYHitgQaSUfvfHuTsqAuW+zvc657ru3/uV3Lkbkn6ubxqS87l+55zf7yHg7Mz8l7EH0eyrKgAfoPsfb2y3jj3ANETEQcAa4Lf3+r0S2L7wc89ev+/KzDuKPnc/4CKG+9YP3alnb/dbv8aSmbuAv4yI64CLmc6ufNPwU7p7/t8fexDNh6qNgA7OzPsKcgRExDrgDODNdGeOP2uRETcA3wCuADZn5o4JZjgK+DLw0sX+3QntptvY5xM+6KdZERF/QPfMy6Fjz7IP1wBnZObtYw+i+WEBmAEREcCJdBf9M4C1hfG7gKvpCsGlmXnj05jnDOAfcMlfIiKOADYB68ae5Un8E/BnbvSjxbIAjCgilgHvojvF7ogBPnIX8I/Ax5/oRDCX/KUnFhEr6W51fpDhjrbel/8Fzs3Mr4w9iOaTBWAkEfFG4AK6w0CGtpPutL5P7nlNKCKOpNvL3yV/6UlExKHA3wLvZbxnA+4GPgZckpmPjDSDlgALwMAi4qXAhcBJY89C967wZ+lOKvsMLvlLT8vCMzKfBM5iuIOEfgH8HXDBJM/1SI9nARhIROxP90Tx2Sz9k8eeikv+WjIi4ji6HQRPA144hY/YTfcMz0a6Pf19yE9lLAADiIjnABuAV409y4h20y1beoKflqSIOIauCJxG91DvpEX/l3RFeSOwKTPvqplQ+lUWgCmLiJcAlzHMQ36z6g66b/2bxx5EGkJErKY7K+NwYPXC7z1/Xg08QrdX/zbg9r1+3wZck5kPjDC2GmMBmKKIeBNwKXDA2LOMyCV/SZpBngUwJRHxV8BXaffivxs4D3i9F39Jmj2eBTAFC9/8P027D/u55C9JM84VgGIR8bt0p4m1evH/Ft3xvV78JWmGWQAKRcQBdE/7D/U+/SxxyV+S5oi3AIos7Of/JeDYsWcZgUv+kjRnLAB1zgVOH3uIEWym29XPb/2SNEd8DbDAwgYg1wPLx55lQG7sI0lzzBWAGucxzMX/x8BWHts0ZDmPbTKyFjhqgBnAJX9JmnuuAPS0sNPfj5jeU/9X0j1YuDEzb97HLMfSbUN6JnD8lOZ5BDgqM2+bUr4kaQAWgJ4iYgPdRbfaNcA5mfndSf5yRJwOfAo4pnSqzh9n5j9PIVeSNBALQA8RcQLw/eLYB4B3Z+b6vkERsRz4C+Aias8u/6/MXFeYJ0kamPsA9POx4rybgFdWXPwBMvPRzPwM8Dpge0XmgpdExBsL8yRJA7MATCgijgYqL4JbgBMz8/rCTAAy80q640lvLYx9X2GWJGlgFoDJnVKYdSdwambeU5j5KzLzRuBU4BdFka+NiEOKsiRJA7MATK6qADwMnJ6Zld/On1BmbgHeSc1zHyuYzsOPkqQBWAAmEBHPAF5TFHdhZl5dlLVPmflvdIcVVTizKEeSNDDfAphARLwa+I+CqLuAtZm5oyDraYuINcBPgP17Rj0CHJiZv+w/lSRpSK4ATKZq+f/jQ1/8ATLzFuDigqhnAMcV5EiSBmYBmMzJBRkP050eOJbPF+WcUJQjSRqQBWAyRxRkbB7j2/8emfkTurMF+rIASNIcsgBMpuL1t68WZPRVMcOLCjIkSQOzACxSRKyi5hTFqwoy+qqYwb0AJGkOWQAWr+qCt60op4/bCzKeXZAhSRqYBWDxfqsgYyfws4KcvipKyKqImNZRyJKkKalYygZ4f0T0fRf8s5l5f8k001WxArA9Myv2X+irYuvh5cBK6rYYliQNoKoAfLQgYz0wDwWg4ljdWVk2r5jjocz04i9Jc8ZbAItXsWf//hExCyXg8IKMiucIJEkDswAs3s1FORUX374qZpiFhxklSYtkAVikzPwZ8EBB1IkFGX1VzOAKgCTNIQvAZG4pyPjDgoy+KmZwBUCS5pAFYDIVtwFeFxG/WZAzkYg4ElhXEOUKgCTNIQvAZLYWZKwE3laQM6mzi3JuKMqRJA3IAjCZbxXlnBcRK4uynraIWA38dUHUTuAbBTmSpIFZACbzdeChgpznAe8vyFms84CK2w//npk/L8iRJA3MAjCBzHwQ+GZR3Eci4riirH2KiFOoW/7fWJQjSRqYBWByG4pynglsiojnFOU9qYg4Bvgy3fa9fSWwqSBHkjQCC8DkLgN2FWWtATZGxIFFeb9m4b7/JmBVUeT3MtNXACVpTlkAJpSZ24FvF0a+Erg6In6nMBOAiDgB+E/g6MLYqhUQSdIILAD9/H1x3rHAtRHxhqrAiHgn8B26Bw6r3Ad8vjBPkjQwC0APmXkZcGVx7CHA5RFxeURMvFFPRJwUEdcCX6Lbc6DS+Zl5b3GmJGlAQfcw1yw4MjO3jj3EYkXEy4Br6f4tq+2me9ZgA/C1hdsOTzXL8+i2930L8OopzAPwU+DozKx4DVKSNJKqAvBFuk1h+vjIvi5wsyoi1gNnTfljHgW+R7cL4Ta6LXiXA6vpTvVbC/w+0ykie3t3Zn5hyp8hSZqyqgJwcGbeV5AzlyLiKODHwH5jzzJl/w28ODMfHXsQSVI/PgNQIDNvBC4ee44BnOPFX5KWBgtAnXOBq8ceYoo+lZlfG3sISVINbwEUiojD6O7Trxl7lmIbgD/KzFl5YFSS1JMrAIUy807gzcADY89SaAvwDi/+krS0WACKZeZ1wNvpXuGbd3cCpy4cfiRJWkIsAFOQmZuAD489R087gNMy89axB5Ek1bMATElmXgi8h/77I4xhK/CqzLxm7EEkSdNhAZiizLwEOIlu05558V3gxMy8fuxBJEnTYwGYssy8CjiB+XhF8IvAyZl599iDSJKmywIwgMy8HXgNcMnIozyZXXSb/PxJZs7jLQtJ0iJZAAaSmTsz8z3AmcANY8+zl68Ax2bmRWMPIkkajgVgYJn5r8DvAe8D7hlxlM109/rfkpn/M+IckqQRuBPgiCLiQOAc4E+B5w70sVuAD2XmFQN9niRpBlkAZkBErABOAd5Ft5Pg/sUfcR2wEdiYmT8szpYkzSELwIyJiGcDbwJeAbwcWAesWGTMLuAqHrvo31Q6pCRp7lkAZlxErKR7jXAtcNDjfh6m22Ng28LPnj/f5bG9kqSnYgGQJKlBvgUgSVKDLACSJDXIAiBJUoMsAJIkNcgCIElSgywAkiQ1yAIgSVKDLACSJDXIAiBJUoMsAJIkNcgCIElSgywAkiQ1yAIgSVKDLACSJDXIAiBJUoNWFOWcHBEPFmVJkqQpCyDHHkKSJA3LWwCSJDXIAiBJUoMsAJIkNcgCIElSgywAkiQ1yAIgSVKDLACSJDVoGbBj7CEkSdKwlgFbxh5CkiQNaxnwg7GHkCRJw1oGfGfsISRJ0rAiM4mIK4DXjz2MJEkaxp4C8HzgemDV2ANJkqTpWwaQmbcBZwJ3jDuOJEkawv/vA5CZ3wReBFw63jiSJGkIkZm//h8jXgy8AngZcBzwGwPPJUmSpugJC4AkSVra3ApYkqQGWQAkSWqQBUCSpAZZACRJapAFQJKkBlkAJElqkAVAkqQGWQAkSWqQBUCSpAZZACRJapAFQJKkBlkAJElqkAVAkqQGWQAkSWqQBUCSpAatGHuApSgiDgWe2TNme2bu6DnHwcCqnnPcn5n39sxYMiJiP+DwnjG7MvO2nnMsA9b0nIPM3No3YymJiMOAlT1j7s7MB3vOcQhwQM857s3M+3tmLBkRsRI4rGfMzszc1nOOFcDze86xOzNv6ZlBZGbfDD1ORKwHzuoZ897M/FzPOc4H/qbnHBdk5od6ZiwZEXE88MOeMTdn5gt6znEQ0LuYZWb0zVhKIuLrwCk9Y96amet7zvE54M97zvHhzDy/Z8aSERFvAC7vGfOjzDy+5xwvAG7qOcf9mXlQzwxvAUiS1CILgCRJDbIASJLUIAuAJEkNsgBIktQgC4AkSQ2yAEiS1CALgCRJDbIASJLUIAuAJEkNsgBIktQgC4AkSQ2yAEiS1CALgCRJDbIASJLUIAuAJEkNsgBIktQgC4AkSQ2yAEiS1CALgCRJDbIASJLUIAuAJEkNsgBIktQgC4AkSQ2yAEiS1CALgCRJDbIASJLUIAuAJEkNsgBIktQgC4AkSQ2yAEiS1CALgCRJDbIASJLUoP8DOA4dwQ72QlsAAAAASUVORK5CYII=;" vertex="1" parent="1">
          <mxGeometry x="412" y="355" width="29.5" height="29.5" as="geometry" />
        </mxCell>
        <mxCell id="RO8CWs9kd0AewVBDbx6X-35" value="" style="shape=image;verticalLabelPosition=bottom;labelBackgroundColor=default;verticalAlign=top;aspect=fixed;imageAspect=0;image=data:image/png,iVBORw0KGgoAAAANSUhEUgAAAgAAAAIACAYAAAD0eNT6AAAABHNCSVQICAgIfAhkiAAAAAlwSFlzAAAOxAAADsQBlSsOGwAAABl0RVh0U29mdHdhcmUAd3d3Lmlua3NjYXBlLm9yZ5vuPBoAACAASURBVHic7N153KZj+cfxz9cuSvYM5ZcsETGyFbIUIluE0F6KpJ1Kv4rSQqSohIRSyb5F/eyUXdlJKbJlX7POzPH747xGM8zM8zz3fVzXdS/f9+v1vHjVM8d1YOY5j/u8jvM4BQTdmzciHk2IY2ZmZg2Yqe0EzMzMrHkuAMzMzIaQCwAzM7Mh5ALAzMxsCLkAMDMzG0IuAMzMzIaQCwAzM7Mh5ALAzMxsCLkAMDMzG0IuAMzMzIaQCwAzM7Mh5ALAzMxsCLkAMDMzG0IuAMzMzIaQCwAzM7Mh5ALAzMxsCLkAMDMzG0IuAMzMzIaQCwAzM7Mh5ALAzMxsCLkAMDMzG0IuAMzMzIaQCwAzM7Mh5ALAzMxsCLkAMDMzG0IuAMzMzIaQCwAzM7Mh5ALAzMxsCLkAMDMzG0IuAMzMzIaQCwAzM7Mh5ALAzMxsCLkAMDMzG0ICIiHOncCkhDjd2iQibmo7CTMzs143S1KcVyfF6dZsbSdgZmbWD/wKwMzMbAi5ADAzMxtCLgDMzMyGkAsAMzOzIeQCwMzMbAi5ADAzMxtCWccAzaxDkmYHFgAWrL4m//1zwB3Av4B/RcQTrSVpZgPHBYBZwyQtDrwD2Bh4KzDvKH/do5Ri4J/AWcApEXFfXXma2WDLmgTYK8ZHxDVtJ2E2JUkzA+tTFvx3AMsmhZ4E/BE4ETgpIu5KimtmQ8AFgFlNqoV/e+B/gWVqflwAVwCHAkdHRC+M5jazHuYmQLNkkmaW9F7gRuCX1L/4QynmVwd+Dlwtab0GnmlmfcwFgFkiSTvQ7MI/LSsB50k6VdJSLeVgZj3OBYBZAklzS/ot8CvaW/hfbHPgRkkHSpqn7WTMrLe4ADDrkqTlgCuBbdvOZRpmBT4DXCbptW0nY2a9wwWAWRckvYfSfPf6tnMZwespRcCqbSdiZr0h6xTAW4FeGFLy14h4uu0kbPBVHf4HAru1ncsYPQXsEBGntp2ImbUrqwCYNyIeTYhj1hckHQp8rO08OjQJ+GxEHNR2ImbWHr8CMBsjSV+kfxd/KH/ufyhpj7YTMbP2eAfAbAyqd/6/pvzZ6XcTgQ0j4ry2EzGz5rkAMBslSWsDZwOzt51LovuBlSPi7rYTMbNm+RWA2ShIWho4hcFa/AEWAo6TNGvbiZhZs1wAmI3Oz4D52k6iJm8Bvtd2EmbWLBcAZiOQ9G5g7bbzqNmnJW3adhJm1hz3AJjNgKTZgZuBpqboPQzcVf11YWAx4OUNPft6YMWIGKQbQs1sOmZpOwGzHvdp6l38bwZOr76untYgq2qO/1rAZtXXuJpyWQHYGjihpvhm1kO8A2A2HZIWAv4GvKKG8BcAe0TElWPMScCWwHeBpWvIy7sAZkPCPQBm0/dN8hf/fwKbRsR6Y138AaI4GXgDsCv5I7gn7wKY2YDzDoDZNFTb7veRe+zvfGCbiHgoK2B1E+FpwOuyYuJdALOh4B0As2nbmtzF/3DK1L20xR8gIm4CVqUUF1lWADZMjGdmPcgFgNm07ZgY61Tg4xExITHmCyLiEWAL4MbEsO9MjGVmPcivAMxeRNI44E5yCuTrgbdExJMJsWZI0hLAFcD8CeFujYhlEuKYWY/yDoDZS21Dzp+N54Gtm1j8ASLiH8BHksItLamp2Qdm1gLPATB7qTWT4hwaEX9LijUqEXGqpD9S5gZ0ayPgpwlxzAaKpDmBRauvcVP8/aKUk0P3AfcC91Rfk//+roh4vo2cp8WvAMxeRNJtwBJdhnkSeF1E3J+Q0phIegvwp4RQp0TEuxLimPU9Sa+h9NpsCbyVzj5APw78ntIXdFbVv9MaFwBmU5D0SiDjD+VPImLXhDgdkfQnyiU/3XgCmMfHAW1YSVqRsuBvAYxPDj8BuJhyjPeUiLg9Of6I3ANgNrWVk+KckhSnzee/nMG9AdFsuiStLulC4BpgL/IXfyg7COsBBwK3Sfq5pMVqeM50uQAwm9qKCTEeo4z6bVNWAbJgUhyznidpSUnHAZdRtvmbMhPwIeBWSd+tdiIbeaiZ/VfGEboL2m70qZoP70gItVBCDLOeJmlBSQcDN1FOAbVlTuCLlB2Bz1W3kdbGBYDZ1DKu3r0zIUaGjDxcANhAk7QJ5dKvTwKztpzOZPMBBwBXS8oc8z0VFwBmU8soAO5JiJEhIw8XADawJH2BchX3PG3nMh1vAK6QtH4dwV0AmE0towC4NyFGhow8XADYwJE0m6SjgO/R++vgfMAfJH0yO3Cv/4ObNW2OhBhzJsTIkJHHbAkxzHqGpIUol2d9oO1cxmAW4GBJh0lKe03hAsBsahmDe8YlxMiQkUev9DOYdU3SIpT7MrqdkdGWnYBTJM2cEcwFgNnUMt6bL5IQI0NGHv9KiGHWOklzUI7HLt52Ll3aBNg/I5ALALOpZRQAyybE6IqkWYAlE0K5ALBBcTiwWttJJPmMpK4v/nIBYDa1jAJgjeo9Y5vWJaez2QWA9T1JuwPvbTuPZD+R1NWlXy4AzKZ2e0KMmYDNE+J0Y8uEGI9HxGMJccxaU53z/27bedRgNuAkSf/TaQAXAGZTu55yY1e3dkiI0ZFqethWCaEyJgmatUbSOOA3DO5atyBwnCR18osH9V+KWUciYhI5V+muV9fwjlHYlZwGwAsTYpi1aS/gFW0nUbNVge07+YVZ1wGfBHQ7+3y3iHggIRezrkj6EvCdhFBXAqs3eZ2upHmA28i502DdiHARYH1J0uuBG4CUI3MzcC3l1sB7KT1Ej1MGaI0DFgXWBl5Vcw63A8tExHNj+UVZBUCG17ZxH7LZi0l6Czm7AAAfi4jDk2KNSNKPgU8khLofWKTaETHrO5JOAt5VU/irgGOAU0dat6rt+TdT+nI+BCxQU06fi4gDx/ILXACYvUg1aesucsbgPgesHxFZBcV0Sfoo5ahThkMjYuekWGaNkrQGcGkNof8KfCUiTuzkF0t6ObA78DlgrszEgIeB10XEo6P9Be4BMHuR6irfI5LCTe7UrXX4iKR1gJ8khjwhMZZZ0/ZNjhfA14DlO138ASLiiYj4GmVGxwVJuU02H/DlsfwC7wCYTUN1tOY28orke4AtIuKqpHgvkLQtcCTwsqSQDwGviogJSfHMGiNpdeCyxJD/Ad4bEackxpy803gw8PHEsE8CC0TEs6P5Zu8AmE1DVYz+PjHkOOAiSR11606LpJkkfQv4LXmLP5ThP71yL7rZWGW+938CWDt78Yey01i9ZvtqYti5gbeN9ptdAJhN3yHJ8eYEfi3pdEnLdRNI0obAn4E9UzKb2njgT90MGDFrUcYQLIBJwI4R8ZekeNMUEfsARyWGHPU/v18BmM2ApIuBrsZtTsdEyh/6o4BLRtNtX11msgHwSWDDGnJ6sYeBHSLiDw08y6xr1dG/m5PC7RkRGceBRyRpNuA8YM2EcPcB40b1MwUXAGbTJWkl4Grq3S17ADi9es49lPPEj1BOISxCeX2wNvAO8juHRzKJ0vz07SbnGZh1InGGx3XA+CaPwUpaljKJNGNuwZoRccmIz8QFgNkMSToEGPYjcacB74uIjDHJZrWQdBmwekKod7Sx8yXpZ0DXt/wB34uIPUZ8Hi4AzGZI0vzArZRjNsPsVmCriLix7UTMXkzSgpTt747m4k/hvIgYdSNdJkmLUk4fzd5lqOsj4o0jfZObAM1GEBEPkXtUp18tDVxeHTs06zVL0P3iD3B0QoyORMTdwDkJoV47mm9yAWA2ChFxAvCttvPoAXMBv5W0v6RZ2k7GbAoZF2BNAs5MiNONjCOHc0sa8RIkFwBmo/c14Iy2k+gRnwfOlpQxLtksw7iEGJdGxIMJcbpxOqUQ6daI/z5cAJiNUtURvCNwS9u59Ih1gauryWtmbcvYAfhzQoyuRMR9wN0JoRYd6RtcAJiNzROUY3tWLEaZcOgeCWtbxg7APQkxMmTk4QLALNlHKWfy7b9mA34q6YhqWJFZGzJ2AO5NiJEhI48RC6KsJp7PAU93GeOhjETM6iJpYWC/tvPoYR8GVpS0dUTc0XYyNnQyjuk+lhAjwyMJMeYd6RuyCoAjx3IHsVmf+iHwyraT6NDzlMaibs8Xj+RNlL6A90RExnEms9HK2DZ/dUKMDAsmxLh/pG/wKwCzUZC0MbBd23l06BbgzZRXF3c28Lz5gd9XY1nNmvLPhBhLJMTI0Eg/gwsAsxFImov8mwGbEMCPgJUj4uqIuJLyCf28Bp49M/AdSSdJenkDzzNzATC1EfsIXACYjWxvYPG2kxijS4B1I2K3iHihPyciHqDcJPi9hvJ4F3BFddGJWZ0yCoAlE2J0RdISwKsSQnkHwKwbksYDn2k7jzG4Btg0ItaMiIum9Q0RMbG6KGQb4MkGcno9pQjYuoFn2fDKKACWldR2EbBZUhwXAGadkjQzcDg513PW6Wng15RP9itHxO9G84uq8carAX+tMbfJ5gZOkLRv9e/VLNvtCTFEOerbpowC4MmIGLG4dwFgNn2forwzz3IOZZH+PtDtjXoPUmaGfxxYJCJ2jIizI2JMt3tGxM2UIuDkLvMZrT2AP0haoKHn2ZCIiKcotwF260OSZk2IM2aSXk+ZsNmtm0f1PHKuA57XxwBtkEh6DXAT5fKbDE8DK0TEbVM8YzHK4rs0sFT1tTDleO7kr2coY0Hvqr5uBf4YEanjiCUJ+BKwD818MLgT2LpqTDTrmqTXAReR00C3TbVD1ihJJwNbJoT6ekR8Y8Tn4QLA7CUknQ5smhjyyxHx3cR4tZC0AfAbylG+uj0LfDIiftbAs2xAVad0vkIZSJc15+LvwCoR0dhgIElrAn9MCrdSRFw74jNxAWA2FUnbAMclhrye8m5+QmLM2khaHDiR3NcfM3I4sFtEPNvQ82xASNqBMp1zxLn3HTglIt5VQ9yXkDQvcAU5pxD+FRGjOrXkHgCzKUiaBzgoMeQkYKd+WfwBqjG+awFHNvTInYCLJfXKFDbrcZLGS/oj8CvqWfwBtpS0R02xX1A1xR5H3hHE00b7jS4AzKa2LzlncCc7JCIuT4zXiIh4JiI+DOwMPNfAI1eljBBev4FnWZ+StICkQ4GrgDUbeOS3JWW+CpyKpJmAnwBvTwx76qifj18BmAEvvIO7mPLnIsPdwHIR8XhSvFZIWp3ySqCuT1pTmkjpl2hqUJH1gepT8icoQ7lGvOQm2STgm8A3ImJSVtBqt/E3wMZZMSmXCC0cEc+P5pu9A2AGSJoNOIy8xR/Ke+2+XvwBqh2MlYELGnjczMB+ko6XNHcDz7MeJ2k9yoCrg2h+8YeyTn4dOCvr+KqkVYDLyF38AfYb7eIPLgDMJtsDWC4x3ikR0dTZ+tpFxP3ABpQZBk14N3C5pGUaep71GEmLSzqecnfF8m3nQ5nhca2kL0jq6JSMpP+R9GtKw9/rU7MrO44/HFM++BWADTlJSwPXkXeE6Alg2Yi4OyleT5G0HXAEeTMSZuRx4AMRcUoDz7IeIGlO4IuUonzOltOZnmcojXuHAFfM6NVA1eG/KeV8/6bAbDXltNNYj9S6ALChJ+k8YL3EkLtFxI8S4/UcSW+gTA9cqoHHBfBd4H8z38Fa75H0bmB/+uvyrWcpY4j/UX3dT2kkXgx4NWX3Ypaac7gFWD4iJo7lF7kAsKEm6UPAzxNDXg68ZRgWqqqJ6RfA5g098mxg+4h4qKHnWUMkLU95x59ZiA+TrTp55egCwIaWpAUplfN8SSEnAG+KiOuS4vW8aoTwnsA3aKan6A7KD7s/N/Asq1m1Pb43pcPfl0R15vyI6Oj4rJsAbZgdSN7iD3DAMC3+AFF8C9gEeLiBRy4O/EnSBxt4ltVE0kySPk6522I3vPh36g5gu05/sXcAbChJ2hD4Q2LIf1DewT2dGLOvSHotZV7A+IYe+VPg0xHRxKAiSyJpLcp2f1O/TwbVf4A1RzPzf3q8A2BDp+oyPiQ57M7DvPgDRMQ/KdPZftHQI3cGLpTUxIAi65KkRSX9ijJsy4t/dwJ4fzeLP7gAsOH0dWCJxHjHRMTZifH6VkQ8HREfAHYFRj2QpAtrAH+WtE4Dz7IOSJpd0peBvwI7tJjKg5SBQoNg74g4qdsgLgBsqEh6I/D5xJAPUa4htSlExE+AdYB7GnjcQsA5kvzfocdI2hy4Efg2zcyNmJYJlFcOSwFvoRxf7We/pDTdds0FgA2N6uKNw8k9k/uFiHggMd7AiIhLKSOEL27gcbMAB0g6trof3lokaRlJv6dcTPO6FlM5DxgfEZ+OiEer13TvBvpxTkcAX4+I90dERu+eCwAbKrsCqyXGOz8ijkqMN3Ai4j5gfcY4orQL2wGXSWpiQJG9iKRXSNofuB7YqMVU7gC2iYi3RcQNU/4fETEpInajTBpMWUgb8BTlnyflk/9kPgVgQ0HSYsBNwMuTQj4DvDEi/pYUb+BJ2h74GfCyBh73GKVJatR3o1vnqnkQH6BMbFy4xVSeBvYD9h1NU66k9wBHU9943gx3AptHRHr/gncAbFj8iLzFH+BbXvzHJiJ+Q2na+3sDj5sHOEXSN6tXP1YTSatRbrY7knYX/xMpd3DsNdoTORFxLPBW4KpaM+vcRcCqdSz+4B0AGwKS3gV03TE7hRsp7xWb6HIfOJJeSWlk2rShR/4e2DEimhhUNDQkLUz5xP8Bcq/RHqsbgU9FxHmdBqh2MN4HfAcYl5VYF24F9oyIE+t8iCtjG2iSXgEcnBgygI978e9c9WFhc8pxzCbuTHgHcJWklRp41sCTNKukz1MWqQ/S3uL/KPBpYKVuFn94YaLlL4ClgW9SXiW04T7KWOQ31L34gwsAG3zfBjIHxRwaEX9KjDeUqh+43wA2Ax5p4JGvBS6R9L4GnjWwJG1EafDbH3hFS2lMopzmWToiDoqICVmBI+I/EfE1YBnKQKunsmKP4AlgL2DJiDgk859pRvwKwAaWpDWAP5FX6N5Lecf4WFI8AyQtQXlFs2JDj/wx8Fnv4oyepNcB36e5mx+n5xLKdv/VTTxM0suAjYGtKa+sMvuI7gdOA04Bzo2IZxJjj4oLABtIkmYFrgZWSAy7TUSckBjPKtUP2sOAHRt65CWU/55NDCrqW9VMha9Qhl3N3mIq91KO7f0q6wz8WEmaHdiAUgy8ndIrMJYPFxOA24DTKYv+pW1fG55VAOxNORbVtp9HxP1tJ2Htk/QlSkNPljMiYrPEeDYNknYDDgBmbeBx/wa2jYhaBxVVxehClA75V1V//zRlSuI9wD29eI+EpB0oR+ravGvhOcqtnftExJMt5vESkmYGFqH8+5n8tRgwL+XT/d3V1z3VX+9re8F/sawCoFeMr+u4hPWParvyemDOpJBPUppy/pUUz2agui3uOMoP17pNAD4fEQdlBKsWhfHAesC6lMFT8zNyo9yjlIXiX8A5wGltHTOVNJ4yOnetNp4/hTOBz/i4bX1cANjAkXQ2ZYsuy2cj4geJ8WwEkhYBjqfcLtiEXwM7RcSYm74kzQa8B9gWWJu85ribKe+ITwMuq/vTo6QFgH2AnWi3QfxvlD9zv2sxh6HgAsAGStXlnXkd7VXAGhExMTGmjUK1dX4AsFtDj7wO2CoibhvNN0uan3Il8a7Uv1txP6VH4nsR8Xhm4GrX4hOUV7nzZsYeoycpBciBEfFci3kMDRcANjCqH8i3AAskhZxImcL1l6R41gFJ76UsflmvdGbkUeC9M/r0WY2V/gplAE4TOU3pQcoieUjGIilpPcp2//LdxupCAL8C9oiIe1vMY+h4DoANkgPIW/yhfBLx4t+yiDgGeDPwjwYe90rgdEl7VdPhXqBiZ8qdEjvT/OIP5ff3D4BbJO3w4hxHS9Liko6n3JbX5uL/Z2CtiHifF//meQfABoKk9YFzE0PeTmn8a2oQiI1A0ryUT4obN/TI31F2Ax6VtCTlIqN1Gnr2aP2FcunRDSN+JyBpTspxui/STgEz2QOUXZQjeq0zfpi4ALC+J2kOyvvbzCtgN4mIsxLjWYLqYp+vA1+lmRG0twG/AT5PuwvmjDwB7BARZ8zomyS9mzLBb/FGspq2CcBPKPfae3ZMy1wAWN+TtA/l00SWYyNi+8R4lkzSppQLhV7Zdi49YhLwxYjY/8X/h6TlgR8C6zee1dTOo0zxu7HlPKziAsD6mqQ3ULZBswbHPEIZ93tfUjyrSbUtfxK50x773VGUy6qeq16Z7E3p8J+5xZzuoMxaqP1yGxsbNwFa36oaoA4jd2rcHl78+0NE/B1Yg7JFb8UHgXOriYq3Uo5QtrX4P0254GZZL/69yTsA1rck7UJ5n5jlImDdtmaNW+ckfQb4HjBL27kYACdSPvXf0XYiNn0uAKwvVZPibgbmSQr5HLBiRNySFM8aJumtlBHCC7edyxC7kfKe/7y2E7GR+RWA9auDyVv8Ab7jxb+/RcRFwMrApW3nMoQeBT4NrOTFv3+4ALC+I2kzypWcWW4Bvp0Yz1pSXe+7Drmvhmz6JgGHA0tFxEERMaHthGz0XABYX5E0N/DjxJBB1TWdGNNaFBHPR8SulIa4nrtmd4BcQhmV/bGIeLDtZGzsXABYv9kHeHVivCOqrWMbMBFxNOU2wdtbTmXQ3AO8jzLC989tJ2Ody2oCPJLSRNW2fSLirraTsHpIWhW4jLzC9T7KEaVHkuJZD5I0H+W6341aTGMC5ffbvdXXbJQbBMcB89PMVMNuPQccSPk5+2TbybRJ0v8AbwReVX0tMsXfvwp4CrgbuKv6mvz3dwI39Mr446wCYF6PdbQ6SZoFuBJYKTHs9hFxbGI861HVCOFvAHvS3GL7b+B04BTg3Ih4djq5zQdsBmwJbAi8rKH8xuJ3wGcj4m9tJ9KG6vfPGpT/TpsBb+gi3APAqZQhVue2+frRBYD1BUm7A/slhjwrIjZJjGd9QNIWwC+AV9T4mLso9xUcHRETx/ILq+l9XwI+BcxRQ25j9TfgMxFxZtuJNK0aNLY5sBWwCbk3jU72GHAGpRg4KyIa7VlxAWA9T9JrgRvI+2T0FOWmv9uT4lkfkbQ05QduN5/ipmUC8DXKNdLPdBNI0mKU6623zUisA08C3wR+MIwNspLeQTkZNL7Bx95DKRyPHGvh2Ck3AVo/+Am526Jf9+I/vCLiVkoBkOkRYKOI+E63iz9ARNwVEdtRdgOafF8cwDHA0hGx37At/pLWkHQ+cBbNLv5Q+kEOB66V9M4mHugdAOtpkranNHBl+Qvl6FIjFbb1Jkk3AcsmhbudsvjfmhRvKtXci+OB2euIP4WrKVP8Lqn5OT1H0jLAdyl9GL3ifGD3iLi6rge4ALCeVb0PvQVYKCnkRGCNiLgqKZ71IUnLUUbWZngCeHPdV9xKeh+ld6EOD1Cu0z6iV7rTmyRpa+BoYK62c5mGAL4FfK2OO0r8CsB62ffIW/wBDvbib8C7k+JMAnZo4n77iPgluU2wUHoWDqJs9x8+bIu/ir0puyu9uPhD+ZD+v8BxkuasI7h3AKznSFqHsgWWdWTrX5TGv6E+v2wg6TpghYRQB0bE5xLijEp1FO1yYJWEcPcAGzZRvPSiaqLoL4B3tZ3LGFwFbFGNu07hAsB6jqTZgWuBZRLDbhYRZyTGsz5UnQD4a0Kox4AlIuLhhFijJultwDkJoR4F5hvGq6+rU0WnAcu3nUsH7gY2z5rA6FcA1ou+TO7if4IXf6tskRRn36YXf4CIOBf4v4RQrwSWTIjTVyS9CriQ/lz8ARYFLpa0dkYwFwDWUyQtSykAsjxGGapiBjmF5XPkXkg1Vt9PirNaUpy+IGkOylTGzLtE2vAy4ARJr+k2kAsA6xnV5K1DKXPSs3wpIu5NjGf9resfmsB5EfF4QpxOnU8pbLu1akKMfnIksHrbSSRZCDi528ZAFwDWSz4KpGxtVS6hFBRmk2UUACcnxOhYNZwnYzTv0gkx+oKkrwHvaTuPZCsDR3QTwAWA9QRJC5N7zOl54GPD2ORkM5Sx/XteQoxuZeQwX0KMnidpW2CvtvOoyfaS9uj0F7sAsF7xQ0pjUpZ9h/WIk02bpAXIGSl9d0KMbmVcez7wBUD1weII+uO65U59pzo2PWYuAKx1kjYBtksM+TfK9CyzKWVs/z/a9I1t05HR1zJvQoxetzcwd9tJ1GwmYP+qh2pMZqkhGbNRkzQX5bKfTB/PuJDFBk7GFcD/ToiRISOPeRJi9KzqRNFHG3rcY5Si7B7gcUqT3jhgEeq/wwHKcKitgRPG8otcAFjb9gYWT4x3VEScnxjPBsdDCTFenhAjQ8an2kEf3rYfMHNNsScCF1OOFZ46vdtFq0/la1AmDm4JLFVTPgD7SDp5LBedeRKgtUbSeOBK8v6QPgAsGxEZP+htwFRDYLrdOp8AzN723PxqEMxFXYa5NiJWysin10haj3qaNQM4FvhKRPxzrL+4et25L/UNItopIn422m92D4C1QtLMlLuvMyv0z3nxtxl4MCHGLMCCCXG6NS4hxiDPx9i/hphXAatFxA6dLP4AEXEmsBLl1UQdsyT2qgYejYoLAGvLp4A3JcY7OyKOSYxnAyYiJpCz7d0LY2QzLjNKu1Sml0halXJGPtMvgbUzbhONiIkRcQRlKNHfus5saosCHxztN7sAsMZVIyy/mRjyaWDnxHg2uB5IiJF1n0A3Nk+IMag7AFslx/tSRLw/u7E4Im6hjGPO7lka9T+/CwBrw0/IvX9774j4R2I8G1z3J8RotQCQtATeAZiRzCt+fxAR+ybGm0rVO7clcHNi2HUkjerEiwsAa5SkbYB3Joa8DjggMZ4NtssSYrwm6za2Du2YFOeOpDg9Q9Jy5N0keg7whaRY01XdK7EZkHW75GzARqP5RhcA1hhJrwQOSgw5iTLud0JiTBtsf0iK08qgKUnzAZ9PCPUscEFCnF6Ttf3/GLD9WI7UdSMibgN2SQw5qldELgCsSd8FXpUY7ycRcXliPBt8F1F6mgZgvAAAIABJREFURrq1tqRNE+KM1Z7kDPA5NyL+kxCn12Rt/38nIjJOjYxaRBxHORadYZPqpNUMuQCwRkhaE/hYYsi7KT8MzUYtIjI/+X5fUmPT9Kq5GZ9MCndaUpyeIWl+crr/76TcTdKGLybFmQ9Yc6RvcgFgtZM0G3AYuRdyfDIinkiMZ8Mj6zXAUsBxo/mk1S1Ji1AW7YyxsgGcnhCn12Tc9QBlZ7GVUeLVFNNrksItO9I3uACwJnwRWC4x3ikRcUpiPBsuWQUAwIbk9rW8RHVfxqnAYkkhr4qIQTwBsGhSnLZ3R7J+ti080je4ALBaSVoa+EpiyCfI2wa1IVSdv87sHfmEpGMkpV/6Us3M+BOwamLYthe4umQUSLdFxE0JcbpxclIcFwDWukPJvQ1rz4johfvYrb/tlRxvR+D86r6BFJLWojSFrZgVE3gKOCIxXi/JKAAuSIjRlYi4jpyLq0b8vegCwGoj6UPAuokhLyf/6mAbQhHxe+CK5LBvBv4q6X+rbfuOSPofSb8ELqRcK5vpwIgY1AmAGQXAXQkxMmTk4R0Aa4ekBcm9kGMC5cx/q7ew2UDZu4aYr6CMuf67pK9Ug2lGJGlmSetIOgT4K/Be8n8+P0i5IndQZRQAvVIcZeQxYgEwS8JDAN4mqdszpRdGRMb5XOsNB1KOomTZv9oaM0sREWdKupLc9+uTvQrYh3JH+98ojYd3UH6w30uZ1rYI5Va/pYFNgAVqyGNK+1RT5wbVqMbfjuDfCTEyZOQx4q2VWQXACQkxXgvcnhDHWiZpQ/LGlQLcBnwjMZ7ZZHsDZ9T8jKWqrzb9Ezik5Rzq9lhCjLkTYmTIyGPEY9J+BWCpJM1J/g+aXbw7ZHWIiN9RrnoddHtGxHNtJ1GzRxJijEuIkSEjjxH7CFwAWLavA0skxjsmIs5OjGf2YjsD17edRI0Oj4hj206iAY8mxFgkIUaGjDxcAFhzJL2RnItKJnsI+FxiPLOXiIingK2BQXw/fjGwa9tJNCSjAHhDQoyuVOOlGznR4ALAUkiaCTicvL4SgC9ExAOJ8cymKSL+Bnyo7TyS3QFsHRHPt51IQ25PiLGupJcnxOnGJsCsCXFcAFhjdgVWS4x3fkQclRjPbIYi4iRyj6626T/AFkNWQGfMdZiNMt65TVsmxRlxYJoLAOuapMXIvR/9GeDjifHMRutLwM/bTqJLk4D3R8S1bSfSsGspPzu6tUNCjI5ImpeyA5DhjpG+wQWAZfgRkLlttk+1JWvWqIiYGBEfoTSz9qPHgU2r3YyhUr3q+HNCqK0kZe5mjsWXyTkC+AhljPQMuQCwrkh6F7BFYsgbGexpZdYHIuIbwAeBfnp/fhuwRkSc1XYiLcq65KnxV0HVTupuSeF+FxETRvomFwDWMUmvAA5ODBmUcb/99EPXBlREHE3Zju2H0wHnAatFxM1tJ9Ky05PirC3pg0mxRiRJlJ+lcySFHNWNgi4ArBvfJu8OboBDI+KSxHhmXYmIc4C16O05AYcAG0XEw20n0gMuAO5MinVIg68C9iav+e9p4Pej+UYXANYRSWsAuySGvJfSgGXWUyLiemA8pTH1/pbTmdI1wIYR8YnRbPcOg4gI4NdJ4eYATpaU+SHnJSS9B/hqYsj/q2ZbjMgFgI2ZpFmBw8j9/fOpiMiY5W2WrmoOPIwy038/4NkW0/kX8H5gZU/JnKZjEmONAy6TtEpizBdI+hy5+cIot//BBYB15gvAConxTo+IjAulzGoVEY9HxBeBZSmXoEWDj38E2B1YOiJ+WX3atReJiBsYRQf8GCwGXCzpvVkBJc0p6RfAAcDMWXEpO1QnjjoPmv0NPCOvjYjb207CZkzS6yjvQ+dMCvkksFxEZL23M2tM1bm9FWWU8Frkf6h6GjgbOAU4OSIyxt0OPEkbMcr34GN0DrB7RFzTyS+uJqa+l3JV9KszE6vsEhE/HXU+uACwMZB0NvD2xJCfiYgfJsYza4WkhSiNXFsB69P5ONeHKVcUnwL8YbTvc21qks4H1q0hdAC/AX5BmVg64i2LkhYENgM+BaxYQ04ANwNvHEs/SFYBcAMwscsYm0TEPQm5WE0kvY/ymz7LVZRzy93+3jHrKdWFLktRTslM/ho3xd8/D9xDGdc6+eseyvz2G/xnonuSVgcuq/kxjwNnURoy76X8N3wcWIj//vdeB1iT3K3+adk8IsZ0DDKrAJjXW1ODTdL8wC3AAkkhJwKrdLqVZmY2EkmnA5u2nUcDLoiI9cb6i9wEaKN1AHmLP8CBXvzNrC5Vf0ZbI32bFJTG7DFzAWAjkrQ+8IHEkLfTv7PWzazHSZqDchxuobZzacCeEXF1J7/QBYDNUPUH6dDksLu4scnManQIUMvZ/R7zi4j4bqe/2AWAjeSrwJKJ8Y6NiDqO55iZIemTlIucBt0fgZ26CeAmQJsuSctTrtfs9DjTiz0CLBsR9yXFMzN7gaS3AucCs7SdS83+CaweEQ90E8Q7ADZN1e1Uh5G3+APs4cXfzOpQNf0dz+Av/o8Dm3W7+IMLAJu+nYE3J8a7CDgiMZ6ZGfBCr9JJDH7T3x3AOhFxY0YwvwKwl5A0DrgJmCcp5LPAShFxS1I8M7MXSDqSwX/vfwGwTUQ8mBXQOwA2LQeRt/gDfMeLv5nVYUia/n4MbJC5+IN3AOxFJG0GnJYY8hZgxdHMyzYzG4uq6e8ccnuVeslzwCciopbXp94BsBdImptSaWYJ4GNe/M0s2xRNf4O6+J9JGZdeW++UCwCbUvYVlUdExMWJ8czMkDQ79TT9PUxpWG7TZZRGv3dGxPV1PsgFgAEgaVVgt8SQ9wF7JMYzM5vsp8CqyTEnAttFxDrA2kDTA8tuBt4VEW+OiEaKEBcAhqRZKGf+M38/fCYiHkmMZ2ZWZ9PflyLiHICI+GNEbAy8iTJWuOsz99PxEOWK9a2AFSLilJqeM01uAjQk7Q7slxjyrIjYJDGemRmS1qZM+st+739sRGw/g+fODKwPbAesByzRxbNupTRanwZcEhETu4jVFRcAQ07Sa4EbgJclhXwKeENE3J4Uz8xsctPf1eS/978WeMtYLiiT9EpgPLAysBQwHzB/9TUnZcfgXuDfU3zdC9waEX9Pzb4LLgCGnKTfAxslhvxCRByQGM/MhlzV9Hcx+e/9H6J02t+eHLcvuAdgiEnantzF/y/ADxLjmZlBfU1/7xnWxR9cAAwtSfOSu1hPBHZq832WmQ0eSbtST9PfFyc3/Q0rFwDD63vkvks7OCKuToxnZkOuavo7sIbQv/GrSvcADCVJ6wDnU/77Z/gXpfHvyaR4Zjbkamz6uwZYcyxNf4PKOwBDpmqmOZS8xR9gVy/+Zpalxkl/D1GG7Qz94g8uAIbRnsAyifGOj4gzEuOZmR1CfZP+bk+O27f8CmCISFqWsv01W1LIx4BlI+LepHhmNuSqpr8f1RDaR5RfZJa2E7CRVbf0jQMWqf46+e8nMfWQiX8Dd0fE49OIIcrWf9biD6WL1ou/maVw01+zvAPQg6rmly2ALYE1gLnH8MuDMtnqbMo92RdHxNOSdqLM+8/yJ2DtiMj4/WNmQ676uXcVsHBy6Gsok/6eTo7b91wA9AhJb6As+FtSLqDIatJ7FvhjFfOVSTGfB1aKiJuS4pnZEPOkv3b4FUDLJL0D+A6wUk2PmB14W3LMfb34m1kiN/21wAVASyStBuwLrNtyKmN1K7BP20mY2WComv4+VEPoPSLi3BriDgy/AmiYpKWBbwHvbjuXDq0fEee3nYSZ9b8ar/f9dUTsmBxz4HgOQIMkfRW4kf5d/I/04m9mGaqmv+PJX/yvAT6aHHMgeQegAZLmBI4Etms7ly48ALw+Ih5uOxEz629V099FwGrJoR8C3hQRdyTHHUhZPQDzlGPmrXui126jkzQOOBVYpe1cuvRZL/5mluQQ8hf/icC2XvxHL6sAuD0pTrfGU7Z/eoKkVSiL/7i2c+nS2RHxq7aTMLP+V3PT33k1xB1Y7gGoiaQNKFtc/b74Pw3s3HYSZtb/apz096uI+H4NcQeaC4AaSHo9pbllzrZzSfCtiPhH20mYWX+TtCj1NP39BdgpOeZQcAGQTNJ8wOnAPG3nkmRdSf59YmYdm+J63+wxvw9Srvf1mN8O+Ad7IkmzACcAS7adS6K3U64QNjPrVF1Nf9u56a9zLgBy/QhYr+0karCXpHXaTsLM+o+kT1BP09/ubvrrjguAJJI+BHy87TxqMjPwa0kLtp2ImfUPSWsBP6gh9K8ioo5mwqHiAiCBpLmAb7edR83GAb9Ujwx8MLPeVjX9nYCb/nqWLwPK8XngVQ0852bKzIV7gHspn8wXoSzOSwJL1Pz8jYCtgBNrfo6Z9TE3/fWHrFHAvWJ8RDQ6CEjSQsBtwNw1PeJC4GTglJGaXSQtB2wJbEN91wtfS/n3PEi/b8wskaQjgA8nh50AbOj7SPL4FUD3vkY9i/9lwNoRsW5E/HA0na4RcVNEfDsixlM+qd9SQ14rAlvUENfMBkDV9Je9+EOZ9OfFP5F3ALogaUngJnLfcT0J7BQRx3YbSNLMwK7A/uTm+JeIWDkxnpkNgKrp7zzy3/sfExHvS4459LwD0J3dyf2N/k/gzRmLP0BETIyIg4ANKLdkZRkvabPEeGbW52ps+vsz8LHkmIYLgI5V3fCZW+HXAKtFxA2JMQGIiAspQzjuTAz75cRYZtbHam7628pNf/VwAdC5Ncj7zX4fsHlEPJgU7yWqef6bA08lhVyjaoA0M/sJ+ZP+JuDrfWvlAqBzmyfFeZZyrCXz0/k0Vf0R7yen70OUY4FmNsRqbPrb3U1/9XIB0Lms7f/9IuLSpFgjiogTgWOSwrkAMBtiNU76OyYi6ohrU8g6BTBvRDyaEKcvSFoKuDUh1P3AkhHxREKsUZP0Gkr+s3cZ6gFgYc8EMBs+VdPf1eS/9/8zsJbf+9fPOwCdeWdSnG82vfgDRMS/KBcXdWtBwMcBzYZMjU1/D+BJf41xAdCZpRJiPAscnRCnU4clxXlbUhwz6x91Nf1tV31AsQa4AOjMuIQY57Xx6X+yiLiVcrdAtxZPiGFmfaLGpr8vuOmvWS4AOrNIQoxTE2J0KyOH7C1AM+tRNTb9/TIiflhDXJsBFwCdydgBuCQhRrcycnABYDYEPOlv8LgAGKNqAmDG1b/3JMTo1r0JMVwAmA24Bpr+nkmOa6PgAmDsFqD7Cvg54OGEXLqVUYS4ADAbfHVO+nPTX0tmaTuBPrRAQoyHeuTsfMbo4VdImj0ink2INXQkzQ+sCqwEvIxSlM9c/XXy3z9BuSvimoj4Z0up2pCStAv1Nf1dUENcGyUXAGOX8cl9voQYGTLymAA8nxBn4FXXM69B+SQ1+WuJMcZ4lKoYAP4C/CEi7ktO1Qx4oemvjuY8N/31AE8CHCNJM1HO8HdbPM0fEa2+BpC0MmWSVzfuiohXZ+QzqCQtAHwU2AV4TXL4CcDvgCOAMyNiYnJ8G1I1Tvq7mjLpz+/9W+YegDGKiEmU2/u6lXGSoFsZOdydEGMgSVpF0lHAXcB3yF/8oRSiWwCnAXdK+o4kF2TWlarp70Tqafrbyot/b3AB0JmM5rnshppOZOTgAuBFJK0u6TLgSuADdH/nwmgtAnwJ+Kukr0qao6Hn2uD5MbB6ckw3/fUYFwCdySgAsm4T7EZGDi4AKpJml7Qv8Cfyf3iOxZzAN4AbJWVdW21Domr6+0gNoT/vpr/e4gKgMxnn5zeQ9LKEOB2R9FrgjQmhXAAAklalDDTZg9K53wuWAE6VdKakXnjlZD1O0prU0/T3i4g4qIa41gUXAJ25LSHGnMAOCXE6lVXh35kUpy9Jmk3St4FLgeXazmc6NgaulLRK24lY76px0t/VwMeTY1oCnwLogKRlgZsSQt0NLNX01ZeSFgH+Tjl33o0AxkXEv7vPqv9UOzhnAOu1ncsoPQ18OCKObTsR6y1V09+F5L+6egB4U0QM9QeFXuUdgA5ExM2UBbRbiwKfSYgzVnvR/eIPcNkQL/5zUY7f9cviD2XX6TeSvlmNtDabrK6mv228+PcuFwCdy7rN7yuSVkyKNSJJG5G3/X9KUpy+MsXiv27LqXTqf6nnRjfrQzU3/V1YQ1xL4gKgc1kFwFzAaZIWSoo3XZJeD/yWvCa1k5Pi9A1JcwNnAuu0nUuXPiXps20nYe1y099wcw9Ah6qxrvcB8yeFvBR4R0Q8nhRvKtV7/wuBpZJC3hQRb0iK1RckzQacA6zddi5JJgHbRcQJbSdizaua/q4i53bTKV0FrO1hP73POwAdqkaunp4Y8s3ApZJelxgTAElvogylyVr8YTi3//dicBZ/KH/+f1l9CrQhMsWkv+zF/3486a9vuADozv5A5uz15YDLJb0jK6Ck9wMXUxoOszwH/CwxXs+TtBrljP+gmQM4UdK8bSdijapz0p+b/vqEC4AuRMSNwNHJYecHzpJ0lqSOB/VIWk/S5ZT85kzLrvjRMF1LW43UPYreGfCTbWFgv7aTsGbU2PT3OTf99Rf3AHSpeo/2N/IXWSjvaE+nNNudEREPjSKXLYBtqa9J7VHgdW3fZNgkSfsBu7edR80CWDciLmo7EatP9brnfPKH/RwdER9Mjmk1cwGQQNJ3KJew1GkicAVwO+Uugnspn0gXodzqtyQwnvLftE67R8T+NT+jZ0h6M/BH6t8te5wyMe1q4D9T/O+LACsCK5Azu2FG/gqsGBHP1vwca0E1Dvpq3PRnFRcACSTNQxkPnHUioFfdASwzTAuEpCuBukboPgocWX3dEBHT/bMoaSbKO9uPUXZ46ioG9oqIvWuKbS2pcdLf/cAqfu/fn9wDkCAiHqN0iA+6PYds8V+Nehb/B4CdgUUj4nMRcf2MFn+AiJgUEZdGxIcoDZ17AXX8t/i0pDpeZ1m7POnPXsIFQJKI+BHwq7bzqNEREfHrtpNo2CdqiHkKsHxEHBoRT3USICIerT6lj6dcPZxpXtq9pMqSSdqZepr+Puuekf7mVwCJqm7xC2j3Lvg6XAhsEBHPt51IUyTNR7msaY6kkJOAXSLisKR4AFQz/Q8Gdk0Me01EjE+MZy2psenvqGo3yvqYdwASVU0wWwJ3tZ1LotuArYdp8a98mLzFP4CPZC/+AFF8Evh+YtiVJK2VGM9aUDX91XG975XALskxrQUuAJJVt+NtDnS0vdtjHgM2G+n44aCpPlXvnBhyl4g4KjHeS0TE5ynvebPU8frDGlKNrT4JT/qzGXABUIOI+AvwXqCfPzU/T5nqdXPbibRgXSBrJPMxEXFoUqyRfB64ISnWxtXJA+tPdTb9DdIO51DzH/CaRMTJwAZAP356fgB4e0T8X9uJtCRrNv6/gU8nxRpRdULjfZRRzd16JbBSQhxrWNX099EaQrvpb8DMkhTnOkmTuoyx1qBVlhFxYXWU7HTKnP9+cB2weUTc0XYiLVo1Kc6nmp6YGBHXSPoR8LmEcOsBf06IYw2pmv7quIb3qOqkkw2QrFMAGV4bEbe3nUQdJL0COBbYuO1cRnAS8P6I+M+I3znAJN1Nma7YjTuB/4mIbgvjMZO0DHBLQqgzImKzhDjWgBon/V1JmfQ3NDNAhoVfATQgIh4HNqN0avdKwTWlAPYG3u3FX+PofvEHOLKNxR8gIv5KGV/crbUlDeoFSAOlavqr83pfL/4DyAVAQyJiYtWpvSpwTtv5TOFsyijPvUaaRjckMib/BfDzhDjdOCIhxjzAqxPiWP1+DKyRHPN5yoeCgXo1a//lAqBhEXF1RGwAbEi771evpjT6bRgRfs/7Xxm9Grf1QA/FiUlxFkiKYzWpuenv4hriWo9wAdCSiDib8mlze8qwnab8HXgPsGpEnNvgc/tFxiU71ybE6EpEPEE5zdEtFwA9rMamvyMjInOuhPUgFwAtqqa4HQssDawF7E9ZoLP9E/gh8HZg2Yj4rbf7pytj+l/rBUDl9oQYLgB6lCf9WbeyjgFaF6pmsT9VX7tLegNlpPCWwJsopzXGFBK4AjgNOC0isobDDIOMAuDuhBgZbqf7I40uAHpQjU1/9+Gmv6HhAqAHRcSNwI3AtyTNCixM6UxfpPrr5L+fBNxLGTgz1V/9B7hjGQVAr/y5yihE5kuIYYCkWSgDlp4BnomICV2Eq6vpz5P+hkiv/KCy6agu4bmLwbpgqJdlFADZW7KdWjghxhslLe9dpNGTNDtlnPQKlJHSk79ewxQ/cyVNoBQDT1Fe/f2F0hj8Z+DG6V3A5aY/y+ICwGxqGZeczJ0QI8PSCTG2ALaQdBdwVvV1TtVkaBVJCwHvpFwEtgEw1yh+2SyU3ytzAwsBb5ni/3tO0lXA0cCx1SwRJL0FN/1ZEk8CNJuCpD2AfbsMc3xEbJuRTzckPQ68vIbQz1P6Vc4CzoqI62t4Rl+QtBmwB2Xxrqup+ingeMqkzkPJf+9/BfBWvzYcPi4AzKYgaSu6P0N/d0QslpFPpyQtAtzT0OOm3B04d/Kn1UFVXRe9BfA1YHzL6XTrPuBNEdErjavWIB8DNJtaxjHMRSUtnhCnG9kNYjOyGLAT5RPqg5LOl7SHpBUazKER1Sf+a4CT6f/Ff/KkPy/+Q8oFgNnUsoYyfTApTqfqaBIbjVkpDXD7Um4JvVPS4ZK2qi7F6kuS5pL0c8rR2je2nU+Sz0RExp0R1qf8CsDsRSTdQzlm2Y17gcWn18ldJ0mvoQx/6rUC/3ngEuBM+qh3QNIqwK+BpdrOJdHPI+IjbSdh7eq1HxBmveCChBiLANskxOnEp+jNP9uzAuvw392Bu3p5d0DFFylFyyAt/lcAn2g7CWtf1g7AW4FujwXdFBHPJeRi1pWkRkAouwDLR8TDCbFGpfq0ein9d8R3AlOfLLiuzWQkzQT8DPhQm3nUwE1/9oKsAmDeiHg0IY5Z6yTNSblIZzRnuUfy24h4T0KcEVXjYa8Glm/ieTW7G/g9pSA4u8mTBQO8+D8PrO/3/jZZL24TmrUqIp6mvKfOsJ2kjyXFGsnBDMbiD7Ao8BHKZTcPSbpA0hcl1dqAN8CLP8CnvfjblLwDYDYNkrYFfpsULoCPRsTPk+K9hKSDgU/WFb/HTLk7cE5EPJYRtDrffwSDufgfERFtnQyxHuUCwGwaJI2nzGTPEsDOEXFYYszJF8z8ANg1M24fmUBp0pvcO9DxVcySdgf2y0qsh1wOrONJf/ZiLgDMXkTSe4DDqGeM7gnArhFxf7eBJC0H/IJyZbQV91B2B85kDLsDklYGLqN3LnLK9FZf8mPT4gLArCJpDuBAYOeaH/Ug8GXgV1W/wZhIWpByjOtL5NxeOKhGtTsgaS7Kbk/G5Um96LyIeFvbSVjvcQFgBkhaCjgOWKnBxz4K/BL4OXBdREya3jdWV8yuTpnwty0weyMZDpbJuwOTTxY8BiDpZ5SGw0H24Yg4su0krLe4ALChJ2k74HDq2fIfrf8A1wPXUs5qz1R9vRxYjTJ3frYGcngZ5efCoJtAmZdwI/Xv+PSCR4BlI+K+thOx3uECwIZW9an6BwzHAjCSicBalBHC7wA2BjYE5m0zqQFwF3ARpRHvCsrrn+err3mBFSm7TqsDa1Nv8XVcRGxXY3zrMy4AbCi1tOXfy74VEf875f8gaWbKrYIbA5tQ/l0Nw+5AhnMpcxlOn9GrnSlJeh3wMcpFUgvVlNcqEXF1TbGtz7gAsKHTI1v+veQaYLWRLi6S9CpKMbAxsAHwygZy6zc3AR+KiCs6DSDpZcC3KXc6ZBdcv4yI9yfHtD7lAsCGhrf8p+lZyqfCG8byi6r5A2/mv7sDK9aQWz+ZBOwPfC3rvL2ktwJHAa/NiFd5DniNewEMXADYkJC0JHA83vKf0vPANhFxareBJI1j6t2Bnrvdr0aTgA9ExDHZgatdl/OB1yeG/XpEfCMxnvUpFwA28LzlP00TgPdERMath1OpdgfW5L+7AytkP6OHTKIcsTu6rgfUUAT8G1jct6+aCwAbWNWW/4HALm3n0mMmAjtGRNZdBzMkaTHKyYJNgLczWIXYlyPiu3U/RNKrgevI67vYKCL+LymW9SkXADaQqi3/4yjn5+2/atuuHg1Js1KOG05+XdDPtxdeDqwZERObeJikHYGs/277RsSXkmJZn3IBYAOnusnvcIbrPfRoTKTcSnhU24lMVn2ynfyq4G3A3O1mNGrPAuMj4uYmHyrpRGCrhFBXRMTqCXGsj7kAsIHR0pb//wF/APamtxevv1I++V/ediLTI2k2yu7AJpSiYLl2M5qhQyLiE00/VNLrKUcNuz0eOBGYLyIe7z4r61cuAGwgtLDlPxHYC/h2REyS9BrgUMq77l4yCfghsGdEPNN2MmMhaXH+uzuwPjBXuxlNZYWxHp3MIukPlCmN3dosIs5IiGN9aqa2EzDrVrXlfzXNLf73Am+LiH0mT3mLiH9FxMbAB4CHG8pjJLcB60bE5/pt8QeIiDsi4qcRsTkwP+V44YHALe1mxkVtLf6Vg5Li+BXAkHMBYH1L0uySfgL8lube958NrBQRF07r/4yIXwDLUmYOtOUJ4ABgxUG5Bz4ino2Ic6piZllgCWBX4AzgqYbTOaHh573YuZQZDt1aJCGG9TEXANaXqi3/S2nuff9E4KvAOyLi/hl9Y0TcHxHbAm+kzIN/pIH8oLzn3w1YNCK+EBH/aei5jYuIf0bETyJiM2A+YCPKq45bG3h8E8+Yrmo359qEUAsnxLA+5h4A6zstdPnfC2w/vU/9I5E0B/Bu4KPAOpmJUd7xn0kpNM6OiIw/z31N0hL8t5FwPWDO5Ee8LiL+kRxzTCT9GOi2CfGqiFg1Ix/rTy4ArG9UXf7fp/sffGNxNvDekT71j5akpYF3UXYH3ggsA8w6hhCPU/odrqy+Lo2IuzNyG0RV8bUupRjYlPLqoBvPA3M2dfZ/eiTtAezbZZg7I+I1GflYf3IBYH0Y12/bAAAQiElEQVShuir1eFrq8q/rIdXRt9dTioHlKMXA81N8Taj++m/gKuBWf8rvjKT1gPO6DPP3iFgqI59uSPoC8L0uwzwbEXNk5GP9aZa2EzAbiaRtgJ/RJ1v+Y1HNY7+u+rJ6PZkQY96EGBkyitKmmyetx7gJ0HpW1eX/Y8r5/p7o8re+lvGqZH5J8yXE6VbGJ/d7EmJYH3MBYD2p2vK/hObe94+6y9/61n2U/87dWjohRrcy7lC4NyGG9TEXANZzqi3/PwMrN/TIe4G3TznYxwZP1bh3X0KoXigAVkqI4R2AIecCwHpGy1v+FzT0PGtXxmuAVgsASXMl5eAdgCHnAsB6Qktb/l/DW/7DJqMAeFtCjG5sC8ycEMc7AEPOBYC1rsUt/296y3/o3JkQYw1J70yI06mdk+LclRTH+pQLAGtNteX/I7zlb83pdg7AZPtI6vZK3jGTNB5YLSHUROCChDjWx7IGAZ1EzuUU3fpiRNzRdhI2smrL/zia+9Q/Edgb+JY/9Q8vSS8DHiRnPPB7IuK3CXFGpSo4zidnnPQFEbFeQhzrY1kFQK8YHxHXtJ2EzZikdwNH0Oxgnx38qd8AJJ0GbJYQ6lZguabGAkvaFfhRUrjPRMQPk2JZn/IrAGvMFFv+x9Pc4n8O3vK3qZ2WFGdp4GeSav85Wt0h0e3s/ymdkhjL+pQLAGvEFF3+uzb0yMld/hu5y99e5HRyRukCfBA4WlJGV/40VVdfnwvMlRTyGr8qNXABYA2otvzd5W89ISLuAy5PDPle4Jd1FAHV4n8+sFhiWH/6N8AFgNWo2vI/GG/5W+/5aXK87YHfVE2GKSTtCFxB7uL/LHBkYjzrYy4ArBaSlgD+BHyyoUd6y9/G4hjyb2DcBrhD0p6SOi54JS0q6SRKjtm3Dx4cEf9Kjml9yqcALF215f8zYJ6GHukufxszSRsBv68p/KPAwcAPIuLhUeazBvAp4N3ArDXk9Ajwuoh4pIbY1odcAFgaSbMBB9Dcp34oW/47+lO/dULS2cDba3zEk8BFwDXAtcBtlJ3XWSlX+i4PrA6sASxRYx4AX4iIA2p+hvURFwCWotryPw54U0OP9GAf61o1We9qys/CQXYHsExEPNt2ItY73ANgXZO0NaXLv6nF/9/ABu7yt25FxF+AX7WdRwO+4sXfXswFgHVM0mxVl/8JNPe+f3KX//kNPc8G36eAv7edRI1+FRHDUOTYGLkAsI5UW/6X0Nz7/knA1yld/vc19EwbAlVT3ObA423nUoMrgY+2nYT1JhcANmYtbfm/PSK+4S1/q0NE3Ew5yz9Iv7/uAbaMiGfaTsR6kwsAG7Vqy/8gvOVvAygizgS+3HYeSZ4B3hUR97SdiPUuFwA2KlNs+e/W0CO95W+Ni4j9KAN4+t1OEXFF20lYb5ul7QSs91Vb/kfQ3Kf+f1MG+/hTv7XhQ8BjNHdxVab/b+/uY/aq6zuOv79thXUKBRli0RVhZTLUwoLiwx9TJIoxyoAFiTqNGXPTbIvOBKe4ROJTgJBsGhLFmDmXjNW4pbWYIBq7oYYHp7EyEhc3oDxYHitgQaSUfvfHuTsqAuW+zvc657ru3/uV3Lkbkn6ubxqS87l+55zf7yHg7Mz8l7EH0eyrKgAfoPsfb2y3jj3ANETEQcAa4Lf3+r0S2L7wc89ev+/KzDuKPnc/4CKG+9YP3alnb/dbv8aSmbuAv4yI64CLmc6ufNPwU7p7/t8fexDNh6qNgA7OzPsKcgRExDrgDODNdGeOP2uRETcA3wCuADZn5o4JZjgK+DLw0sX+3QntptvY5xM+6KdZERF/QPfMy6Fjz7IP1wBnZObtYw+i+WEBmAEREcCJdBf9M4C1hfG7gKvpCsGlmXnj05jnDOAfcMlfIiKOADYB68ae5Un8E/BnbvSjxbIAjCgilgHvojvF7ogBPnIX8I/Ax5/oRDCX/KUnFhEr6W51fpDhjrbel/8Fzs3Mr4w9iOaTBWAkEfFG4AK6w0CGtpPutL5P7nlNKCKOpNvL3yV/6UlExKHA3wLvZbxnA+4GPgZckpmPjDSDlgALwMAi4qXAhcBJY89C967wZ+lOKvsMLvlLT8vCMzKfBM5iuIOEfgH8HXDBJM/1SI9nARhIROxP90Tx2Sz9k8eeikv+WjIi4ji6HQRPA144hY/YTfcMz0a6Pf19yE9lLAADiIjnABuAV409y4h20y1beoKflqSIOIauCJxG91DvpEX/l3RFeSOwKTPvqplQ+lUWgCmLiJcAlzHMQ36z6g66b/2bxx5EGkJErKY7K+NwYPXC7z1/Xg08QrdX/zbg9r1+3wZck5kPjDC2GmMBmKKIeBNwKXDA2LOMyCV/SZpBngUwJRHxV8BXaffivxs4D3i9F39Jmj2eBTAFC9/8P027D/u55C9JM84VgGIR8bt0p4m1evH/Ft3xvV78JWmGWQAKRcQBdE/7D/U+/SxxyV+S5oi3AIos7Of/JeDYsWcZgUv+kjRnLAB1zgVOH3uIEWym29XPb/2SNEd8DbDAwgYg1wPLx55lQG7sI0lzzBWAGucxzMX/x8BWHts0ZDmPbTKyFjhqgBnAJX9JmnuuAPS0sNPfj5jeU/9X0j1YuDEzb97HLMfSbUN6JnD8lOZ5BDgqM2+bUr4kaQAWgJ4iYgPdRbfaNcA5mfndSf5yRJwOfAo4pnSqzh9n5j9PIVeSNBALQA8RcQLw/eLYB4B3Z+b6vkERsRz4C+Aias8u/6/MXFeYJ0kamPsA9POx4rybgFdWXPwBMvPRzPwM8Dpge0XmgpdExBsL8yRJA7MATCgijgYqL4JbgBMz8/rCTAAy80q640lvLYx9X2GWJGlgFoDJnVKYdSdwambeU5j5KzLzRuBU4BdFka+NiEOKsiRJA7MATK6qADwMnJ6Zld/On1BmbgHeSc1zHyuYzsOPkqQBWAAmEBHPAF5TFHdhZl5dlLVPmflvdIcVVTizKEeSNDDfAphARLwa+I+CqLuAtZm5oyDraYuINcBPgP17Rj0CHJiZv+w/lSRpSK4ATKZq+f/jQ1/8ATLzFuDigqhnAMcV5EiSBmYBmMzJBRkP050eOJbPF+WcUJQjSRqQBWAyRxRkbB7j2/8emfkTurMF+rIASNIcsgBMpuL1t68WZPRVMcOLCjIkSQOzACxSRKyi5hTFqwoy+qqYwb0AJGkOWQAWr+qCt60op4/bCzKeXZAhSRqYBWDxfqsgYyfws4KcvipKyKqImNZRyJKkKalYygZ4f0T0fRf8s5l5f8k001WxArA9Myv2X+irYuvh5cBK6rYYliQNoKoAfLQgYz0wDwWg4ljdWVk2r5jjocz04i9Jc8ZbAItXsWf//hExCyXg8IKMiucIJEkDswAs3s1FORUX374qZpiFhxklSYtkAVikzPwZ8EBB1IkFGX1VzOAKgCTNIQvAZG4pyPjDgoy+KmZwBUCS5pAFYDIVtwFeFxG/WZAzkYg4ElhXEOUKgCTNIQvAZLYWZKwE3laQM6mzi3JuKMqRJA3IAjCZbxXlnBcRK4uynraIWA38dUHUTuAbBTmSpIFZACbzdeChgpznAe8vyFms84CK2w//npk/L8iRJA3MAjCBzHwQ+GZR3Eci4riirH2KiFOoW/7fWJQjSRqYBWByG4pynglsiojnFOU9qYg4Bvgy3fa9fSWwqSBHkjQCC8DkLgN2FWWtATZGxIFFeb9m4b7/JmBVUeT3MtNXACVpTlkAJpSZ24FvF0a+Erg6In6nMBOAiDgB+E/g6MLYqhUQSdIILAD9/H1x3rHAtRHxhqrAiHgn8B26Bw6r3Ad8vjBPkjQwC0APmXkZcGVx7CHA5RFxeURMvFFPRJwUEdcCX6Lbc6DS+Zl5b3GmJGlAQfcw1yw4MjO3jj3EYkXEy4Br6f4tq+2me9ZgA/C1hdsOTzXL8+i2930L8OopzAPwU+DozKx4DVKSNJKqAvBFuk1h+vjIvi5wsyoi1gNnTfljHgW+R7cL4Ta6LXiXA6vpTvVbC/w+0ykie3t3Zn5hyp8hSZqyqgJwcGbeV5AzlyLiKODHwH5jzzJl/w28ODMfHXsQSVI/PgNQIDNvBC4ee44BnOPFX5KWBgtAnXOBq8ceYoo+lZlfG3sISVINbwEUiojD6O7Trxl7lmIbgD/KzFl5YFSS1JMrAIUy807gzcADY89SaAvwDi/+krS0WACKZeZ1wNvpXuGbd3cCpy4cfiRJWkIsAFOQmZuAD489R087gNMy89axB5Ek1bMATElmXgi8h/77I4xhK/CqzLxm7EEkSdNhAZiizLwEOIlu05558V3gxMy8fuxBJEnTYwGYssy8CjiB+XhF8IvAyZl599iDSJKmywIwgMy8HXgNcMnIozyZXXSb/PxJZs7jLQtJ0iJZAAaSmTsz8z3AmcANY8+zl68Ax2bmRWMPIkkajgVgYJn5r8DvAe8D7hlxlM109/rfkpn/M+IckqQRuBPgiCLiQOAc4E+B5w70sVuAD2XmFQN9niRpBlkAZkBErABOAd5Ft5Pg/sUfcR2wEdiYmT8szpYkzSELwIyJiGcDbwJeAbwcWAesWGTMLuAqHrvo31Q6pCRp7lkAZlxErKR7jXAtcNDjfh6m22Ng28LPnj/f5bG9kqSnYgGQJKlBvgUgSVKDLACSJDXIAiBJUoMsAJIkNcgCIElSgywAkiQ1yAIgSVKDLACSJDXIAiBJUoMsAJIkNcgCIElSgywAkiQ1yAIgSVKDLACSJDXIAiBJUoNWFOWcHBEPFmVJkqQpCyDHHkKSJA3LWwCSJDXIAiBJUoMsAJIkNcgCIElSgywAkiQ1yAIgSVKDLACSJDVoGbBj7CEkSdKwlgFbxh5CkiQNaxnwg7GHkCRJw1oGfGfsISRJ0rAiM4mIK4DXjz2MJEkaxp4C8HzgemDV2ANJkqTpWwaQmbcBZwJ3jDuOJEkawv/vA5CZ3wReBFw63jiSJGkIkZm//h8jXgy8AngZcBzwGwPPJUmSpugJC4AkSVra3ApYkqQGWQAkSWqQBUCSpAZZACRJapAFQJKkBlkAJElqkAVAkqQGWQAkSWqQBUCSpAZZACRJapAFQJKkBlkAJElqkAVAkqQGWQAkSWqQBUCSpAatGHuApSgiDgWe2TNme2bu6DnHwcCqnnPcn5n39sxYMiJiP+DwnjG7MvO2nnMsA9b0nIPM3No3YymJiMOAlT1j7s7MB3vOcQhwQM857s3M+3tmLBkRsRI4rGfMzszc1nOOFcDze86xOzNv6ZlBZGbfDD1ORKwHzuoZ897M/FzPOc4H/qbnHBdk5od6ZiwZEXE88MOeMTdn5gt6znEQ0LuYZWb0zVhKIuLrwCk9Y96amet7zvE54M97zvHhzDy/Z8aSERFvAC7vGfOjzDy+5xwvAG7qOcf9mXlQzwxvAUiS1CILgCRJDbIASJLUIAuAJEkNsgBIktQgC4AkSQ2yAEiS1CALgCRJDbIASJLUIAuAJEkNsgBIktQgC4AkSQ2yAEiS1CALgCRJDbIASJLUIAuAJEkNsgBIktQgC4AkSQ2yAEiS1CALgCRJDbIASJLUIAuAJEkNsgBIktQgC4AkSQ2yAEiS1CALgCRJDbIASJLUIAuAJEkNsgBIktQgC4AkSQ2yAEiS1CALgCRJDbIASJLUoP8DOA4dwQ72QlsAAAAASUVORK5CYII=;" vertex="1" parent="1">
          <mxGeometry x="264" y="332.5" width="29.5" height="29.5" as="geometry" />
        </mxCell>
        <mxCell id="RO8CWs9kd0AewVBDbx6X-36" value="" style="shape=image;verticalLabelPosition=bottom;labelBackgroundColor=default;verticalAlign=top;aspect=fixed;imageAspect=0;image=data:image/png,iVBORw0KGgoAAAANSUhEUgAAAgAAAAIACAYAAAD0eNT6AAAABHNCSVQICAgIfAhkiAAAAAlwSFlzAAAOxAAADsQBlSsOGwAAABl0RVh0U29mdHdhcmUAd3d3Lmlua3NjYXBlLm9yZ5vuPBoAACAASURBVHic7N153KZj+cfxz9cuSvYM5ZcsETGyFbIUIluE0F6KpJ1Kv4rSQqSohIRSyb5F/eyUXdlJKbJlX7POzPH747xGM8zM8zz3fVzXdS/f9+v1vHjVM8d1YOY5j/u8jvM4BQTdmzciHk2IY2ZmZg2Yqe0EzMzMrHkuAMzMzIaQCwAzM7Mh5ALAzMxsCLkAMDMzG0IuAMzMzIaQCwAzM7Mh5ALAzMxsCLkAMDMzG0IuAMzMzIaQCwAzM7Mh5ALAzMxsCLkAMDMzG0IuAMzMzIaQCwAzM7Mh5ALAzMxsCLkAMDMzG0IuAMzMzIaQCwAzM7Mh5ALAzMxsCLkAMDMzG0IuAMzMzIaQCwAzM7Mh5ALAzMxsCLkAMDMzG0IuAMzMzIaQCwAzM7Mh5ALAzMxsCLkAMDMzG0IuAMzMzIaQCwAzM7Mh5ALAzMxsCLkAMDMzG0ICIiHOncCkhDjd2iQibmo7CTMzs143S1KcVyfF6dZsbSdgZmbWD/wKwMzMbAi5ADAzMxtCLgDMzMyGkAsAMzOzIeQCwMzMbAi5ADAzMxtCWccAzaxDkmYHFgAWrL4m//1zwB3Av4B/RcQTrSVpZgPHBYBZwyQtDrwD2Bh4KzDvKH/do5Ri4J/AWcApEXFfXXma2WDLmgTYK8ZHxDVtJ2E2JUkzA+tTFvx3AMsmhZ4E/BE4ETgpIu5KimtmQ8AFgFlNqoV/e+B/gWVqflwAVwCHAkdHRC+M5jazHuYmQLNkkmaW9F7gRuCX1L/4QynmVwd+Dlwtab0GnmlmfcwFgFkiSTvQ7MI/LSsB50k6VdJSLeVgZj3OBYBZAklzS/ot8CvaW/hfbHPgRkkHSpqn7WTMrLe4ADDrkqTlgCuBbdvOZRpmBT4DXCbptW0nY2a9wwWAWRckvYfSfPf6tnMZwespRcCqbSdiZr0h6xTAW4FeGFLy14h4uu0kbPBVHf4HAru1ncsYPQXsEBGntp2ImbUrqwCYNyIeTYhj1hckHQp8rO08OjQJ+GxEHNR2ImbWHr8CMBsjSV+kfxd/KH/ufyhpj7YTMbP2eAfAbAyqd/6/pvzZ6XcTgQ0j4ry2EzGz5rkAMBslSWsDZwOzt51LovuBlSPi7rYTMbNm+RWA2ShIWho4hcFa/AEWAo6TNGvbiZhZs1wAmI3Oz4D52k6iJm8Bvtd2EmbWLBcAZiOQ9G5g7bbzqNmnJW3adhJm1hz3AJjNgKTZgZuBpqboPQzcVf11YWAx4OUNPft6YMWIGKQbQs1sOmZpOwGzHvdp6l38bwZOr76untYgq2qO/1rAZtXXuJpyWQHYGjihpvhm1kO8A2A2HZIWAv4GvKKG8BcAe0TElWPMScCWwHeBpWvIy7sAZkPCPQBm0/dN8hf/fwKbRsR6Y138AaI4GXgDsCv5I7gn7wKY2YDzDoDZNFTb7veRe+zvfGCbiHgoK2B1E+FpwOuyYuJdALOh4B0As2nbmtzF/3DK1L20xR8gIm4CVqUUF1lWADZMjGdmPcgFgNm07ZgY61Tg4xExITHmCyLiEWAL4MbEsO9MjGVmPcivAMxeRNI44E5yCuTrgbdExJMJsWZI0hLAFcD8CeFujYhlEuKYWY/yDoDZS21Dzp+N54Gtm1j8ASLiH8BHksItLamp2Qdm1gLPATB7qTWT4hwaEX9LijUqEXGqpD9S5gZ0ayPgpwlxzAaKpDmBRauvcVP8/aKUk0P3AfcC91Rfk//+roh4vo2cp8WvAMxeRNJtwBJdhnkSeF1E3J+Q0phIegvwp4RQp0TEuxLimPU9Sa+h9NpsCbyVzj5APw78ntIXdFbVv9MaFwBmU5D0SiDjD+VPImLXhDgdkfQnyiU/3XgCmMfHAW1YSVqRsuBvAYxPDj8BuJhyjPeUiLg9Of6I3ANgNrWVk+KckhSnzee/nMG9AdFsuiStLulC4BpgL/IXfyg7COsBBwK3Sfq5pMVqeM50uQAwm9qKCTEeo4z6bVNWAbJgUhyznidpSUnHAZdRtvmbMhPwIeBWSd+tdiIbeaiZ/VfGEboL2m70qZoP70gItVBCDLOeJmlBSQcDN1FOAbVlTuCLlB2Bz1W3kdbGBYDZ1DKu3r0zIUaGjDxcANhAk7QJ5dKvTwKztpzOZPMBBwBXS8oc8z0VFwBmU8soAO5JiJEhIw8XADawJH2BchX3PG3nMh1vAK6QtH4dwV0AmE0towC4NyFGhow8XADYwJE0m6SjgO/R++vgfMAfJH0yO3Cv/4ObNW2OhBhzJsTIkJHHbAkxzHqGpIUol2d9oO1cxmAW4GBJh0lKe03hAsBsahmDe8YlxMiQkUev9DOYdU3SIpT7MrqdkdGWnYBTJM2cEcwFgNnUMt6bL5IQI0NGHv9KiGHWOklzUI7HLt52Ll3aBNg/I5ALALOpZRQAyybE6IqkWYAlE0K5ALBBcTiwWttJJPmMpK4v/nIBYDa1jAJgjeo9Y5vWJaez2QWA9T1JuwPvbTuPZD+R1NWlXy4AzKZ2e0KMmYDNE+J0Y8uEGI9HxGMJccxaU53z/27bedRgNuAkSf/TaQAXAGZTu55yY1e3dkiI0ZFqethWCaEyJgmatUbSOOA3DO5atyBwnCR18osH9V+KWUciYhI5V+muV9fwjlHYlZwGwAsTYpi1aS/gFW0nUbNVge07+YVZ1wGfBHQ7+3y3iHggIRezrkj6EvCdhFBXAqs3eZ2upHmA28i502DdiHARYH1J0uuBG4CUI3MzcC3l1sB7KT1Ej1MGaI0DFgXWBl5Vcw63A8tExHNj+UVZBUCG17ZxH7LZi0l6Czm7AAAfi4jDk2KNSNKPgU8khLofWKTaETHrO5JOAt5VU/irgGOAU0dat6rt+TdT+nI+BCxQU06fi4gDx/ILXACYvUg1aesucsbgPgesHxFZBcV0Sfoo5ahThkMjYuekWGaNkrQGcGkNof8KfCUiTuzkF0t6ObA78DlgrszEgIeB10XEo6P9Be4BMHuR6irfI5LCTe7UrXX4iKR1gJ8khjwhMZZZ0/ZNjhfA14DlO138ASLiiYj4GmVGxwVJuU02H/DlsfwC7wCYTUN1tOY28orke4AtIuKqpHgvkLQtcCTwsqSQDwGviogJSfHMGiNpdeCyxJD/Ad4bEackxpy803gw8PHEsE8CC0TEs6P5Zu8AmE1DVYz+PjHkOOAiSR11606LpJkkfQv4LXmLP5ThP71yL7rZWGW+938CWDt78Yey01i9ZvtqYti5gbeN9ptdAJhN3yHJ8eYEfi3pdEnLdRNI0obAn4E9UzKb2njgT90MGDFrUcYQLIBJwI4R8ZekeNMUEfsARyWGHPU/v18BmM2ApIuBrsZtTsdEyh/6o4BLRtNtX11msgHwSWDDGnJ6sYeBHSLiDw08y6xr1dG/m5PC7RkRGceBRyRpNuA8YM2EcPcB40b1MwUXAGbTJWkl4Grq3S17ADi9es49lPPEj1BOISxCeX2wNvAO8juHRzKJ0vz07SbnGZh1InGGx3XA+CaPwUpaljKJNGNuwZoRccmIz8QFgNkMSToEGPYjcacB74uIjDHJZrWQdBmwekKod7Sx8yXpZ0DXt/wB34uIPUZ8Hi4AzGZI0vzArZRjNsPsVmCriLix7UTMXkzSgpTt747m4k/hvIgYdSNdJkmLUk4fzd5lqOsj4o0jfZObAM1GEBEPkXtUp18tDVxeHTs06zVL0P3iD3B0QoyORMTdwDkJoV47mm9yAWA2ChFxAvCttvPoAXMBv5W0v6RZ2k7GbAoZF2BNAs5MiNONjCOHc0sa8RIkFwBmo/c14Iy2k+gRnwfOlpQxLtksw7iEGJdGxIMJcbpxOqUQ6daI/z5cAJiNUtURvCNwS9u59Ih1gauryWtmbcvYAfhzQoyuRMR9wN0JoRYd6RtcAJiNzROUY3tWLEaZcOgeCWtbxg7APQkxMmTk4QLALNlHKWfy7b9mA34q6YhqWJFZGzJ2AO5NiJEhI48RC6KsJp7PAU93GeOhjETM6iJpYWC/tvPoYR8GVpS0dUTc0XYyNnQyjuk+lhAjwyMJMeYd6RuyCoAjx3IHsVmf+iHwyraT6NDzlMaibs8Xj+RNlL6A90RExnEms9HK2DZ/dUKMDAsmxLh/pG/wKwCzUZC0MbBd23l06BbgzZRXF3c28Lz5gd9XY1nNmvLPhBhLJMTI0Eg/gwsAsxFImov8mwGbEMCPgJUj4uqIuJLyCf28Bp49M/AdSSdJenkDzzNzATC1EfsIXACYjWxvYPG2kxijS4B1I2K3iHihPyciHqDcJPi9hvJ4F3BFddGJWZ0yCoAlE2J0RdISwKsSQnkHwKwbksYDn2k7jzG4Btg0ItaMiIum9Q0RMbG6KGQb4MkGcno9pQjYuoFn2fDKKACWldR2EbBZUhwXAGadkjQzcDg513PW6Wng15RP9itHxO9G84uq8carAX+tMbfJ5gZOkLRv9e/VLNvtCTFEOerbpowC4MmIGLG4dwFgNn2forwzz3IOZZH+PtDtjXoPUmaGfxxYJCJ2jIizI2JMt3tGxM2UIuDkLvMZrT2AP0haoKHn2ZCIiKcotwF260OSZk2IM2aSXk+ZsNmtm0f1PHKuA57XxwBtkEh6DXAT5fKbDE8DK0TEbVM8YzHK4rs0sFT1tTDleO7kr2coY0Hvqr5uBf4YEanjiCUJ+BKwD818MLgT2LpqTDTrmqTXAReR00C3TbVD1ihJJwNbJoT6ekR8Y8Tn4QLA7CUknQ5smhjyyxHx3cR4tZC0AfAbylG+uj0LfDIiftbAs2xAVad0vkIZSJc15+LvwCoR0dhgIElrAn9MCrdSRFw74jNxAWA2FUnbAMclhrye8m5+QmLM2khaHDiR3NcfM3I4sFtEPNvQ82xASNqBMp1zxLn3HTglIt5VQ9yXkDQvcAU5pxD+FRGjOrXkHgCzKUiaBzgoMeQkYKd+WfwBqjG+awFHNvTInYCLJfXKFDbrcZLGS/oj8CvqWfwBtpS0R02xX1A1xR5H3hHE00b7jS4AzKa2LzlncCc7JCIuT4zXiIh4JiI+DOwMPNfAI1eljBBev4FnWZ+StICkQ4GrgDUbeOS3JWW+CpyKpJmAnwBvTwx76qifj18BmAEvvIO7mPLnIsPdwHIR8XhSvFZIWp3ySqCuT1pTmkjpl2hqUJH1gepT8icoQ7lGvOQm2STgm8A3ImJSVtBqt/E3wMZZMSmXCC0cEc+P5pu9A2AGSJoNOIy8xR/Ke+2+XvwBqh2MlYELGnjczMB+ko6XNHcDz7MeJ2k9yoCrg2h+8YeyTn4dOCvr+KqkVYDLyF38AfYb7eIPLgDMJtsDWC4x3ikR0dTZ+tpFxP3ABpQZBk14N3C5pGUaep71GEmLSzqecnfF8m3nQ5nhca2kL0jq6JSMpP+R9GtKw9/rU7MrO44/HFM++BWADTlJSwPXkXeE6Alg2Yi4OyleT5G0HXAEeTMSZuRx4AMRcUoDz7IeIGlO4IuUonzOltOZnmcojXuHAFfM6NVA1eG/KeV8/6bAbDXltNNYj9S6ALChJ+k8YL3EkLtFxI8S4/UcSW+gTA9cqoHHBfBd4H8z38Fa75H0bmB/+uvyrWcpY4j/UX3dT2kkXgx4NWX3Ypaac7gFWD4iJo7lF7kAsKEm6UPAzxNDXg68ZRgWqqqJ6RfA5g098mxg+4h4qKHnWUMkLU95x59ZiA+TrTp55egCwIaWpAUplfN8SSEnAG+KiOuS4vW8aoTwnsA3aKan6A7KD7s/N/Asq1m1Pb43pcPfl0R15vyI6Oj4rJsAbZgdSN7iD3DAMC3+AFF8C9gEeLiBRy4O/EnSBxt4ltVE0kySPk6522I3vPh36g5gu05/sXcAbChJ2hD4Q2LIf1DewT2dGLOvSHotZV7A+IYe+VPg0xHRxKAiSyJpLcp2f1O/TwbVf4A1RzPzf3q8A2BDp+oyPiQ57M7DvPgDRMQ/KdPZftHQI3cGLpTUxIAi65KkRSX9ijJsy4t/dwJ4fzeLP7gAsOH0dWCJxHjHRMTZifH6VkQ8HREfAHYFRj2QpAtrAH+WtE4Dz7IOSJpd0peBvwI7tJjKg5SBQoNg74g4qdsgLgBsqEh6I/D5xJAPUa4htSlExE+AdYB7GnjcQsA5kvzfocdI2hy4Efg2zcyNmJYJlFcOSwFvoRxf7We/pDTdds0FgA2N6uKNw8k9k/uFiHggMd7AiIhLKSOEL27gcbMAB0g6trof3lokaRlJv6dcTPO6FlM5DxgfEZ+OiEer13TvBvpxTkcAX4+I90dERu+eCwAbKrsCqyXGOz8ijkqMN3Ai4j5gfcY4orQL2wGXSWpiQJG9iKRXSNofuB7YqMVU7gC2iYi3RcQNU/4fETEpInajTBpMWUgb8BTlnyflk/9kPgVgQ0HSYsBNwMuTQj4DvDEi/pYUb+BJ2h74GfCyBh73GKVJatR3o1vnqnkQH6BMbFy4xVSeBvYD9h1NU66k9wBHU9943gx3AptHRHr/gncAbFj8iLzFH+BbXvzHJiJ+Q2na+3sDj5sHOEXSN6tXP1YTSatRbrY7knYX/xMpd3DsNdoTORFxLPBW4KpaM+vcRcCqdSz+4B0AGwKS3gV03TE7hRsp7xWb6HIfOJJeSWlk2rShR/4e2DEimhhUNDQkLUz5xP8Bcq/RHqsbgU9FxHmdBqh2MN4HfAcYl5VYF24F9oyIE+t8iCtjG2iSXgEcnBgygI978e9c9WFhc8pxzCbuTHgHcJWklRp41sCTNKukz1MWqQ/S3uL/KPBpYKVuFn94YaLlL4ClgW9SXiW04T7KWOQ31L34gwsAG3zfBjIHxRwaEX9KjDeUqh+43wA2Ax5p4JGvBS6R9L4GnjWwJG1EafDbH3hFS2lMopzmWToiDoqICVmBI+I/EfE1YBnKQKunsmKP4AlgL2DJiDgk859pRvwKwAaWpDWAP5FX6N5Lecf4WFI8AyQtQXlFs2JDj/wx8Fnv4oyepNcB36e5mx+n5xLKdv/VTTxM0suAjYGtKa+sMvuI7gdOA04Bzo2IZxJjj4oLABtIkmYFrgZWSAy7TUSckBjPKtUP2sOAHRt65CWU/55NDCrqW9VMha9Qhl3N3mIq91KO7f0q6wz8WEmaHdiAUgy8ndIrMJYPFxOA24DTKYv+pW1fG55VAOxNORbVtp9HxP1tJ2Htk/QlSkNPljMiYrPEeDYNknYDDgBmbeBx/wa2jYhaBxVVxehClA75V1V//zRlSuI9wD29eI+EpB0oR+ravGvhOcqtnftExJMt5vESkmYGFqH8+5n8tRgwL+XT/d3V1z3VX+9re8F/sawCoFeMr+u4hPWParvyemDOpJBPUppy/pUUz2agui3uOMoP17pNAD4fEQdlBKsWhfHAesC6lMFT8zNyo9yjlIXiX8A5wGltHTOVNJ4yOnetNp4/hTOBz/i4bX1cANjAkXQ2ZYsuy2cj4geJ8WwEkhYBjqfcLtiEXwM7RcSYm74kzQa8B9gWWJu85ribKe+ITwMuq/vTo6QFgH2AnWi3QfxvlD9zv2sxh6HgAsAGStXlnXkd7VXAGhExMTGmjUK1dX4AsFtDj7wO2CoibhvNN0uan3Il8a7Uv1txP6VH4nsR8Xhm4GrX4hOUV7nzZsYeoycpBciBEfFci3kMDRcANjCqH8i3AAskhZxImcL1l6R41gFJ76UsflmvdGbkUeC9M/r0WY2V/gplAE4TOU3pQcoieUjGIilpPcp2//LdxupCAL8C9oiIe1vMY+h4DoANkgPIW/yhfBLx4t+yiDgGeDPwjwYe90rgdEl7VdPhXqBiZ8qdEjvT/OIP5ff3D4BbJO3w4hxHS9Liko6n3JbX5uL/Z2CtiHifF//meQfABoKk9YFzE0PeTmn8a2oQiI1A0ryUT4obN/TI31F2Ax6VtCTlIqN1Gnr2aP2FcunRDSN+JyBpTspxui/STgEz2QOUXZQjeq0zfpi4ALC+J2kOyvvbzCtgN4mIsxLjWYLqYp+vA1+lmRG0twG/AT5PuwvmjDwB7BARZ8zomyS9mzLBb/FGspq2CcBPKPfae3ZMy1wAWN+TtA/l00SWYyNi+8R4lkzSppQLhV7Zdi49YhLwxYjY/8X/h6TlgR8C6zee1dTOo0zxu7HlPKziAsD6mqQ3ULZBswbHPEIZ93tfUjyrSbUtfxK50x773VGUy6qeq16Z7E3p8J+5xZzuoMxaqP1yGxsbNwFa36oaoA4jd2rcHl78+0NE/B1Yg7JFb8UHgXOriYq3Uo5QtrX4P0254GZZL/69yTsA1rck7UJ5n5jlImDdtmaNW+ckfQb4HjBL27kYACdSPvXf0XYiNn0uAKwvVZPibgbmSQr5HLBiRNySFM8aJumtlBHCC7edyxC7kfKe/7y2E7GR+RWA9auDyVv8Ab7jxb+/RcRFwMrApW3nMoQeBT4NrOTFv3+4ALC+I2kzypWcWW4Bvp0Yz1pSXe+7Drmvhmz6JgGHA0tFxEERMaHthGz0XABYX5E0N/DjxJBB1TWdGNNaFBHPR8SulIa4nrtmd4BcQhmV/bGIeLDtZGzsXABYv9kHeHVivCOqrWMbMBFxNOU2wdtbTmXQ3AO8jzLC989tJ2Ody2oCPJLSRNW2fSLirraTsHpIWhW4jLzC9T7KEaVHkuJZD5I0H+W6341aTGMC5ffbvdXXbJQbBMcB89PMVMNuPQccSPk5+2TbybRJ0v8AbwReVX0tMsXfvwp4CrgbuKv6mvz3dwI39Mr446wCYF6PdbQ6SZoFuBJYKTHs9hFxbGI861HVCOFvAHvS3GL7b+B04BTg3Ih4djq5zQdsBmwJbAi8rKH8xuJ3wGcj4m9tJ9KG6vfPGpT/TpsBb+gi3APAqZQhVue2+frRBYD1BUm7A/slhjwrIjZJjGd9QNIWwC+AV9T4mLso9xUcHRETx/ILq+l9XwI+BcxRQ25j9TfgMxFxZtuJNK0aNLY5sBWwCbk3jU72GHAGpRg4KyIa7VlxAWA9T9JrgRvI+2T0FOWmv9uT4lkfkbQ05QduN5/ipmUC8DXKNdLPdBNI0mKU6623zUisA08C3wR+MIwNspLeQTkZNL7Bx95DKRyPHGvh2Ck3AVo/+Am526Jf9+I/vCLiVkoBkOkRYKOI+E63iz9ARNwVEdtRdgOafF8cwDHA0hGx37At/pLWkHQ+cBbNLv5Q+kEOB66V9M4mHugdAOtpkranNHBl+Qvl6FIjFbb1Jkk3AcsmhbudsvjfmhRvKtXci+OB2euIP4WrKVP8Lqn5OT1H0jLAdyl9GL3ifGD3iLi6rge4ALCeVb0PvQVYKCnkRGCNiLgqKZ71IUnLUUbWZngCeHPdV9xKeh+ld6EOD1Cu0z6iV7rTmyRpa+BoYK62c5mGAL4FfK2OO0r8CsB62ffIW/wBDvbib8C7k+JMAnZo4n77iPgluU2wUHoWDqJs9x8+bIu/ir0puyu9uPhD+ZD+v8BxkuasI7h3AKznSFqHsgWWdWTrX5TGv6E+v2wg6TpghYRQB0bE5xLijEp1FO1yYJWEcPcAGzZRvPSiaqLoL4B3tZ3LGFwFbFGNu07hAsB6jqTZgWuBZRLDbhYRZyTGsz5UnQD4a0Kox4AlIuLhhFijJultwDkJoR4F5hvGq6+rU0WnAcu3nUsH7gY2z5rA6FcA1ou+TO7if4IXf6tskRRn36YXf4CIOBf4v4RQrwSWTIjTVyS9CriQ/lz8ARYFLpa0dkYwFwDWUyQtSykAsjxGGapiBjmF5XPkXkg1Vt9PirNaUpy+IGkOylTGzLtE2vAy4ARJr+k2kAsA6xnV5K1DKXPSs3wpIu5NjGf9resfmsB5EfF4QpxOnU8pbLu1akKMfnIksHrbSSRZCDi528ZAFwDWSz4KpGxtVS6hFBRmk2UUACcnxOhYNZwnYzTv0gkx+oKkrwHvaTuPZCsDR3QTwAWA9QRJC5N7zOl54GPD2ORkM5Sx/XteQoxuZeQwX0KMnidpW2CvtvOoyfaS9uj0F7sAsF7xQ0pjUpZ9h/WIk02bpAXIGSl9d0KMbmVcez7wBUD1weII+uO65U59pzo2PWYuAKx1kjYBtksM+TfK9CyzKWVs/z/a9I1t05HR1zJvQoxetzcwd9tJ1GwmYP+qh2pMZqkhGbNRkzQX5bKfTB/PuJDFBk7GFcD/ToiRISOPeRJi9KzqRNFHG3rcY5Si7B7gcUqT3jhgEeq/wwHKcKitgRPG8otcAFjb9gYWT4x3VEScnxjPBsdDCTFenhAjQ8an2kEf3rYfMHNNsScCF1OOFZ46vdtFq0/la1AmDm4JLFVTPgD7SDp5LBedeRKgtUbSeOBK8v6QPgAsGxEZP+htwFRDYLrdOp8AzN723PxqEMxFXYa5NiJWysin10haj3qaNQM4FvhKRPxzrL+4et25L/UNItopIn422m92D4C1QtLMlLuvMyv0z3nxtxl4MCHGLMCCCXG6NS4hxiDPx9i/hphXAatFxA6dLP4AEXEmsBLl1UQdsyT2qgYejYoLAGvLp4A3JcY7OyKOSYxnAyYiJpCz7d0LY2QzLjNKu1Sml0halXJGPtMvgbUzbhONiIkRcQRlKNHfus5saosCHxztN7sAsMZVIyy/mRjyaWDnxHg2uB5IiJF1n0A3Nk+IMag7AFslx/tSRLw/u7E4Im6hjGPO7lka9T+/CwBrw0/IvX9774j4R2I8G1z3J8RotQCQtATeAZiRzCt+fxAR+ybGm0rVO7clcHNi2HUkjerEiwsAa5SkbYB3Joa8DjggMZ4NtssSYrwm6za2Du2YFOeOpDg9Q9Jy5N0keg7whaRY01XdK7EZkHW75GzARqP5RhcA1hhJrwQOSgw5iTLud0JiTBtsf0iK08qgKUnzAZ9PCPUscEFCnF6Ttf3/GLD9WI7UdSMibgN2SQw5qldELgCsSd8FXpUY7ycRcXliPBt8F1F6mgZgvAAAIABJREFURrq1tqRNE+KM1Z7kDPA5NyL+kxCn12Rt/38nIjJOjYxaRBxHORadYZPqpNUMuQCwRkhaE/hYYsi7KT8MzUYtIjI/+X5fUmPT9Kq5GZ9MCndaUpyeIWl+crr/76TcTdKGLybFmQ9Yc6RvcgFgtZM0G3AYuRdyfDIinkiMZ8Mj6zXAUsBxo/mk1S1Ji1AW7YyxsgGcnhCn12Tc9QBlZ7GVUeLVFNNrksItO9I3uACwJnwRWC4x3ikRcUpiPBsuWQUAwIbk9rW8RHVfxqnAYkkhr4qIQTwBsGhSnLZ3R7J+ti080je4ALBaSVoa+EpiyCfI2wa1IVSdv87sHfmEpGMkpV/6Us3M+BOwamLYthe4umQUSLdFxE0JcbpxclIcFwDWukPJvQ1rz4johfvYrb/tlRxvR+D86r6BFJLWojSFrZgVE3gKOCIxXi/JKAAuSIjRlYi4jpyLq0b8vegCwGoj6UPAuokhLyf/6mAbQhHxe+CK5LBvBv4q6X+rbfuOSPofSb8ELqRcK5vpwIgY1AmAGQXAXQkxMmTk4R0Aa4ekBcm9kGMC5cx/q7ew2UDZu4aYr6CMuf67pK9Ug2lGJGlmSetIOgT4K/Be8n8+P0i5IndQZRQAvVIcZeQxYgEwS8JDAN4mqdszpRdGRMb5XOsNB1KOomTZv9oaM0sREWdKupLc9+uTvQrYh3JH+98ojYd3UH6w30uZ1rYI5Va/pYFNgAVqyGNK+1RT5wbVqMbfjuDfCTEyZOQx4q2VWQXACQkxXgvcnhDHWiZpQ/LGlQLcBnwjMZ7ZZHsDZ9T8jKWqrzb9Ezik5Rzq9lhCjLkTYmTIyGPEY9J+BWCpJM1J/g+aXbw7ZHWIiN9RrnoddHtGxHNtJ1GzRxJijEuIkSEjjxH7CFwAWLavA0skxjsmIs5OjGf2YjsD17edRI0Oj4hj206iAY8mxFgkIUaGjDxcAFhzJL2RnItKJnsI+FxiPLOXiIingK2BQXw/fjGwa9tJNCSjAHhDQoyuVOOlGznR4ALAUkiaCTicvL4SgC9ExAOJ8cymKSL+Bnyo7TyS3QFsHRHPt51IQ25PiLGupJcnxOnGJsCsCXFcAFhjdgVWS4x3fkQclRjPbIYi4iRyj6626T/AFkNWQGfMdZiNMt65TVsmxRlxYJoLAOuapMXIvR/9GeDjifHMRutLwM/bTqJLk4D3R8S1bSfSsGspPzu6tUNCjI5ImpeyA5DhjpG+wQWAZfgRkLlttk+1JWvWqIiYGBEfoTSz9qPHgU2r3YyhUr3q+HNCqK0kZe5mjsWXyTkC+AhljPQMuQCwrkh6F7BFYsgbGexpZdYHIuIbwAeBfnp/fhuwRkSc1XYiLcq65KnxV0HVTupuSeF+FxETRvomFwDWMUmvAA5ODBmUcb/99EPXBlREHE3Zju2H0wHnAatFxM1tJ9Ky05PirC3pg0mxRiRJlJ+lcySFHNWNgi4ArBvfJu8OboBDI+KSxHhmXYmIc4C16O05AYcAG0XEw20n0gMuAO5MinVIg68C9iav+e9p4Pej+UYXANYRSWsAuySGvJfSgGXWUyLiemA8pTH1/pbTmdI1wIYR8YnRbPcOg4gI4NdJ4eYATpaU+SHnJSS9B/hqYsj/q2ZbjMgFgI2ZpFmBw8j9/fOpiMiY5W2WrmoOPIwy038/4NkW0/kX8H5gZU/JnKZjEmONAy6TtEpizBdI+hy5+cIot//BBYB15gvAConxTo+IjAulzGoVEY9HxBeBZSmXoEWDj38E2B1YOiJ+WX3atReJiBsYRQf8GCwGXCzpvVkBJc0p6RfAAcDMWXEpO1QnjjoPmv0NPCOvjYjb207CZkzS6yjvQ+dMCvkksFxEZL23M2tM1bm9FWWU8Frkf6h6GjgbOAU4OSIyxt0OPEkbMcr34GN0DrB7RFzTyS+uJqa+l3JV9KszE6vsEhE/HXU+uACwMZB0NvD2xJCfiYgfJsYza4WkhSiNXFsB69P5ONeHKVcUnwL8YbTvc21qks4H1q0hdAC/AX5BmVg64i2LkhYENgM+BaxYQ04ANwNvHEs/SFYBcAMwscsYm0TEPQm5WE0kvY/ymz7LVZRzy93+3jHrKdWFLktRTslM/ho3xd8/D9xDGdc6+eseyvz2G/xnonuSVgcuq/kxjwNnURoy76X8N3wcWIj//vdeB1iT3K3+adk8IsZ0DDKrAJjXW1ODTdL8wC3AAkkhJwKrdLqVZmY2EkmnA5u2nUcDLoiI9cb6i9wEaKN1AHmLP8CBXvzNrC5Vf0ZbI32bFJTG7DFzAWAjkrQ+8IHEkLfTv7PWzazHSZqDchxuobZzacCeEXF1J7/QBYDNUPUH6dDksLu4scnManQIUMvZ/R7zi4j4bqe/2AWAjeSrwJKJ8Y6NiDqO55iZIemTlIucBt0fgZ26CeAmQJsuSctTrtfs9DjTiz0CLBsR9yXFMzN7gaS3AucCs7SdS83+CaweEQ90E8Q7ADZN1e1Uh5G3+APs4cXfzOpQNf0dz+Av/o8Dm3W7+IMLAJu+nYE3J8a7CDgiMZ6ZGfBCr9JJDH7T3x3AOhFxY0YwvwKwl5A0DrgJmCcp5LPAShFxS1I8M7MXSDqSwX/vfwGwTUQ8mBXQOwA2LQeRt/gDfMeLv5nVYUia/n4MbJC5+IN3AOxFJG0GnJYY8hZgxdHMyzYzG4uq6e8ccnuVeslzwCciopbXp94BsBdImptSaWYJ4GNe/M0s2xRNf4O6+J9JGZdeW++UCwCbUvYVlUdExMWJ8czMkDQ79TT9PUxpWG7TZZRGv3dGxPV1PsgFgAEgaVVgt8SQ9wF7JMYzM5vsp8CqyTEnAttFxDrA2kDTA8tuBt4VEW+OiEaKEBcAhqRZKGf+M38/fCYiHkmMZ2ZWZ9PflyLiHICI+GNEbAy8iTJWuOsz99PxEOWK9a2AFSLilJqeM01uAjQk7Q7slxjyrIjYJDGemRmS1qZM+st+739sRGw/g+fODKwPbAesByzRxbNupTRanwZcEhETu4jVFRcAQ07Sa4EbgJclhXwKeENE3J4Uz8xsctPf1eS/978WeMtYLiiT9EpgPLAysBQwHzB/9TUnZcfgXuDfU3zdC9waEX9Pzb4LLgCGnKTfAxslhvxCRByQGM/MhlzV9Hcx+e/9H6J02t+eHLcvuAdgiEnantzF/y/ADxLjmZlBfU1/7xnWxR9cAAwtSfOSu1hPBHZq832WmQ0eSbtST9PfFyc3/Q0rFwDD63vkvks7OCKuToxnZkOuavo7sIbQv/GrSvcADCVJ6wDnU/77Z/gXpfHvyaR4Zjbkamz6uwZYcyxNf4PKOwBDpmqmOZS8xR9gVy/+Zpalxkl/D1GG7Qz94g8uAIbRnsAyifGOj4gzEuOZmR1CfZP+bk+O27f8CmCISFqWsv01W1LIx4BlI+LepHhmNuSqpr8f1RDaR5RfZJa2E7CRVbf0jQMWqf46+e8nMfWQiX8Dd0fE49OIIcrWf9biD6WL1ou/maVw01+zvAPQg6rmly2ALYE1gLnH8MuDMtnqbMo92RdHxNOSdqLM+8/yJ2DtiMj4/WNmQ676uXcVsHBy6Gsok/6eTo7b91wA9AhJb6As+FtSLqDIatJ7FvhjFfOVSTGfB1aKiJuS4pnZEPOkv3b4FUDLJL0D+A6wUk2PmB14W3LMfb34m1kiN/21wAVASyStBuwLrNtyKmN1K7BP20mY2WComv4+VEPoPSLi3BriDgy/AmiYpKWBbwHvbjuXDq0fEee3nYSZ9b8ar/f9dUTsmBxz4HgOQIMkfRW4kf5d/I/04m9mGaqmv+PJX/yvAT6aHHMgeQegAZLmBI4Etms7ly48ALw+Ih5uOxEz629V099FwGrJoR8C3hQRdyTHHUhZPQDzlGPmrXui126jkzQOOBVYpe1cuvRZL/5mluQQ8hf/icC2XvxHL6sAuD0pTrfGU7Z/eoKkVSiL/7i2c+nS2RHxq7aTMLP+V3PT33k1xB1Y7gGoiaQNKFtc/b74Pw3s3HYSZtb/apz096uI+H4NcQeaC4AaSHo9pbllzrZzSfCtiPhH20mYWX+TtCj1NP39BdgpOeZQcAGQTNJ8wOnAPG3nkmRdSf59YmYdm+J63+wxvw9Srvf1mN8O+Ad7IkmzACcAS7adS6K3U64QNjPrVF1Nf9u56a9zLgBy/QhYr+0karCXpHXaTsLM+o+kT1BP09/ubvrrjguAJJI+BHy87TxqMjPwa0kLtp2ImfUPSWsBP6gh9K8ioo5mwqHiAiCBpLmAb7edR83GAb9Ujwx8MLPeVjX9nYCb/nqWLwPK8XngVQ0852bKzIV7gHspn8wXoSzOSwJL1Pz8jYCtgBNrfo6Z9TE3/fWHrFHAvWJ8RDQ6CEjSQsBtwNw1PeJC4GTglJGaXSQtB2wJbEN91wtfS/n3PEi/b8wskaQjgA8nh50AbOj7SPL4FUD3vkY9i/9lwNoRsW5E/HA0na4RcVNEfDsixlM+qd9SQ14rAlvUENfMBkDV9Je9+EOZ9OfFP5F3ALogaUngJnLfcT0J7BQRx3YbSNLMwK7A/uTm+JeIWDkxnpkNgKrp7zzy3/sfExHvS4459LwD0J3dyf2N/k/gzRmLP0BETIyIg4ANKLdkZRkvabPEeGbW52ps+vsz8LHkmIYLgI5V3fCZW+HXAKtFxA2JMQGIiAspQzjuTAz75cRYZtbHam7628pNf/VwAdC5Ncj7zX4fsHlEPJgU7yWqef6bA08lhVyjaoA0M/sJ+ZP+JuDrfWvlAqBzmyfFeZZyrCXz0/k0Vf0R7yen70OUY4FmNsRqbPrb3U1/9XIB0Lms7f/9IuLSpFgjiogTgWOSwrkAMBtiNU76OyYi6ohrU8g6BTBvRDyaEKcvSFoKuDUh1P3AkhHxREKsUZP0Gkr+s3cZ6gFgYc8EMBs+VdPf1eS/9/8zsJbf+9fPOwCdeWdSnG82vfgDRMS/KBcXdWtBwMcBzYZMjU1/D+BJf41xAdCZpRJiPAscnRCnU4clxXlbUhwz6x91Nf1tV31AsQa4AOjMuIQY57Xx6X+yiLiVcrdAtxZPiGFmfaLGpr8vuOmvWS4AOrNIQoxTE2J0KyOH7C1AM+tRNTb9/TIiflhDXJsBFwCdydgBuCQhRrcycnABYDYEPOlv8LgAGKNqAmDG1b/3JMTo1r0JMVwAmA24Bpr+nkmOa6PgAmDsFqD7Cvg54OGEXLqVUYS4ADAbfHVO+nPTX0tmaTuBPrRAQoyHeuTsfMbo4VdImj0ink2INXQkzQ+sCqwEvIxSlM9c/XXy3z9BuSvimoj4Z0up2pCStAv1Nf1dUENcGyUXAGOX8cl9voQYGTLymAA8nxBn4FXXM69B+SQ1+WuJMcZ4lKoYAP4C/CEi7ktO1Qx4oemvjuY8N/31AE8CHCNJM1HO8HdbPM0fEa2+BpC0MmWSVzfuiohXZ+QzqCQtAHwU2AV4TXL4CcDvgCOAMyNiYnJ8G1I1Tvq7mjLpz+/9W+YegDGKiEmU2/u6lXGSoFsZOdydEGMgSVpF0lHAXcB3yF/8oRSiWwCnAXdK+o4kF2TWlarp70Tqafrbyot/b3AB0JmM5rnshppOZOTgAuBFJK0u6TLgSuADdH/nwmgtAnwJ+Kukr0qao6Hn2uD5MbB6ckw3/fUYFwCdySgAsm4T7EZGDi4AKpJml7Qv8Cfyf3iOxZzAN4AbJWVdW21Domr6+0gNoT/vpr/e4gKgMxnn5zeQ9LKEOB2R9FrgjQmhXAAAklalDDTZg9K53wuWAE6VdKakXnjlZD1O0prU0/T3i4g4qIa41gUXAJ25LSHGnMAOCXE6lVXh35kUpy9Jmk3St4FLgeXazmc6NgaulLRK24lY76px0t/VwMeTY1oCnwLogKRlgZsSQt0NLNX01ZeSFgH+Tjl33o0AxkXEv7vPqv9UOzhnAOu1ncsoPQ18OCKObTsR6y1V09+F5L+6egB4U0QM9QeFXuUdgA5ExM2UBbRbiwKfSYgzVnvR/eIPcNkQL/5zUY7f9cviD2XX6TeSvlmNtDabrK6mv228+PcuFwCdy7rN7yuSVkyKNSJJG5G3/X9KUpy+MsXiv27LqXTqf6nnRjfrQzU3/V1YQ1xL4gKgc1kFwFzAaZIWSoo3XZJeD/yWvCa1k5Pi9A1JcwNnAuu0nUuXPiXps20nYe1y099wcw9Ah6qxrvcB8yeFvBR4R0Q8nhRvKtV7/wuBpZJC3hQRb0iK1RckzQacA6zddi5JJgHbRcQJbSdizaua/q4i53bTKV0FrO1hP73POwAdqkaunp4Y8s3ApZJelxgTAElvogylyVr8YTi3//dicBZ/KH/+f1l9CrQhMsWkv+zF/3486a9vuADozv5A5uz15YDLJb0jK6Ck9wMXUxoOszwH/CwxXs+TtBrljP+gmQM4UdK8bSdijapz0p+b/vqEC4AuRMSNwNHJYecHzpJ0lqSOB/VIWk/S5ZT85kzLrvjRMF1LW43UPYreGfCTbWFgv7aTsGbU2PT3OTf99Rf3AHSpeo/2N/IXWSjvaE+nNNudEREPjSKXLYBtqa9J7VHgdW3fZNgkSfsBu7edR80CWDciLmo7EatP9brnfPKH/RwdER9Mjmk1cwGQQNJ3KJew1GkicAVwO+Uugnspn0gXodzqtyQwnvLftE67R8T+NT+jZ0h6M/BH6t8te5wyMe1q4D9T/O+LACsCK5Azu2FG/gqsGBHP1vwca0E1Dvpq3PRnFRcACSTNQxkPnHUioFfdASwzTAuEpCuBukboPgocWX3dEBHT/bMoaSbKO9uPUXZ46ioG9oqIvWuKbS2pcdLf/cAqfu/fn9wDkCAiHqN0iA+6PYds8V+Nehb/B4CdgUUj4nMRcf2MFn+AiJgUEZdGxIcoDZ17AXX8t/i0pDpeZ1m7POnPXsIFQJKI+BHwq7bzqNEREfHrtpNo2CdqiHkKsHxEHBoRT3USICIerT6lj6dcPZxpXtq9pMqSSdqZepr+Puuekf7mVwCJqm7xC2j3Lvg6XAhsEBHPt51IUyTNR7msaY6kkJOAXSLisKR4AFQz/Q8Gdk0Me01EjE+MZy2psenvqGo3yvqYdwASVU0wWwJ3tZ1LotuArYdp8a98mLzFP4CPZC/+AFF8Evh+YtiVJK2VGM9aUDX91XG975XALskxrQUuAJJVt+NtDnS0vdtjHgM2G+n44aCpPlXvnBhyl4g4KjHeS0TE5ynvebPU8frDGlKNrT4JT/qzGXABUIOI+AvwXqCfPzU/T5nqdXPbibRgXSBrJPMxEXFoUqyRfB64ISnWxtXJA+tPdTb9DdIO51DzH/CaRMTJwAZAP356fgB4e0T8X9uJtCRrNv6/gU8nxRpRdULjfZRRzd16JbBSQhxrWNX099EaQrvpb8DMkhTnOkmTuoyx1qBVlhFxYXWU7HTKnP9+cB2weUTc0XYiLVo1Kc6nmp6YGBHXSPoR8LmEcOsBf06IYw2pmv7quIb3qOqkkw2QrFMAGV4bEbe3nUQdJL0COBbYuO1cRnAS8P6I+M+I3znAJN1Nma7YjTuB/4mIbgvjMZO0DHBLQqgzImKzhDjWgBon/V1JmfQ3NDNAhoVfATQgIh4HNqN0avdKwTWlAPYG3u3FX+PofvEHOLKNxR8gIv5KGV/crbUlDeoFSAOlavqr83pfL/4DyAVAQyJiYtWpvSpwTtv5TOFsyijPvUaaRjckMib/BfDzhDjdOCIhxjzAqxPiWP1+DKyRHPN5yoeCgXo1a//lAqBhEXF1RGwAbEi771evpjT6bRgRfs/7Xxm9Grf1QA/FiUlxFkiKYzWpuenv4hriWo9wAdCSiDib8mlze8qwnab8HXgPsGpEnNvgc/tFxiU71ybE6EpEPEE5zdEtFwA9rMamvyMjInOuhPUgFwAtqqa4HQssDawF7E9ZoLP9E/gh8HZg2Yj4rbf7pytj+l/rBUDl9oQYLgB6lCf9WbeyjgFaF6pmsT9VX7tLegNlpPCWwJsopzXGFBK4AjgNOC0isobDDIOMAuDuhBgZbqf7I40uAHpQjU1/9+Gmv6HhAqAHRcSNwI3AtyTNCixM6UxfpPrr5L+fBNxLGTgz1V/9B7hjGQVAr/y5yihE5kuIYYCkWSgDlp4BnomICV2Eq6vpz5P+hkiv/KCy6agu4bmLwbpgqJdlFADZW7KdWjghxhslLe9dpNGTNDtlnPQKlJHSk79ewxQ/cyVNoBQDT1Fe/f2F0hj8Z+DG6V3A5aY/y+ICwGxqGZeczJ0QI8PSCTG2ALaQdBdwVvV1TtVkaBVJCwHvpFwEtgEw1yh+2SyU3ytzAwsBb5ni/3tO0lXA0cCx1SwRJL0FN/1ZEk8CNJuCpD2AfbsMc3xEbJuRTzckPQ68vIbQz1P6Vc4CzoqI62t4Rl+QtBmwB2Xxrqup+ingeMqkzkPJf+9/BfBWvzYcPi4AzKYgaSu6P0N/d0QslpFPpyQtAtzT0OOm3B04d/Kn1UFVXRe9BfA1YHzL6XTrPuBNEdErjavWIB8DNJtaxjHMRSUtnhCnG9kNYjOyGLAT5RPqg5LOl7SHpBUazKER1Sf+a4CT6f/Ff/KkPy/+Q8oFgNnUsoYyfTApTqfqaBIbjVkpDXD7Um4JvVPS4ZK2qi7F6kuS5pL0c8rR2je2nU+Sz0RExp0R1qf8CsDsRSTdQzlm2Y17gcWn18ldJ0mvoQx/6rUC/3ngEuBM+qh3QNIqwK+BpdrOJdHPI+IjbSdh7eq1HxBmveCChBiLANskxOnEp+jNP9uzAuvw392Bu3p5d0DFFylFyyAt/lcAn2g7CWtf1g7AW4FujwXdFBHPJeRi1pWkRkAouwDLR8TDCbFGpfq0ein9d8R3AlOfLLiuzWQkzQT8DPhQm3nUwE1/9oKsAmDeiHg0IY5Z6yTNSblIZzRnuUfy24h4T0KcEVXjYa8Glm/ieTW7G/g9pSA4u8mTBQO8+D8PrO/3/jZZL24TmrUqIp6mvKfOsJ2kjyXFGsnBDMbiD7Ao8BHKZTcPSbpA0hcl1dqAN8CLP8CnvfjblLwDYDYNkrYFfpsULoCPRsTPk+K9hKSDgU/WFb/HTLk7cE5EPJYRtDrffwSDufgfERFtnQyxHuUCwGwaJI2nzGTPEsDOEXFYYszJF8z8ANg1M24fmUBp0pvcO9DxVcySdgf2y0qsh1wOrONJf/ZiLgDMXkTSe4DDqGeM7gnArhFxf7eBJC0H/IJyZbQV91B2B85kDLsDklYGLqN3LnLK9FZf8mPT4gLArCJpDuBAYOeaH/Ug8GXgV1W/wZhIWpByjOtL5NxeOKhGtTsgaS7Kbk/G5Um96LyIeFvbSVjvcQFgBkhaCjgOWKnBxz4K/BL4OXBdREya3jdWV8yuTpnwty0weyMZDpbJuwOTTxY8BiDpZ5SGw0H24Yg4su0krLe4ALChJ2k74HDq2fIfrf8A1wPXUs5qz1R9vRxYjTJ3frYGcngZ5efCoJtAmZdwI/Xv+PSCR4BlI+K+thOx3uECwIZW9an6BwzHAjCSicBalBHC7wA2BjYE5m0zqQFwF3ARpRHvCsrrn+err3mBFSm7TqsDa1Nv8XVcRGxXY3zrMy4AbCi1tOXfy74VEf875f8gaWbKrYIbA5tQ/l0Nw+5AhnMpcxlOn9GrnSlJeh3wMcpFUgvVlNcqEXF1TbGtz7gAsKHTI1v+veQaYLWRLi6S9CpKMbAxsAHwygZy6zc3AR+KiCs6DSDpZcC3KXc6ZBdcv4yI9yfHtD7lAsCGhrf8p+lZyqfCG8byi6r5A2/mv7sDK9aQWz+ZBOwPfC3rvL2ktwJHAa/NiFd5DniNewEMXADYkJC0JHA83vKf0vPANhFxareBJI1j6t2Bnrvdr0aTgA9ExDHZgatdl/OB1yeG/XpEfCMxnvUpFwA28LzlP00TgPdERMath1OpdgfW5L+7AytkP6OHTKIcsTu6rgfUUAT8G1jct6+aCwAbWNWW/4HALm3n0mMmAjtGRNZdBzMkaTHKyYJNgLczWIXYlyPiu3U/RNKrgevI67vYKCL+LymW9SkXADaQqi3/4yjn5+2/atuuHg1Js1KOG05+XdDPtxdeDqwZERObeJikHYGs/277RsSXkmJZn3IBYAOnusnvcIbrPfRoTKTcSnhU24lMVn2ynfyq4G3A3O1mNGrPAuMj4uYmHyrpRGCrhFBXRMTqCXGsj7kAsIHR0pb//wF/APamtxevv1I++V/ediLTI2k2yu7AJpSiYLl2M5qhQyLiE00/VNLrKUcNuz0eOBGYLyIe7z4r61cuAGwgtLDlPxHYC/h2REyS9BrgUMq77l4yCfghsGdEPNN2MmMhaXH+uzuwPjBXuxlNZYWxHp3MIukPlCmN3dosIs5IiGN9aqa2EzDrVrXlfzXNLf73Am+LiH0mT3mLiH9FxMbAB4CHG8pjJLcB60bE5/pt8QeIiDsi4qcRsTkwP+V44YHALe1mxkVtLf6Vg5Li+BXAkHMBYH1L0uySfgL8lube958NrBQRF07r/4yIXwDLUmYOtOUJ4ABgxUG5Bz4ino2Ic6piZllgCWBX4AzgqYbTOaHh573YuZQZDt1aJCGG9TEXANaXqi3/S2nuff9E4KvAOyLi/hl9Y0TcHxHbAm+kzIN/pIH8oLzn3w1YNCK+EBH/aei5jYuIf0bETyJiM2A+YCPKq45bG3h8E8+Yrmo359qEUAsnxLA+5h4A6zstdPnfC2w/vU/9I5E0B/Bu4KPAOpmJUd7xn0kpNM6OiIw/z31N0hL8t5FwPWDO5Ee8LiL+kRxzTCT9GOi2CfGqiFg1Ix/rTy4ArG9UXf7fp/sffGNxNvDekT71j5akpYF3UXYH3ggsA8w6hhCPU/odrqy+Lo2IuzNyG0RV8bUupRjYlPLqoBvPA3M2dfZ/eiTtAezbZZg7I+I1GflYf3IBYH0Y12/bAAAQiElEQVShuir1eFrq8q/rIdXRt9dTioHlKMXA81N8Taj++m/gKuBWf8rvjKT1gPO6DPP3iFgqI59uSPoC8L0uwzwbEXNk5GP9aZa2EzAbiaRtgJ/RJ1v+Y1HNY7+u+rJ6PZkQY96EGBkyitKmmyetx7gJ0HpW1eX/Y8r5/p7o8re+lvGqZH5J8yXE6VbGJ/d7EmJYH3MBYD2p2vK/hObe94+6y9/61n2U/87dWjohRrcy7lC4NyGG9TEXANZzqi3/PwMrN/TIe4G3TznYxwZP1bh3X0KoXigAVkqI4R2AIecCwHpGy1v+FzT0PGtXxmuAVgsASXMl5eAdgCHnAsB6Qktb/l/DW/7DJqMAeFtCjG5sC8ycEMc7AEPOBYC1rsUt/296y3/o3JkQYw1J70yI06mdk+LclRTH+pQLAGtNteX/I7zlb83pdg7AZPtI6vZK3jGTNB5YLSHUROCChDjWx7IGAZ1EzuUU3fpiRNzRdhI2smrL/zia+9Q/Edgb+JY/9Q8vSS8DHiRnPPB7IuK3CXFGpSo4zidnnPQFEbFeQhzrY1kFQK8YHxHXtJ2EzZikdwNH0Oxgnx38qd8AJJ0GbJYQ6lZguabGAkvaFfhRUrjPRMQPk2JZn/IrAGvMFFv+x9Pc4n8O3vK3qZ2WFGdp4GeSav85Wt0h0e3s/ymdkhjL+pQLAGvEFF3+uzb0yMld/hu5y99e5HRyRukCfBA4WlJGV/40VVdfnwvMlRTyGr8qNXABYA2otvzd5W89ISLuAy5PDPle4Jd1FAHV4n8+sFhiWH/6N8AFgNWo2vI/GG/5W+/5aXK87YHfVE2GKSTtCFxB7uL/LHBkYjzrYy4ArBaSlgD+BHyyoUd6y9/G4hjyb2DcBrhD0p6SOi54JS0q6SRKjtm3Dx4cEf9Kjml9yqcALF215f8zYJ6GHukufxszSRsBv68p/KPAwcAPIuLhUeazBvAp4N3ArDXk9Ajwuoh4pIbY1odcAFgaSbMBB9Dcp34oW/47+lO/dULS2cDba3zEk8BFwDXAtcBtlJ3XWSlX+i4PrA6sASxRYx4AX4iIA2p+hvURFwCWotryPw54U0OP9GAf61o1We9qys/CQXYHsExEPNt2ItY73ANgXZO0NaXLv6nF/9/ABu7yt25FxF+AX7WdRwO+4sXfXswFgHVM0mxVl/8JNPe+f3KX//kNPc8G36eAv7edRI1+FRHDUOTYGLkAsI5UW/6X0Nz7/knA1yld/vc19EwbAlVT3ObA423nUoMrgY+2nYT1JhcANmYtbfm/PSK+4S1/q0NE3Ew5yz9Iv7/uAbaMiGfaTsR6kwsAG7Vqy/8gvOVvAygizgS+3HYeSZ4B3hUR97SdiPUuFwA2KlNs+e/W0CO95W+Ni4j9KAN4+t1OEXFF20lYb5ul7QSs91Vb/kfQ3Kf+f1MG+/hTv7XhQ8BjNHdxVab/b+/uY/aq6zuOv79thXUKBRli0RVhZTLUwoLiwx9TJIoxyoAFiTqNGXPTbIvOBKe4ROJTgJBsGhLFmDmXjNW4pbWYIBq7oYYHp7EyEhc3oDxYHitgQaSUfvfHuTsqAuW+zvc657ru3/uV3Lkbkn6ubxqS87l+55zf7yHg7Mz8l7EH0eyrKgAfoPsfb2y3jj3ANETEQcAa4Lf3+r0S2L7wc89ev+/KzDuKPnc/4CKG+9YP3alnb/dbv8aSmbuAv4yI64CLmc6ufNPwU7p7/t8fexDNh6qNgA7OzPsKcgRExDrgDODNdGeOP2uRETcA3wCuADZn5o4JZjgK+DLw0sX+3QntptvY5xM+6KdZERF/QPfMy6Fjz7IP1wBnZObtYw+i+WEBmAEREcCJdBf9M4C1hfG7gKvpCsGlmXnj05jnDOAfcMlfIiKOADYB68ae5Un8E/BnbvSjxbIAjCgilgHvojvF7ogBPnIX8I/Ax5/oRDCX/KUnFhEr6W51fpDhjrbel/8Fzs3Mr4w9iOaTBWAkEfFG4AK6w0CGtpPutL5P7nlNKCKOpNvL3yV/6UlExKHA3wLvZbxnA+4GPgZckpmPjDSDlgALwMAi4qXAhcBJY89C967wZ+lOKvsMLvlLT8vCMzKfBM5iuIOEfgH8HXDBJM/1SI9nARhIROxP90Tx2Sz9k8eeikv+WjIi4ji6HQRPA144hY/YTfcMz0a6Pf19yE9lLAADiIjnABuAV409y4h20y1beoKflqSIOIauCJxG91DvpEX/l3RFeSOwKTPvqplQ+lUWgCmLiJcAlzHMQ36z6g66b/2bxx5EGkJErKY7K+NwYPXC7z1/Xg08QrdX/zbg9r1+3wZck5kPjDC2GmMBmKKIeBNwKXDA2LOMyCV/SZpBngUwJRHxV8BXaffivxs4D3i9F39Jmj2eBTAFC9/8P027D/u55C9JM84VgGIR8bt0p4m1evH/Ft3xvV78JWmGWQAKRcQBdE/7D/U+/SxxyV+S5oi3AIos7Of/JeDYsWcZgUv+kjRnLAB1zgVOH3uIEWym29XPb/2SNEd8DbDAwgYg1wPLx55lQG7sI0lzzBWAGucxzMX/x8BWHts0ZDmPbTKyFjhqgBnAJX9JmnuuAPS0sNPfj5jeU/9X0j1YuDEzb97HLMfSbUN6JnD8lOZ5BDgqM2+bUr4kaQAWgJ4iYgPdRbfaNcA5mfndSf5yRJwOfAo4pnSqzh9n5j9PIVeSNBALQA8RcQLw/eLYB4B3Z+b6vkERsRz4C+Aias8u/6/MXFeYJ0kamPsA9POx4rybgFdWXPwBMvPRzPwM8Dpge0XmgpdExBsL8yRJA7MATCgijgYqL4JbgBMz8/rCTAAy80q640lvLYx9X2GWJGlgFoDJnVKYdSdwambeU5j5KzLzRuBU4BdFka+NiEOKsiRJA7MATK6qADwMnJ6Zld/On1BmbgHeSc1zHyuYzsOPkqQBWAAmEBHPAF5TFHdhZl5dlLVPmflvdIcVVTizKEeSNDDfAphARLwa+I+CqLuAtZm5oyDraYuINcBPgP17Rj0CHJiZv+w/lSRpSK4ATKZq+f/jQ1/8ATLzFuDigqhnAMcV5EiSBmYBmMzJBRkP050eOJbPF+WcUJQjSRqQBWAyRxRkbB7j2/8emfkTurMF+rIASNIcsgBMpuL1t68WZPRVMcOLCjIkSQOzACxSRKyi5hTFqwoy+qqYwb0AJGkOWQAWr+qCt60op4/bCzKeXZAhSRqYBWDxfqsgYyfws4KcvipKyKqImNZRyJKkKalYygZ4f0T0fRf8s5l5f8k001WxArA9Myv2X+irYuvh5cBK6rYYliQNoKoAfLQgYz0wDwWg4ljdWVk2r5jjocz04i9Jc8ZbAItXsWf//hExCyXg8IKMiucIJEkDswAs3s1FORUX374qZpiFhxklSYtkAVikzPwZ8EBB1IkFGX1VzOAKgCTNIQvAZG4pyPjDgoy+KmZwBUCS5pAFYDIVtwFeFxG/WZAzkYg4ElhXEOUKgCTNIQvAZLYWZKwE3laQM6mzi3JuKMqRJA3IAjCZbxXlnBcRK4uynraIWA38dUHUTuAbBTmSpIFZACbzdeChgpznAe8vyFms84CK2w//npk/L8iRJA3MAjCBzHwQ+GZR3Eci4riirH2KiFOoW/7fWJQjSRqYBWByG4pynglsiojnFOU9qYg4Bvgy3fa9fSWwqSBHkjQCC8DkLgN2FWWtATZGxIFFeb9m4b7/JmBVUeT3MtNXACVpTlkAJpSZ24FvF0a+Erg6In6nMBOAiDgB+E/g6MLYqhUQSdIILAD9/H1x3rHAtRHxhqrAiHgn8B26Bw6r3Ad8vjBPkjQwC0APmXkZcGVx7CHA5RFxeURMvFFPRJwUEdcCX6Lbc6DS+Zl5b3GmJGlAQfcw1yw4MjO3jj3EYkXEy4Br6f4tq+2me9ZgA/C1hdsOTzXL8+i2930L8OopzAPwU+DozKx4DVKSNJKqAvBFuk1h+vjIvi5wsyoi1gNnTfljHgW+R7cL4Ta6LXiXA6vpTvVbC/w+0ykie3t3Zn5hyp8hSZqyqgJwcGbeV5AzlyLiKODHwH5jzzJl/w28ODMfHXsQSVI/PgNQIDNvBC4ee44BnOPFX5KWBgtAnXOBq8ceYoo+lZlfG3sISVINbwEUiojD6O7Trxl7lmIbgD/KzFl5YFSS1JMrAIUy807gzcADY89SaAvwDi/+krS0WACKZeZ1wNvpXuGbd3cCpy4cfiRJWkIsAFOQmZuAD489R087gNMy89axB5Ek1bMATElmXgi8h/77I4xhK/CqzLxm7EEkSdNhAZiizLwEOIlu05558V3gxMy8fuxBJEnTYwGYssy8CjiB+XhF8IvAyZl599iDSJKmywIwgMy8HXgNcMnIozyZXXSb/PxJZs7jLQtJ0iJZAAaSmTsz8z3AmcANY8+zl68Ax2bmRWMPIkkajgVgYJn5r8DvAe8D7hlxlM109/rfkpn/M+IckqQRuBPgiCLiQOAc4E+B5w70sVuAD2XmFQN9niRpBlkAZkBErABOAd5Ft5Pg/sUfcR2wEdiYmT8szpYkzSELwIyJiGcDbwJeAbwcWAesWGTMLuAqHrvo31Q6pCRp7lkAZlxErKR7jXAtcNDjfh6m22Ng28LPnj/f5bG9kqSnYgGQJKlBvgUgSVKDLACSJDXIAiBJUoMsAJIkNcgCIElSgywAkiQ1yAIgSVKDLACSJDXIAiBJUoMsAJIkNcgCIElSgywAkiQ1yAIgSVKDLACSJDXIAiBJUoNWFOWcHBEPFmVJkqQpCyDHHkKSJA3LWwCSJDXIAiBJUoMsAJIkNcgCIElSgywAkiQ1yAIgSVKDLACSJDVoGbBj7CEkSdKwlgFbxh5CkiQNaxnwg7GHkCRJw1oGfGfsISRJ0rAiM4mIK4DXjz2MJEkaxp4C8HzgemDV2ANJkqTpWwaQmbcBZwJ3jDuOJEkawv/vA5CZ3wReBFw63jiSJGkIkZm//h8jXgy8AngZcBzwGwPPJUmSpugJC4AkSVra3ApYkqQGWQAkSWqQBUCSpAZZACRJapAFQJKkBlkAJElqkAVAkqQGWQAkSWqQBUCSpAZZACRJapAFQJKkBlkAJElqkAVAkqQGWQAkSWqQBUCSpAatGHuApSgiDgWe2TNme2bu6DnHwcCqnnPcn5n39sxYMiJiP+DwnjG7MvO2nnMsA9b0nIPM3No3YymJiMOAlT1j7s7MB3vOcQhwQM857s3M+3tmLBkRsRI4rGfMzszc1nOOFcDze86xOzNv6ZlBZGbfDD1ORKwHzuoZ897M/FzPOc4H/qbnHBdk5od6ZiwZEXE88MOeMTdn5gt6znEQ0LuYZWb0zVhKIuLrwCk9Y96amet7zvE54M97zvHhzDy/Z8aSERFvAC7vGfOjzDy+5xwvAG7qOcf9mXlQzwxvAUiS1CILgCRJDbIASJLUIAuAJEkNsgBIktQgC4AkSQ2yAEiS1CALgCRJDbIASJLUIAuAJEkNsgBIktQgC4AkSQ2yAEiS1CALgCRJDbIASJLUIAuAJEkNsgBIktQgC4AkSQ2yAEiS1CALgCRJDbIASJLUIAuAJEkNsgBIktQgC4AkSQ2yAEiS1CALgCRJDbIASJLUIAuAJEkNsgBIktQgC4AkSQ2yAEiS1CALgCRJDbIASJLUoP8DOA4dwQ72QlsAAAAASUVORK5CYII=;" vertex="1" parent="1">
          <mxGeometry x="190.5" y="142.75" width="29.5" height="29.5" as="geometry" />
        </mxCell>
        <mxCell id="RO8CWs9kd0AewVBDbx6X-39" value="" style="shadow=0;dashed=0;html=1;strokeColor=none;fillColor=#4495D1;labelPosition=center;verticalLabelPosition=bottom;verticalAlign=top;align=center;outlineConnect=0;shape=mxgraph.veeam.storage_cluster;" vertex="1" parent="1">
          <mxGeometry x="172" y="413" width="42.25" height="47.5" as="geometry" />
        </mxCell>
        <mxCell id="RO8CWs9kd0AewVBDbx6X-47" value="" style="shape=image;verticalLabelPosition=bottom;labelBackgroundColor=default;verticalAlign=top;aspect=fixed;imageAspect=0;image=data:image/png,iVBORw0KGgoAAAANSUhEUgAAAgAAAAIACAMAAADDpiTIAAAAA3NCSVQICAjb4U/gAAAACXBIWXMAAJhmAACYZgEoSOfRAAAAGXRFWHRTb2Z0d2FyZQB3d3cuaW5rc2NhcGUub3Jnm+48GgAAAFdQTFRF////AQACAQACAQACAQACAQACAQACAQACAQACAQACAQACAQACAQACAQACAQACAQACAQACAQACAQACAQACAQACAQACAQACAQACAQACAQACAQACAQACAQACuwY+cAAAABx0Uk5TAAEFBwggKC0wPUBCSGmVlpeYmZqbnJ3g8PX7/qys/qsAAAt1SURBVHja7dIHVh07FETRhzE44Bw/ds9/nB+Mswmvu0tSXdWpAWgt3bMPB9ZvL1+dcITk/l+X1wiI7r8sbxAQ3R8B6f0RkN4fAen9EZDeHwHp/RGQ3h8B6f0RkN4fAen9EZDeHwHp/RGQ3h8B6f0RkN4fAen9EZDeHwHp/RGQ3n9Z3iIguj8C0vsjIL0/AtL7IyC9PwLS+yMgvT8C0vsjIL0/AtL7IyC9PwLS+yMgvT8C0vsjIL0/AtL7IyC9PwLS+y/LOwRE90dAen8EpPdHQHp/BKT3R0B6fwSk90dAen8EpPdHQHp/BKT3R0B6fwSk90dAen8EpPdHQHp/BKT3R0B6/2V5j4Do/ghI74+A9P4ISO+PgPT+CEjvj4D0/ghI74+A9P4ISO+PgPT+CEjvj4D0/ghI74+A9P4ISO+PgPT+CEjvj4D0/svyAQHR/RGQ3r+SgNOnbfYkun8hAeeNDvBfdv86AooCsO9fRkBNAAX6VxFQEkCJ/kUEVARQpH8NAQUBlOlfQkA9AIX6VxBQDkCp/gUEVANQrL+/gGIAyvW3F1ALQMH+7gJKASjZ31xAJQBF+3sLKASgbH9rAXUAFO7vLKAMgNL9l+XjCQCS+/sKKAKgfH9bATUATNDfVUAJAFP0NxVQAcAk/T0FFAAwTX9LAf4AJurvKMAewFT9DQW4A5isv58AcwDT9bcT4A1gwv5uAqwBTNnfTIAzgEn7ewkwBjBtfysBvgAm7u8kwBbA1P2NBLgCmLy/jwBTANP3X5ZPJwBI7u8iwBJARH8TAY4AQvp7CDAEENPfQoAfgKD+DgLsAET1NxDgBiCs/3gBZgDi+g8X4AUgsP9oAVYAIvsPFuAEILT/WAFGAGL7DxXgAyC4/0gBNgCi+w8U4AIgvP84ASYA4vsPE+ABgP7DBFgAoP84AQ4ATul/s2ehAB6T/mbPAQAAAAAAAAAAAAAAAAAAAAAAAAAAAAAAAAAAAAAAAAAAAAAAAAAAAAAAAAAAAAAAAAAAAAAAAAAAAAAAAAAAAAAAAAAAACzL5ZdWnwNABQCXF61CvfgMAH8AlxeHVgDOzz4DwB3AVf92AA5tBABA278hgDYCAKDt3xJAEwEA0PZvCqCFAABo+7cF0EAAALT9GwPQCwCAtn9rAHIBAND2bw5ALQAA2v7tAYgFAEDbvwMArQAAaPv3ACAVAABt/y4AlAIAoO3fB4BQAAC0/TsB0AkAgLZ/LwAyAQDQ9u8GQCUAANr+/QCIBABA278jAI0AAGj79wQgEQAAbf+uABQCAKDt3xeAQAAAtP07A9gvAADa/r0B7BYAAG3/7gD2CgCAtn9/ADsFAEDbfwCAfQIAoO0/AsAuAQDQ9h8CYI8AAGj7jwGwQwAAtP0HAdguAADa/qMAbBYAAG3/YQC2CgCAtv84ABsFAEDbfyCAbQIAoO0/EsAmAQDQ9h8KYIsAAGj7jwWwQQAAtP0HA1gvAADa/qMBrBYAAG3/4QDWCgCAtv94ACsFAEDb3wDAOgEA0PZ3ALBKAAC0/S0ArBEAAG1/DwArBABA298EwPECAKDt7wLgaAEA0Pa3AXCsAABo+/sAOFIAALT9jQAcJwAA2v5OAI4SAABtfysAxwgAgLa/F4AjBABA298MwMMCAKDt7wbgQQEA0Pa3A/CQAABo+/sBeEAAALT9DQHcLwAA2v6OAO4VAABtf0sA9wkAgLa/J4B7BABA298UwN0CAKDt7wrgTgEA0Pa3BXCXAABo+/sCuEMAALT9jQHcLgAA2v7OAG4VAABtf2sAtwkAgLa/N4BbBABA298cwL8CAKDt7w7gHwEA0Pa3B/C3AABo+/sD+EsAALT9CwD4UwAAtP0rAPhDAAC0/UsA+F1APABx/xoAfhOQDkDdvwiAXwLCAcj7VwHwU0A2AH3/MgB+CIgG0KB/HQDfBSQDaNG/EIAbAcEAmvSvBOCbgFwAbfqXAnAtIBZAo/61AFwJSAXwqFH/YgAOZ+ehAJqtGIAhAwAAAAAAAAAAAAAAAAAAAAAAAAAAAAAAAAAAAAAAAAAAAAAAAAAAAAwFcH4GgOtdPAoF8PzzGQCu+l8+TgWwtBFQC8DF5ZILoI2AUgCu+icDaCKgEoDr/tEAWggoBOBb/2wADQTUAXDTPxyAXkAZAN/7pwOQC6gC4Ef/eABqAUUA/OwPALGAGgB+9QeAWEAJAL/1B4BYQAUAv/cHgFhAAQB/9AeAWIA/gD/7A0AswB7AX/0BIBbgDuDv/gAQCzAH8E9/AIgFeAP4tz8AxAKsAdzSHwBiAc4AbusPALEAYwC39geAWIAvgNv7A0AswBbAHf0BIBbgCuCu/gAQCzAFcGd/AIgFeAK4uz8AxAIsAdzTHwBiAY4A7usPALEAQwD39geAWIAfgPv7A0AswA7AA/0BIBbgBuCh/gAQCzAD8GB/AIgFeAF4uD8AxAKsABzRHwBiAU4AjukPALEAIwBH9QeAWIAPgOP6A0AswAbAkf0BIBbgAuDY/gAQCzABcHR/AIgFeAA4vj8AxAIsAKzoDwCxAAcAa/oDQCzAAMCq/gAQCxgPYF1/AIgFDAewsj8AxAJGA1jbHwBiAYMBrO4PALGAsQDW9weAWMBQABv6A0AsYCSALf0BIBYwEMCm/gAQCxgHYFt/AIgFDAOwsT8AxAJGAdjaHwBiAYMAbO4PALGAMQC29weAWMAQADv6A0AsYASAPf0BIBYwAMCu/gAQC+gPYF9/AIgFdAewsz8AxAJ6A9jbHwBiAZ0B7O4PALGAvgD29weAWEBXAIL+ABAL6AlA0R8AYgEdAUj6A0AsoB8ATX8AiAV0AyDqDwCxgF4AVP0BIBbQCYCsPwDEAvoA0PUHgFhAFwDC/gAQC+gBQNkfAGIBHQBI+wNALKA9AG1/AIgFNAcg7g8AsYDWANT9ASAW0BiAvD8AxALaAtD3B4BYQFMADfoDQCygJYAW/QEgFtAQQJP+ABALaAegTX8AiAW8aAWgUX8AqEM1evdLo/4ASB8AAAAAAAAAAAAAAAAAAAAAAAAAAAAAAAAAAAAAAAAAAAAAAAAAAAAAAAAAAAAAAAAAAAAAAAAAAAAAAAAAAAAAAAAAAFAKwDPSf9vX01AAJ5+If93/5SEUAALW958LAAJW958MAALW9p8NQLqA1f2nA5AtYH3/+QAkC9jQf0IAuQK29J8RQKqATf2nBJApYFv/OQEkCtjYf1IAeQK29p8VQJqAzf2nBZAlYHv/eQEkCdjRf2IAOQL29J8ZQIqAXf2nBpAhYF//uQEkCNjZf3IAh5OP9I8GMLuA3f2nBzC3gP395wcwswBB/wAA8wpQ9E8AMKsASf8IAHMK0PTPADCjAFH/EADzCVD1TwEwmwBZ/xgAcwnQ9c8BMJMAYf8gAPMIUPZPAjCLAGn/KABzCND2zwIwgwBx/zAA9QWo+6cBqC5A3j8OwOHkA/2jAVQW0KB/IIC6Alr0TwRQVUCT/pEAagpo0z8TQEUBjfqHAqgnoFX/VADVBDTrHwugloB2/XMBVBLQsH8wgDoCWvZPBlBFQNP+0QBqCGjbPxtABQGN+4cD8BfQun86AHcBzfsfnjxts9MDAir0Z84C6J8tgP69BLynPwLojwD6I4D+CKA/AuiPAPojgP4IoD8C6I8A+iOA/gigPwLojwD6I4D+CKA/AuiPAPpPLOAd/RFAfwTQHwH0RwD9EUB/BNAfAfRHAP0RQH8E0B8B9EcA/RFAfwTQHwH0RwD9EUD/qQW8pT8C6I8A+iOA/gigPwLojwD6I4D+CKA/AuiPAPojgP4IoD8C6I8A+iOA/gigPwLoP7WAN/RHAP0RQH8E0B8B9EcA/RFAfwTQHwH0RwD94wXQP1sA/bMF0D9bAP2zBdA/WwD9swXQP1sA/bMF0D9ZwGv6hwt4Rf+e+x8gVFYFWF+PGwAAAABJRU5ErkJggg==;" vertex="1" parent="1">
          <mxGeometry x="176" y="471" width="42" height="42" as="geometry" />
        </mxCell>
        <mxCell id="RO8CWs9kd0AewVBDbx6X-48" value="&lt;div&gt;REST &lt;br&gt;&lt;/div&gt;&lt;div&gt;Client&lt;br&gt;&lt;/div&gt;" style="text;html=1;align=center;verticalAlign=middle;resizable=0;points=[];autosize=1;strokeColor=none;fillColor=none;" vertex="1" parent="1">
          <mxGeometry x="130" y="473" width="50" height="40" as="geometry" />
        </mxCell>
        <mxCell id="RO8CWs9kd0AewVBDbx6X-49" value="Datacenter" style="text;html=1;align=center;verticalAlign=middle;resizable=0;points=[];autosize=1;strokeColor=none;fillColor=none;" vertex="1" parent="1">
          <mxGeometry x="126" y="380" width="80" height="30" as="geometry" />
        </mxCell>
        <mxCell id="RO8CWs9kd0AewVBDbx6X-61" style="edgeStyle=orthogonalEdgeStyle;rounded=0;orthogonalLoop=1;jettySize=auto;html=1;" edge="1" parent="1" source="RO8CWs9kd0AewVBDbx6X-50" target="RO8CWs9kd0AewVBDbx6X-52">
          <mxGeometry relative="1" as="geometry">
            <Array as="points">
              <mxPoint x="350" y="532" />
              <mxPoint x="350" y="532" />
            </Array>
          </mxGeometry>
        </mxCell>
        <mxCell id="RO8CWs9kd0AewVBDbx6X-62" value="&lt;div&gt;Logs&lt;/div&gt;&lt;div&gt;Writing&lt;br&gt;&lt;/div&gt;" style="edgeLabel;html=1;align=center;verticalAlign=middle;resizable=0;points=[];" vertex="1" connectable="0" parent="RO8CWs9kd0AewVBDbx6X-61">
          <mxGeometry x="-0.1433" y="2" relative="1" as="geometry">
            <mxPoint as="offset" />
          </mxGeometry>
        </mxCell>
        <mxCell id="RO8CWs9kd0AewVBDbx6X-50" value="IoT Users" style="rounded=0;whiteSpace=wrap;html=1;" vertex="1" parent="1">
          <mxGeometry x="118.88" y="519" width="153" height="25" as="geometry" />
        </mxCell>
        <mxCell id="RO8CWs9kd0AewVBDbx6X-58" style="edgeStyle=orthogonalEdgeStyle;rounded=0;orthogonalLoop=1;jettySize=auto;html=1;" edge="1" parent="1">
          <mxGeometry relative="1" as="geometry">
            <mxPoint x="378.75" y="473" as="targetPoint" />
            <mxPoint x="378.75" y="503" as="sourcePoint" />
          </mxGeometry>
        </mxCell>
        <mxCell id="RO8CWs9kd0AewVBDbx6X-63" value="Logs Reading" style="edgeLabel;html=1;align=center;verticalAlign=middle;resizable=0;points=[];" vertex="1" connectable="0" parent="RO8CWs9kd0AewVBDbx6X-58">
          <mxGeometry x="-0.0667" relative="1" as="geometry">
            <mxPoint as="offset" />
          </mxGeometry>
        </mxCell>
        <mxCell id="RO8CWs9kd0AewVBDbx6X-52" value="" style="sketch=0;outlineConnect=0;fontColor=#232F3E;gradientColor=none;fillColor=#000000;strokeColor=none;dashed=0;verticalLabelPosition=bottom;verticalAlign=top;align=center;html=1;fontSize=12;fontStyle=0;pointerEvents=1;shape=mxgraph.aws4.logs;" vertex="1" parent="1">
          <mxGeometry x="366.8" y="510.6099999999999" width="24.4" height="33.39" as="geometry" />
        </mxCell>
        <mxCell id="RO8CWs9kd0AewVBDbx6X-53" value="&lt;div&gt;Logs&amp;nbsp;&lt;/div&gt;&lt;div&gt;Collector&lt;/div&gt;" style="text;html=1;align=center;verticalAlign=middle;resizable=0;points=[];autosize=1;strokeColor=none;fillColor=none;" vertex="1" parent="1">
          <mxGeometry x="390" y="507.3" width="70" height="40" as="geometry" />
        </mxCell>
        <mxCell id="RO8CWs9kd0AewVBDbx6X-73" style="edgeStyle=orthogonalEdgeStyle;rounded=0;orthogonalLoop=1;jettySize=auto;html=1;" edge="1" parent="1" source="RO8CWs9kd0AewVBDbx6X-54">
          <mxGeometry relative="1" as="geometry">
            <mxPoint x="250" y="434" as="targetPoint" />
          </mxGeometry>
        </mxCell>
        <mxCell id="RO8CWs9kd0AewVBDbx6X-54" value="" style="rounded=0;whiteSpace=wrap;html=1;" vertex="1" parent="1">
          <mxGeometry x="324" y="401.5" width="110" height="65" as="geometry" />
        </mxCell>
        <mxCell id="RO8CWs9kd0AewVBDbx6X-57" value="" style="shape=image;html=1;verticalAlign=top;verticalLabelPosition=bottom;labelBackgroundColor=#ffffff;imageAspect=0;aspect=fixed;image=https://cdn4.iconfinder.com/data/icons/success-filloutline/64/brain-think-brainstorm-creative-idea-128.png" vertex="1" parent="1">
          <mxGeometry x="360" y="414" width="38" height="38" as="geometry" />
        </mxCell>
        <mxCell id="RO8CWs9kd0AewVBDbx6X-65" value="D" style="text;html=1;align=center;verticalAlign=middle;resizable=0;points=[];autosize=1;strokeColor=none;fillColor=none;" vertex="1" parent="1">
          <mxGeometry x="264" y="396" width="30" height="30" as="geometry" />
        </mxCell>
        <mxCell id="RO8CWs9kd0AewVBDbx6X-67" value="D&#39;" style="text;html=1;align=center;verticalAlign=middle;resizable=0;points=[];autosize=1;strokeColor=none;fillColor=none;" vertex="1" parent="1">
          <mxGeometry x="265" y="438" width="30" height="30" as="geometry" />
        </mxCell>
      </root>
    </mxGraphModel>
  </diagram>
</mxfile>
